<?xml version="1.0" encoding="UTF-8"?>
<!DOCTYPE svg PUBLIC "-//W3C//DTD SVG 1.1//EN" "http://www.w3.org/Graphics/SVG/1.1/DTD/svg11.dtd">
<svg version="1.1" xmlns="http://www.w3.org/2000/svg" xmlns:xlink="http://www.w3.org/1999/xlink" x="0" y="0" width="95" height="95" viewBox="0, 0, 95, 95">
  <g id="Layer_1">
    <path d="M57.9,11 C57.9,16.357 53.557,20.7 48.2,20.7 C42.843,20.7 38.5,16.357 38.5,11 C38.5,5.643 42.843,1.3 48.2,1.3 C53.557,1.3 57.9,5.643 57.9,11 z" fill="#000000"/>
    <path d="M15.491,49.893 L34.905,51.717 L34.605,54.903 L15.191,53.079 z" fill="#000000"/>
    <path d="M88.8,30.5 L86.7,28.8 C86.1,28.3 85.2,28.4 84.7,29 L83,31.1 L72.2,22.5 L73.9,20.4 C74.3,19.9 74.3,18.9 73.7,18.4 L71.6,16.7 C71,16.2 70.1,16.3 69.6,16.9 L64.2,23.6 C63.7,24.2 63.8,25.1 64.4,25.6 L66.5,27.3 C67.1,27.8 68,27.7 68.5,27.1 L70.1,25.1 L71.9,26.5 C71.7,26.6 71.5,26.8 71.3,27 L63.4,35 L51.1,25.5 C47.5,22.8 42.8,22.3 38.7,24.3 L24.2,31.7 C22.7,32.5 21.8,34 21.9,35.7 L22.6,50.3 L21,50.1 L21.2,47.5 C21.3,46.6 20.7,46 19.9,45.9 L17.2,45.7 C16.4,45.6 15.7,46.2 15.6,47 L14.8,55.5 C14.7,56.3 15.3,57 16.1,57.1 L18.8,57.3 C19.6,57.4 20.3,56.8 20.4,56 L20.6,53.4 L22.9,53.6 C23.4,55.5 25.1,56.9 27.1,56.9 C27.2,56.9 27.2,56.9 27.3,56.9 C29,56.8 30.3,55.8 31,54.4 L32.7,54.6 L32.5,57.4 C32.4,58.2 33,58.9 33.8,59 L36.5,59.2 C36.6,59.2 36.6,59.2 36.7,59.2 C37.4,59.2 38,58.6 38.1,57.9 L38.9,49.4 C39,48.5 38.4,47.8 37.6,47.8 L34.9,47.6 C34.8,47.6 34.8,47.6 34.7,47.6 C34,47.6 33.4,48.2 33.3,48.9 L33,51.3 L31.3,51.1 L30.7,38 L35.5,35.6 L35,45.9 C35,45.9 35,45.9 35.1,45.9 L37.7,46.1 C38.5,46.1 39.2,46.5 39.8,47.1 C40.4,47.8 40.7,48.6 40.6,49.5 L39.9,58 L39.9,58 L39.9,58 C39.7,59.5 38.4,60.7 36.9,60.7 C36.8,60.7 36.7,60.7 36.6,60.7 L34.1,60.5 L25.3,73.5 L12.6,84.1 C10.6,85.8 10.3,88.9 12.1,90.9 C13.1,92 14.4,92.6 15.8,92.6 C16.9,92.6 18,92.2 18.9,91.4 L31.8,80.3 C32.1,80 32.4,79.7 32.7,79.3 L42,65.6 L53.1,73.1 L49.4,87.6 C48.7,90.2 50.3,92.8 52.9,93.5 C53.3,93.6 53.7,93.6 54.1,93.6 C56.3,93.6 58.2,92.1 58.8,90 L63.3,72.2 C63.8,70.2 63,68.2 61.3,67 L50.2,59.5 C50.4,58.9 50.5,58.3 50.5,57.6 L51.5,36.5 L61.3,44 C63,45.3 65.5,45.2 67,43.6 L77.5,32.9 C77.9,32.5 78.2,32.1 78.4,31.6 L81,33.7 L79.3,35.8 C78.8,36.4 78.9,37.3 79.5,37.8 L81.6,39.5 C82.2,40 83.1,39.9 83.6,39.3 L89,32.6 C89.6,31.9 89.5,31.1 88.8,30.5 z" fill="#000000"/>
  </g>
</svg>
