<?xml version="1.0" encoding="UTF-8"?>
<!DOCTYPE svg PUBLIC "-//W3C//DTD SVG 1.1//EN" "http://www.w3.org/Graphics/SVG/1.1/DTD/svg11.dtd">
<svg version="1.1" xmlns="http://www.w3.org/2000/svg" xmlns:xlink="http://www.w3.org/1999/xlink" x="0" y="0" width="100" height="100" viewBox="0, 0, 100, 100">
  <g id="Layer_1">
    <path d="M57.105,73.914 L50.348,62.663 L45.592,75.963 L36.18,90.296 L36.18,90.296 C34.648,92.901 32.856,94.547 30.321,93.838 C27.786,93.134 26.03,90.324 27.199,87.814 L36.813,71.876 L41.003,56.595 C41.251,55.191 40.375,52.93 40.375,52.93 C39.55,49.784 40.111,47.915 40.111,47.915 L42.6,33.615 L36.412,38.988 L33.87,49.841 C33.472,52.112 32.242,53.804 30.136,53.822 C28.028,53.84 26.3,51.971 26.49,50 L26.49,50 L29.762,36.519 C30.166,33.88 31.663,33.002 31.663,33.002 L45.206,23.294 C53.081,20.268 58.21,25.728 58.21,25.728 L64.789,38.876 L72.219,44.548 C73.813,46.266 74.018,48.673 72.455,50.135 C71.112,51.391 68.541,50.541 67.26,49.218 L60.806,44.302 C59.534,43.537 56.606,37.45 56.606,37.45 L54.628,50.328 C54.297,51.914 55.105,52.93 55.105,52.93 L65.252,69.19 L68.081,87.842 L68.081,87.842 C68.746,90.901 67.388,93.096 65.031,93.705 C62.548,94.348 60.226,92.856 59.616,90.41 L57.105,73.914 z" fill="#000000"/>
    <path d="M63.06,13.08 C63.793,17.083 61.26,20.9 57.402,21.607 C53.545,22.313 49.824,19.641 49.091,15.637 C48.358,11.634 50.891,7.817 54.748,7.11 C58.605,6.404 62.327,9.077 63.06,13.08 z" fill="#000000"/>
  </g>
</svg>
