<?xml version="1.0" encoding="UTF-8"?>
<!DOCTYPE svg PUBLIC "-//W3C//DTD SVG 1.1//EN" "http://www.w3.org/Graphics/SVG/1.1/DTD/svg11.dtd">
<svg version="1.1" xmlns="http://www.w3.org/2000/svg" xmlns:xlink="http://www.w3.org/1999/xlink" x="0" y="0" width="100" height="100" viewBox="0, 0, 100, 100">
  <g id="Layer_1">
    <path d="M77.08,14.49 C76.857,13.262 75.926,12.283 74.71,12 C73.009,11.712 71.261,11.964 69.71,12.72 C57.336,17.488 47.018,26.43 40.54,38 C38.32,42 36.54,46.23 34.74,50.41 C30.284,60.444 26.483,70.755 23.36,81.28 C22.959,82.4 22.805,83.595 22.91,84.78 C23.223,86.069 24.115,87.14 25.326,87.682 C26.537,88.224 27.93,88.175 29.1,87.55 C30.56,86.63 31.28,84.9 31.9,83.29 L39.19,64.53 L49.43,83.8 C50.26,85.37 51.2,87.04 52.82,87.8 C54.08,88.273 55.489,88.132 56.63,87.418 C57.771,86.705 58.514,85.5 58.64,84.16 C58.576,82.984 58.263,81.835 57.72,80.79 C54.47,73.25 51.48,66.32 48.25,58.79 C53.9,57.79 58.25,57.38 63.15,55.93 C69.06,54.18 67.08,48.69 64.48,44.99 C62.67,42.42 60.65,38.69 58.97,35.99 C55.54,30.57 56.21,28.15 61.62,24.9 C65.254,22.787 69.061,20.987 73,19.52 C74.067,19.168 75.061,18.622 75.93,17.91 C76.883,17.048 77.318,15.752 77.08,14.49 z M58.78,50.14 L51.28,50.93 L55.54,45.59 z M73,31.79 C73,35.275 70.175,38.1 66.69,38.1 C63.205,38.1 60.38,35.275 60.38,31.79 C60.38,28.305 63.205,25.48 66.69,25.48 C70.175,25.48 73,28.305 73,31.79 z" fill="#000000"/>
  </g>
</svg>
