<?xml version="1.0" encoding="UTF-8"?>
<!DOCTYPE svg PUBLIC "-//W3C//DTD SVG 1.1//EN" "http://www.w3.org/Graphics/SVG/1.1/DTD/svg11.dtd">
<svg version="1.1" xmlns="http://www.w3.org/2000/svg" xmlns:xlink="http://www.w3.org/1999/xlink" x="0" y="0" width="100" height="100" viewBox="0, 0, 100, 100">
  <g id="Layer_1">
    <path d="M94.812,66.714 L89.894,66.714 C90.848,66.084 91.478,65.005 91.471,63.777 C91.464,62.538 90.81,61.459 89.836,60.842 C89.47,60.056 88.873,59.368 88.074,58.888 L66.042,45.662 C64.136,44.519 61.679,44.937 60.261,46.651 L55.946,51.861 L56.408,52.579 C56.449,52.643 56.473,52.713 56.51,52.779 C57.51,54.552 56.979,56.821 55.247,57.936 C54.376,58.495 53.341,58.682 52.328,58.464 C52.022,58.398 51.737,58.286 51.463,58.154 C50.828,57.847 50.282,57.382 49.891,56.775 L47.319,52.779 L43.173,52.779 L42.473,52.779 L41.773,52.779 L46.344,49.877 L48.212,52.779 L50.521,56.368 C50.812,56.821 51.213,57.17 51.674,57.417 C51.929,57.554 52.197,57.668 52.487,57.731 C53.302,57.909 54.138,57.758 54.84,57.305 C56.29,56.372 56.71,54.435 55.777,52.986 L55.644,52.779 L55.443,52.467 L49.919,43.883 C49.324,42.958 48.314,42.452 47.285,42.452 C46.712,42.452 46.134,42.609 45.617,42.936 L29.827,52.958 C28.167,53.445 26.947,54.962 26.947,56.78 L26.947,57.634 L26.947,58.473 L26.947,63.043 C26.947,63.099 26.961,63.15 26.963,63.205 C26.971,63.404 26.986,63.601 27.022,63.792 C27.032,63.843 27.046,63.894 27.058,63.945 C27.096,64.111 27.15,64.272 27.208,64.43 C27.264,64.569 27.318,64.709 27.392,64.841 C27.399,64.856 27.408,64.87 27.415,64.884 C27.838,65.694 28.516,66.347 29.359,66.713 L29.36,66.714 L20.996,66.714 C23.932,65.464 25.947,62.919 25.947,59.976 C25.947,55.798 21.896,52.411 16.898,52.411 C11.901,52.411 7.849,55.798 7.849,59.976 C7.849,62.919 9.864,65.464 12.8,66.714 L5.188,66.714 L5.188,71.564 L35.687,71.564 L51.703,83.841 C52.338,84.328 53.087,84.564 53.83,84.564 C54.881,84.564 55.921,84.092 56.61,83.193 C57.786,81.658 57.496,79.462 55.962,78.286 L47.192,71.564 L94.812,71.564 L94.812,66.714 z M64.726,55.369 L73.066,60.376 L60.522,60.444 L64.726,55.369 z M6.188,70.564 L6.188,67.714 L30.664,67.714 L34.382,70.564 L6.188,70.564 z M93.812,70.564 L45.887,70.564 L42.17,67.714 L93.812,67.714 L93.812,70.564 z M8.797,42.107 C9.175,42.202 9.561,42.266 9.95,42.3 C10.001,42.987 10.186,43.652 10.513,44.231 C11.015,45.12 11.861,45.768 12.839,46.016 C12.992,47.056 13.656,48.028 14.61,48.569 C15.233,48.921 15.976,49.101 16.795,49.101 C17.113,49.101 17.441,49.074 17.779,49.02 C18.019,48.981 18.182,48.755 18.143,48.515 C18.105,48.276 17.877,48.111 17.639,48.15 C16.615,48.318 15.742,48.198 15.044,47.802 C14.407,47.442 13.931,46.805 13.757,46.122 C14.337,46.107 14.89,45.935 15.365,45.613 C15.842,45.29 16.196,44.685 16.227,44.141 C16.248,43.764 16.114,43.43 15.849,43.203 C15.63,43.018 15.328,42.929 14.995,42.933 C13.956,42.963 13.041,43.927 12.845,45.1 C12.194,44.876 11.622,44.404 11.28,43.798 C11.033,43.361 10.887,42.853 10.839,42.325 C11.26,42.311 11.68,42.263 12.092,42.178 C13.109,41.969 13.835,41.563 14.312,40.939 C14.876,40.2 15.059,38.912 14.372,38.118 C13.922,37.597 13.177,37.399 12.47,37.608 C11.934,37.771 11.436,38.147 10.988,38.729 C10.397,39.498 10.049,40.452 9.96,41.417 C9.64,41.386 9.322,41.331 9.011,41.253 C8.262,41.065 7.768,40.762 7.501,40.328 C6.907,39.367 7.469,37.954 8.242,37.048 C9.203,35.921 10.481,35.125 11.839,34.806 C12.076,34.751 12.222,34.513 12.167,34.277 C12.111,34.04 11.874,33.889 11.638,33.95 C10.098,34.311 8.654,35.209 7.572,36.477 C6.566,37.656 5.923,39.447 6.751,40.791 C7.145,41.429 7.814,41.86 8.797,42.107 z M15.02,43.813 C15.026,43.813 15.034,43.813 15.041,43.813 C15.111,43.813 15.218,43.822 15.277,43.873 C15.299,43.892 15.357,43.941 15.348,44.092 C15.333,44.361 15.12,44.717 14.872,44.884 C14.533,45.114 14.135,45.235 13.714,45.243 C13.845,44.485 14.414,43.831 15.02,43.813 z M11.685,39.265 C12.014,38.839 12.373,38.557 12.724,38.451 C12.828,38.42 12.933,38.404 13.035,38.404 C13.299,38.404 13.545,38.506 13.706,38.694 C14.086,39.133 13.962,39.948 13.613,40.404 C13.27,40.854 12.714,41.152 11.914,41.316 C11.563,41.388 11.205,41.431 10.846,41.444 C10.928,40.658 11.212,39.882 11.685,39.265 z" fill="#000000"/>
  </g>
</svg>
