<svg xmlns="http://www.w3.org/2000/svg" data-name="Layer 1" viewBox="0 0 100 100" x="0px" y="0px"><title>All2</title><path d="M82.6,0a25,25,0,0,1,3.05,1,11.24,11.24,0,0,1,7.06,10.82c0.08,11.51,0,23,0,34.53,0,0.22,0,.45-0.07.74A12.17,12.17,0,0,0,85,48V15.55H7.77c0,0.32-.06.67-0.06,1q0,31.93,0,63.86c0,3.11,1.47,4.58,4.55,4.58h38c-0.74,2.52-1.44,5-2.19,7.37a0.86,0.86,0,0,1-.67.36c-1,0-2,0-3,0q-16.14,0-32.27,0A11.63,11.63,0,0,1,.54,84.57c-0.2-.65-0.36-1.31-0.54-2q0-36.2,0-72.4A3.72,3.72,0,0,0,.19,9.66a11.28,11.28,0,0,1,6.67-8.6A25.93,25.93,0,0,1,10.2,0H82.6Z"></path><path d="M78.2,64.31L90.44,76.45c-0.19.21-.41,0.45-0.63,0.67q-9,9-18.08,18a4.14,4.14,0,0,1-1.64,1c-4.27,1.3-8.56,2.55-12.86,3.78a3.06,3.06,0,0,1-1.52.08,1.6,1.6,0,0,1-1.08-2q2-7,4.07-13.89a2.24,2.24,0,0,1,.58-0.89Q68.64,73.77,78,64.44A0.61,0.61,0,0,1,78.2,64.31ZM68.91,92.83c-0.36-1.91-.7-3.74-1.07-5.55a0.8,0.8,0,0,0-.45-0.54c-1.83-.41-3.68-0.78-5.56-1.16-0.68,2.32-1.27,4.56-2,6.75a2,2,0,0,0,.67,2.19,1.46,1.46,0,0,0,1.84.27Z"></path><path d="M73.35,46.42V54h-54V46.42h54Z"></path><path d="M73.34,31v7.59h-54V31h54Z"></path><path d="M69.73,61.89c-3.57,2.51-7,5-10.54,7.38a2.61,2.61,0,0,1-1.28.28q-18.77,0-37.54,0c-0.32,0-.64,0-1.05-0.08V61.89H69.73Z"></path><path d="M94.15,72L82.59,60.59c1.71-1.82,3.31-3.72,5.13-5.36a3.71,3.71,0,0,1,4.87.25c2.18,2.06,4.31,4.18,6.36,6.37a4,4,0,0,1,0,5.36,9.48,9.48,0,0,1-.67.72Z"></path></svg>