<svg xmlns="http://www.w3.org/2000/svg" xmlns:xlink="http://www.w3.org/1999/xlink" version="1.1" x="0px" y="0px" viewBox="0 0 100 100" enable-background="new 0 0 100 100" xml:space="preserve"><g display="none"><path display="inline" d="M60.726,43.93c2.178-2.179,5.556,1.2,3.378,3.38c-4.171,4.169-8.344,8.34-12.514,12.513   c-0.919,0.919-2.456,0.919-3.375,0c-4.174-4.179-8.347-8.352-12.521-12.527c-2.18-2.178,1.2-5.552,3.377-3.374   c3.612,3.609,7.221,7.22,10.831,10.83C53.508,51.147,57.12,47.54,60.726,43.93z M54.371,44.804c0-2.471-2.003-4.476-4.475-4.476   c-2.468,0-4.471,2.004-4.471,4.476c0,2.473,2.003,4.473,4.471,4.473C52.368,49.277,54.371,47.276,54.371,44.804z M54.371,14.41   c0-2.472-2.003-4.48-4.475-4.48c-2.468,0-4.471,2.009-4.471,4.48s2.003,4.468,4.471,4.468   C52.368,18.878,54.371,16.882,54.371,14.41z M54.371,25.132c0-2.471-2.005-4.468-4.471-4.468c-2.473,0-4.475,1.997-4.475,4.468   H54.371z M45.425,33.47c0,2.472,2.002,4.466,4.469,4.466c2.472,0,4.477-1.994,4.477-4.466H45.425z M89.988,85.134H9.807   c0-1.439,0-2.579,0.004-2.579c0,0,0.419-1.257,0.93-2.797l2.788-8.376c0.512-1.54,0.931-4.127,0.931-5.749V29.795   c0-1.623,1.328-2.948,2.95-2.948h64.644c1.622,0,2.946,1.325,2.946,2.948v35.838c0,1.622,0.446,4.198,0.992,5.728l3,8.418   c0.55,1.526,0.996,2.776,0.996,2.776S89.988,83.694,89.988,85.134z M60.322,80.024l-1.642-4.455H40.99l-1.517,4.455H60.322z    M80.663,34.52c0-1.528-1.253-2.779-2.782-2.779H21.915c-1.528,0-2.779,1.25-2.779,2.779v27.264c0,1.529,1.251,2.78,2.779,2.78   h55.966c1.529,0,2.782-1.251,2.782-2.78V34.52z M9.807,86.439c0,1.622,1.328,2.952,2.949,2.952H79.6h7.442   c1.619,0,2.946-1.33,2.946-2.952H9.807z"></path></g><g display="none"><path display="inline" d="M60.548,44.102c2.172-2.172,5.538,1.196,3.366,3.369c-4.157,4.158-8.317,8.315-12.475,12.474   c-0.916,0.916-2.448,0.916-3.364,0c-4.161-4.165-8.321-8.324-12.482-12.488c-2.173-2.171,1.196-5.535,3.367-3.363   c3.601,3.599,7.199,7.2,10.797,10.796C53.351,51.299,56.953,47.7,60.548,44.102z M54.213,44.973c0-2.463-1.997-4.461-4.461-4.461   c-2.46,0-4.457,1.998-4.457,4.461c0,2.465,1.997,4.459,4.457,4.459C52.216,49.432,54.213,47.438,54.213,44.973z M54.213,14.674   c0-2.465-1.997-4.467-4.461-4.467c-2.46,0-4.457,2.002-4.457,4.467c0,2.464,1.997,4.454,4.457,4.454   C52.216,19.128,54.213,17.138,54.213,14.674z M54.213,25.362c0-2.463-1.999-4.454-4.458-4.454c-2.465,0-4.46,1.991-4.46,4.454   H54.213z M45.295,33.674c0,2.464,1.995,4.452,4.455,4.452c2.464,0,4.463-1.988,4.463-4.452H45.295z M89.717,82.607   c0,0-0.442-1.246-0.989-2.769l-2.991-8.391c-0.545-1.525-0.99-4.094-0.99-5.711V30.011c0-1.618-1.319-2.939-2.937-2.939H17.366   c-1.617,0-2.941,1.321-2.941,2.939v35.727c0,1.617-0.417,4.196-0.927,5.731l-2.78,8.35c-0.509,1.535-0.929,2.789-0.929,2.789   c-0.002,0-0.002,1.325-0.002,2.941v0.433c0,1.619,1.324,2.939,2.939,2.939h60.943v-3.382c0-1.504,2.325-1.274,2.325,0.223v3.159   h1.047v-3.382c0-1.504,2.323-1.274,2.323,0.223v3.159h7.419c1.614,0,2.937-1.32,2.937-2.939v-0.433   C89.72,83.933,89.72,82.607,89.717,82.607z M80.423,61.9c0,1.524-1.248,2.771-2.773,2.771H21.857c-1.523,0-2.771-1.246-2.771-2.771   v-27.18c0-1.523,1.248-2.771,2.771-2.771h55.792c1.525,0,2.773,1.247,2.773,2.771V61.9z M60.146,80.085H39.361l1.512-4.441h17.636   L60.146,80.085z"></path></g><g display="none"><path display="inline" d="M62.866,61.057c-0.689,0.58-0.981,1.742-0.644,2.58c0,0,0.899,2.24,0.899,4.382h-0.045   c0.01,0.056,0.035,0.111,0.035,0.171c0,0.608-0.493,1.102-1.102,1.102H39.657c-0.609,0-1.102-0.493-1.102-1.102   c0-0.06,0.027-0.115,0.035-0.171h-0.015c0-2.142,0.9-4.382,0.9-4.382c0.336-0.838,0.045-2-0.644-2.578   c0,0-15.188-12.733-15.188-23.938c0-15.021,12.18-27.201,27.203-27.201c15.026,0,27.206,12.18,27.206,27.201   C78.053,48.326,62.866,61.057,62.866,61.057z M65.315,39.083l0.015-0.068c0.021-0.096,0.03-0.196,0.03-0.294v-6.593   c0-3.07-2.494-5.567-5.567-5.567h-0.281c-3.073,0-5.566,2.497-5.566,5.567v6.593c0-0.163,0.029-0.327,0.085-0.48   c-0.056,0.153-0.115,0.382-0.115,0.548c0,0.784-0.303,1.521-0.86,2.077c-0.553,0.556-1.293,0.86-2.077,0.86   c-0.01,0-0.292,0.003-0.292,0.003c-1.614,0-2.931-1.32-2.931-2.942c0-0.067-0.005-6.482-0.005-6.482c0,0.09-0.01,0.181-0.025,0.269   c0.016-0.087,0.031-0.203,0.031-0.293c0-3.07-2.496-5.57-5.566-5.57h-0.284c-3.07,0-5.567,2.5-5.567,5.567   c-0.003,0.07-0.005,6.485-0.005,6.485l0,0c0,0.724,0.588,1.315,1.314,1.315c0.727,0,1.315-0.588,1.315-1.315l0,0v-6.415   c0.002-1.689,1.32-3.007,2.942-3.007h0.284c1.62,0,2.94,1.318,2.94,2.94c0-0.091,0.007-0.184,0.027-0.272   c-0.02,0.091-0.032,0.204-0.032,0.297l0.002,6.415c0.003,3.14,2.498,5.637,5.57,5.637c0.006,0,0.287,0,0.287,0   c1.484,0,2.882-0.581,3.934-1.632c1.051-1.051,1.628-2.452,1.628-3.938c0,0.166-0.029,0.327-0.09,0.48   c0.061-0.153,0.115-0.38,0.115-0.546v-6.593c0-1.619,1.323-2.939,2.942-2.939h0.281c1.62,0,2.942,1.32,2.942,2.939v6.593   c0-0.101,0.01-0.198,0.03-0.296l-0.016,0.068c-0.161,0.707,0.277,1.413,0.985,1.577C64.445,40.231,65.148,39.789,65.315,39.083   L65.315,39.083z M61.99,73.888c0-1.217-0.99-2.202-2.207-2.202H41.912c-1.217,0-2.205,0.985-2.205,2.202v0.639   c0,1.217,0.988,2.203,2.205,2.203h17.872c1.217,0,2.207-0.986,2.207-2.203V73.888z M61.99,80.609c0-1.215-0.99-2.203-2.207-2.203   H41.912c-1.217,0-2.205,0.988-2.205,2.203v0.643c0,1.218,0.988,2.203,2.205,2.203h17.872c1.217,0,2.207-0.985,2.207-2.203V80.609z    M57.46,87.656c0-1.216-0.991-2.205-2.203-2.205h-8.815c-1.216,0-2.204,0.989-2.204,2.205l0,0c0,1.218,0.988,2.203,2.204,2.203   h8.815C56.469,89.859,57.46,88.874,57.46,87.656L57.46,87.656z"></path></g><g display="none"><path display="inline" d="M79.387,17.295l10.354,44.812c1.096,4.729-1.883,9.497-6.612,10.588L30.855,84.779   c-0.38,0.086-0.751,0.106-1.131,0.143c-4.335,0.421-8.449-2.408-9.458-6.756L9.916,33.395c-0.303-1.324,0.489-2.625,1.756-3.032   c0.073-0.02,0.123-0.065,0.19-0.08c0.068-0.02,0.14,0.005,0.203-0.011c1.317-0.192,2.603,0.629,2.91,1.95l10.662,46.13   c0.267,1.166,1.435,1.893,2.593,1.622c1.167-0.269,1.892-1.429,1.625-2.595L18.614,28.763L75.947,15.51   c0.05-0.021,0.082-0.055,0.132-0.075l0.397-0.093c0.055-0.005,0.101,0.016,0.149,0.011C77.894,15.243,79.093,16.028,79.387,17.295z    M52.315,38.848c1.661-0.38,3.326-0.771,4.982-1.152c0.923-0.213,1.62-0.937,1.48-1.93c-0.109-0.857-1.015-1.677-1.92-1.471   c-1.665,0.387-3.339,0.776-5,1.156c-0.915,0.213-1.597,0.932-1.471,1.925C50.5,38.239,51.396,39.061,52.315,38.848L52.315,38.848z    M51.156,33.845c1.666-0.38,3.331-0.769,4.987-1.149c0.923-0.213,1.616-0.939,1.48-1.933c-0.118-0.855-1.019-1.677-1.919-1.468   c-1.67,0.385-3.34,0.776-5.005,1.156c-0.909,0.213-1.598,0.933-1.466,1.926C49.342,33.236,50.243,34.057,51.156,33.845   L51.156,33.845z M71.652,34.376c1.67-0.385,3.335-0.769,5.001-1.154c0.914-0.212,1.606-0.935,1.476-1.925   c-0.118-0.857-1.018-1.679-1.924-1.471c-1.665,0.385-3.34,0.769-5.005,1.156c-0.905,0.208-1.606,0.933-1.476,1.926   C69.848,33.763,70.748,34.584,71.652,34.376L71.652,34.376z M70.494,29.376c1.675-0.385,3.336-0.772,5.006-1.157   c0.909-0.212,1.597-0.932,1.471-1.925c-0.114-0.855-1.019-1.677-1.925-1.469c-1.66,0.385-3.334,0.77-5.004,1.154   c-0.905,0.208-1.603,0.932-1.471,1.926C68.693,28.763,69.589,29.584,70.494,29.376L70.494,29.376z M49.088,38.006   c-0.384-1.667-0.77-3.335-1.154-5.003c-0.213-0.9-0.937-1.595-1.923-1.464c-0.865,0.106-1.684,1.002-1.471,1.925   c0.384,1.668,0.77,3.335,1.154,5.003c0.208,0.9,0.932,1.595,1.923,1.468C48.473,39.825,49.297,38.922,49.088,38.006L49.088,38.006z    M44.133,39.151c-0.389-1.668-0.774-3.335-1.159-4.996c-0.208-0.908-0.937-1.602-1.928-1.471c-0.864,0.111-1.688,1.009-1.476,1.926   c0.389,1.667,0.774,3.339,1.159,5.002c0.208,0.9,0.937,1.596,1.928,1.469C43.513,40.97,44.341,40.067,44.133,39.151L44.133,39.151z    M68.439,33.535c-0.385-1.672-0.77-3.337-1.158-5c-0.204-0.908-0.941-1.598-1.924-1.471c-0.859,0.113-1.684,1.01-1.471,1.928   c0.385,1.665,0.77,3.337,1.154,5c0.209,0.903,0.938,1.602,1.924,1.469C67.829,35.349,68.651,34.449,68.439,33.535L68.439,33.535z    M63.471,34.682c-0.385-1.667-0.77-3.335-1.153-5.002c-0.209-0.903-0.933-1.596-1.925-1.469c-0.864,0.111-1.683,1.007-1.47,1.93   c0.385,1.668,0.769,3.335,1.153,4.996c0.208,0.907,0.933,1.602,1.928,1.471C62.864,36.501,63.684,35.598,63.471,34.682   L63.471,34.682z M60.664,50.938l19.628-4.534l0,0c0.692-0.164,1.136-0.863,0.973-1.557c-0.162-0.695-0.859-1.129-1.556-0.973l0,0   l-19.628,4.541l0,0c-0.692,0.156-1.136,0.855-0.973,1.555C59.271,50.663,59.973,51.101,60.664,50.938L60.664,50.938z    M62.031,56.853l19.627-4.541l0,0c0.697-0.157,1.132-0.856,0.969-1.556c-0.158-0.694-0.854-1.131-1.557-0.968l0,0l-19.627,4.534   l0,0c-0.692,0.163-1.127,0.862-0.964,1.558C60.633,56.574,61.334,57.009,62.031,56.853L62.031,56.853z M63.397,62.761l19.628-4.535   l0,0c0.696-0.163,1.132-0.862,0.973-1.557c-0.162-0.699-0.864-1.136-1.556-0.973l0,0l-19.628,4.536l0,0   c-0.696,0.161-1.132,0.86-0.973,1.555C62.004,62.486,62.701,62.923,63.397,62.761L63.397,62.761z M64.765,68.669l19.627-4.535l0,0   c0.693-0.163,1.132-0.862,0.974-1.557c-0.163-0.699-0.864-1.133-1.557-0.973l0,0l-19.627,4.536l0,0   c-0.697,0.164-1.136,0.863-0.974,1.555C63.371,68.397,64.067,68.831,64.765,68.669L64.765,68.669z M32.222,57.516l19.628-4.534l0,0   c0.691-0.164,1.131-0.862,0.973-1.558c-0.163-0.699-0.864-1.136-1.558-0.973l0,0l-19.626,4.537l0,0   c-0.697,0.16-1.136,0.859-0.973,1.554C30.828,57.241,31.525,57.678,32.222,57.516L32.222,57.516z M33.588,63.423l19.627-4.534l0,0   c0.692-0.163,1.131-0.861,0.969-1.555c-0.159-0.701-0.856-1.136-1.557-0.973l0,0l-19.623,4.535l0,0   c-0.697,0.162-1.136,0.861-0.973,1.554C32.19,63.151,32.887,63.586,33.588,63.423L33.588,63.423z M34.951,69.334l19.627-4.537l0,0   c0.701-0.161,1.136-0.86,0.973-1.555c-0.162-0.694-0.859-1.131-1.557-0.973l0,0l-19.627,4.541l0,0   c-0.692,0.156-1.127,0.855-0.973,1.555C33.557,69.06,34.258,69.496,34.951,69.334L34.951,69.334z M36.322,75.246l19.623-4.538l0,0   c0.697-0.159,1.132-0.858,0.974-1.558c-0.158-0.694-0.86-1.129-1.553-0.969l0,0l-19.627,4.537l0,0   c-0.702,0.162-1.136,0.855-0.973,1.555C34.928,74.968,35.625,75.404,36.322,75.246L36.322,75.246z"></path></g><g display="none"><path display="inline" d="M82.725,15.988c-13.826-2.768-27.654,1.396-41.482,2.22c0.339,1.2,0.537,2.467,0.537,3.795   c0,2.996-0.923,5.99-2.667,8.661l-0.295,0.453l3.264,3.427c0.857,0.924,0.806,1.798,0.613,2.371   c-0.334,1.009-1.358,1.923-2.545,2.27c-0.33,0.094-0.657,0.14-0.973,0.14c-0.826,0-1.57-0.319-2.149-0.923L34.26,35.52   l-0.445,0.279c-2.173,1.365-4.424,2.197-6.692,2.476c-1.153,0.144-2.278,0.146-3.368,0.03c0,15.628,0,31.257,0,46.886   c0,1.644,1.349,3.382,2.997,3.707c18.658,3.74,37.316-5.162,55.973-1.427c1.649,0.331,2.997-0.631,2.997-2.28   c0-21.831,0-43.661,0-65.491C85.722,18.051,84.374,16.318,82.725,15.988z M46.815,61.219c-0.158,2.694-1.149,5.25-1.912,6.933   c-0.764,1.682-1.333,1.208-2.331,1.365c-1,0.169-3.788,2.287-5.988,3.188c-2.2,0.995-7.137,1.919-8.027,0.646   c-0.89-1.191-2.426-3.07-1.056-4.015c1.371-0.976-0.79-0.878,1.942-2.407c2.734-1.612,0.923-2.769,1.947-3.764   c0.729-0.719,1.539-1.969,1.948-2.636c-0.3,0.285-0.914,0.448-2.174-0.473c-2.137-1.592-2.587-2.453-1.821-2.802   c0.767-0.355,2.126-0.715,2.126-0.719c0,0.015-2.12-1.893-1.887-3.156c0.233-1.231,2.804-0.437,2.804-0.455   c0,0.022,3.054,1.464,3.997,0.36c0.943-1.076,1.692-1.815,1.692-1.815c0,0.021-4.322,0.023-0.526-2.379   c0,0-1.053-0.599,0.333-1.501c1.387-0.916,1.734-0.85,3.004-1.163c1.27-0.316,3.303-0.583,1.995,0.848   c0,0.037,5.544-1.643,5.352,0.718c-0.195,2.39,0,2.832,0,2.832c0,0.005,3.192,0.023,1.501,1.849   c-1.696,1.823-2.131,2.636-2.131,2.636c-0.539,0.166-1.078,0.333-1.617,0.497C45.986,55.806,46.973,58.527,46.815,61.219z    M81.77,66.558c-2.217,3.373-4.59,4.542-5.086,4.968c0,0.004,5.153,2.325,3.971,3.331c-1.182,0.989-4.435,2.426-6.544,1.555   c0-0.003-1.608,1.318-2.96,0.884c-1.354-0.44-2.598-0.894-2.598-0.894c0-0.007-2.535,1.461-3.95,2.397   c-1.417,0.927-1.417,0.935-1.417,0.933c0-0.006-2.714-3.48-3.777-0.81c-1.065,2.668-1.673,3.499-1.673,3.495   c0,0-1.676-0.791-3.069-0.544c-1.396,0.246-2.67,0.479-3.292,2.025c-0.623,1.553-0.721,1.92-1.468,1.27   c-0.744-0.646-2.738-0.544-1.272-1.44c1.467-0.899,2.821-2.398,4.122-4.027c1.299-1.623,1.634-4.574,4.607-4.756   c2.969-0.177,6.232-4.771,6.232-4.771c0-0.009-3.559,4.551-6.391,2.588c-2.835-1.97-5.088,0.627-6.166-0.297   c-1.076-0.92,6.942-6.729,5.062-9.151c-1.879-2.427-2.047,0.359-2.047,0.359s-2.518-0.674,0.946-3.197   c3.464-2.525,5.192-1.486,5.666-2.485c0.472-1.004,0.762-3.573,0.773-5.691c0,0-1.154,0.979-2.349-0.405   c-1.192-1.384,1.259-5.2,1.259-5.2c0,0.002-6.628,2.993-7.555,2.751c-0.926-0.237-1.559-1.013-0.757-2.558   c0.798-1.548,1.354-3.228,0.745-4.389c-0.608-1.162-1.827-0.695-1.991-1.613c-0.167-0.92-0.897,4.08-1.459,3.982   c-0.562-0.102,0.241-3.438,0.074-5.49c-0.165-2.051,2.323-4.781,2.323-4.784c0,0.01-4.119,2.909-3.429,1.241   c0.692-1.661,3.34-13.926,4.232-15.153c0.893-1.227,2.36,0.272,4.98-0.688c2.626-0.959,4.443-0.657,2.459,1.283   c-1.984,1.947-6.075,8.029-3.243,6.693c2.835-1.343,6.303-3.227,7.558-2.289c1.256,0.929,1.024,1.561,0.108,4.219   c-0.91,2.66-1.602,5.906-3.73,7.467c-2.131,1.57-1.89,1.975-1.89,1.972c0,0,2.772-2.093,4.71-0.411   c1.936,1.636,6.515,7.49,5.311,9.554c0-0.065,5.656,2.823,5.768,6.158c0.002,0.124-1.308,0.443-1.308,0.445   c0-0.017,2.518,1.793,2.518,3.698c0,1.882-1.412,2.453-1.412,2.461c0.522,0.086,1.045,0.179,1.567,0.276   c0,0.012,0.544-1.677,2.715-1.354C80.814,60.479,83.983,63.222,81.77,66.558z M46.597,50.271c-0.335,1.036-1.124,2.033-1.555,1.409   c-0.431-0.618,0.333-1.061,0.333-1.061S46.932,49.235,46.597,50.271z M26.977,37.096c2.094-0.258,4.182-1.033,6.205-2.303   L34.442,34l3.443,3.578c0.508,0.531,1.181,0.681,1.937,0.464c0.797-0.233,1.535-0.866,1.746-1.503   c0.092-0.275,0.135-0.655-0.351-1.179l-3.907-4.108l0.807-1.239c1.617-2.476,2.472-5.246,2.472-8.009   c-0.001-7.447-5.938-12.934-13.466-11.991c-7.506,0.938-13.611,7.853-13.611,15.417c0,3.292,1.203,6.296,3.385,8.458   C19.436,36.399,23.054,37.594,26.977,37.096z M20.026,24.459c0,0.681-0.552,1.312-1.235,1.408c-0.678,0.086-1.23-0.393-1.23-1.076   c0-5.228,4.257-10.076,9.488-10.722c0.684-0.079,1.234,0.4,1.234,1.083c0,0.674-0.55,1.299-1.234,1.378   C23.176,17.01,20.026,20.588,20.026,24.459z"></path></g><g display="none"><path display="inline" d="M42.606,79.727c2.458,0,4.748-0.714,6.693-1.929c1.182,3.854,2.45,7.986,3.725,12.141H19.005   c-1.845,0-3.352-1.51-3.352-3.352V57.188c9.031-2.354,18.005-4.692,18.005-4.692c2.686-0.701,5.488,0.143,7.415,1.964   c-6.274,0.76-11.154,6.108-11.154,12.585c0,2.459,0.717,4.843,2.079,6.921l-2.078,2.379c-1.035,1.196-0.863,2.331-0.669,2.901   c0.399,1.152,1.507,2.062,2.827,2.323c0.248,0.047,0.488,0.069,0.725,0.069c1.038,0,1.996-0.442,2.697-1.246l1.688-1.936   C38.952,79.301,40.771,79.727,42.606,79.727z M34.838,30.65c0,0-3.289-10.725-6.334-20.649h-9.499   c-1.845,0-3.352,1.507-3.352,3.352v30.085c7.524-1.961,14.097-3.674,14.097-3.674C33.768,38.717,36.054,34.615,34.838,30.65z    M56.049,54.443c0,0,5.586,18.215,10.886,35.495h14.658c1.845,0,3.356-1.51,3.356-3.352V39.12   c-12.096,3.154-23.813,6.209-23.813,6.209C57.124,46.376,54.833,50.479,56.049,54.443z M81.593,10.001H49.621h-7.202   c2.712,8.852,5.305,17.292,5.305,17.292c1.216,3.965,5.492,6.353,9.509,5.305c0,0,14.331-3.736,27.716-7.228v-5.994v-6.025   C84.949,11.508,83.438,10.001,81.593,10.001z M53.794,67.044c0,6.168-5.015,11.183-11.188,11.183c-1.73,0-3.445-0.435-5.103-1.289   l-0.675-0.354l-0.504,0.58l-1.954,2.241c-0.515,0.59-1.109,0.732-1.567,0.732c-0.166,0-0.313-0.019-0.434-0.041   c-0.784-0.155-1.48-0.704-1.699-1.335c-0.161-0.474-0.037-0.951,0.379-1.432l2.344-2.684l0.499-0.58l-0.436-0.623   c-1.331-1.899-2.037-4.113-2.037-6.399c0-6.17,5.02-11.188,11.188-11.188C48.779,55.856,53.794,60.874,53.794,67.044z    M50.12,67.044c0-4.142-3.373-7.511-7.514-7.511c-0.541,0-0.977,0.437-0.977,0.975c0,0.535,0.437,0.972,0.977,0.972   c3.065,0,5.56,2.494,5.56,5.564c0,0.535,0.437,0.975,0.977,0.975S50.12,67.579,50.12,67.044z"></path></g><g display="none"><path display="inline" d="M88.131,64.387c-1.604,3.59-6.914,6.469-11.772,6.384l-17.212-0.52l-6.323,13.277   c-1.847,3.725-7.155,6.602-11.779,6.386c-4.566-0.243-6.704-3.493-4.858-7.214l6.323-13.276l-16.054-1.146   c-4.333-0.368-6.471-3.615-4.868-7.206c0.635-1.444,1.789-2.718,3.218-3.702c1.666,0.61,3.404,1.059,5.2,1.322   c3.966,0.578,8.084,0.161,12.104-1.233l0.588-0.199l3.863,6.005c1.551,2.41,3.815,2.77,5.026,2.77c0.103,0,0.201-0.002,0.295-0.007   c2.244-0.109,4.358-1.349,5.268-3.093c0.506-0.991,0.841-2.591-0.44-4.578l-4.553-7.095l0.422-0.443   c3.205-3.388,5.403-7.486,6.43-11.947c1.57-0.596,3.305-0.9,5.021-0.81c4.613,0.217,7.354,3.146,6.025,6.581l-5.163,12.65   l17.212,0.515C86.963,57.893,89.692,60.821,88.131,64.387z M30.399,56.011c-6.123-0.899-11.533-4.133-15.235-9.104   c-3.702-4.972-5.246-11.08-4.347-17.197c1.657-11.307,11.516-19.833,22.93-19.833c1.125,0,2.264,0.083,3.386,0.248   c6.117,0.898,11.526,4.134,15.231,9.111c3.706,4.979,5.25,11.09,4.352,17.208c-0.691,4.695-2.802,9.022-6.103,12.51l-1.888,1.986   l5.705,8.881c0.707,1.097,0.416,1.667,0.312,1.87c-0.461,0.882-1.719,1.568-2.99,1.631l-0.165,0.003   c-0.805,0-1.937-0.264-2.748-1.526l-5.006-7.789l-2.604,0.887C37.611,56.149,33.934,56.527,30.399,56.011z M35.536,20.998   c1.18,0.173,2.265-0.635,2.434-1.803c0.17-1.167-0.635-2.253-1.815-2.425c-8.984-1.32-17.371,4.925-18.688,13.912   c-0.169,1.166,0.634,2.26,1.809,2.432c1.159,0.169,2.26-0.643,2.435-1.808C22.689,24.64,28.874,20.018,35.536,20.998z"></path></g><g display="none"><path display="inline" d="M73.795,57.188c-0.363,0.402-0.569,0.678-0.672,0.883C73.253,57.708,73.493,57.414,73.795,57.188z    M87.768,48.664l-7.61,7.614l-3.518,3.516c-0.53,0.877-1.826,0.886-3.28,0.886l-3.822,0.001H44.186v18.226H20.653V60.68h-3.288   c-4.062,0-7.366-3.304-7.366-7.364v-19.72c0-4.061,3.304-7.364,7.366-7.364h3.288v-1.396c0-2.231,1.827-4.058,4.059-4.058h15.415   c2.231,0,4.059,1.826,4.059,4.058v3.311c0,0.013,0.008,0.024,0.008,0.038c0,1.079-0.874,1.953-1.954,1.953H17.366   c-1.907,0-3.46,1.552-3.46,3.458v19.72c0,1.906,1.553,3.458,3.46,3.458h52.171l4.639-0.002c0.648-0.686,1.645-1.682,3.219-3.256   l7.61-7.614c1.351-1.348,1.351-3.542,0.005-4.891l-7.618-7.616l-2.056-2.059c-0.504-0.501-0.879-0.879-1.191-1.197l-4.607-0.002   c-1.08,0-1.953-0.875-1.953-1.953s0.873-1.953,1.953-1.953l3.822,0.001c1.454,0,2.75,0.008,3.28,0.885l1.457,1.458l2.057,2.059   l7.617,7.615C90.64,41.121,90.64,45.793,87.768,48.664z M73.795,57.188c-0.302,0.227-0.542,0.521-0.672,0.883   C73.226,57.865,73.432,57.59,73.795,57.188z M65.811,43.453l-5.634,5.636c-0.845,0.841-1.092,2.033-0.646,3.112   c0.472,1.139,1.587,1.904,2.775,1.904c0.745,0,1.463-0.308,2.018-0.863l7.719-7.715c1.141-1.144,1.141-3.005-0.001-4.149   l-7.711-7.707c-1.442-1.448-4.029-0.813-4.796,1.039c-0.445,1.077-0.202,2.269,0.642,3.112L65.811,43.453z M48.042,52.201   c0.471,1.139,1.587,1.904,2.775,1.904c0.746,0,1.463-0.308,2.018-0.863l7.72-7.715c1.139-1.144,1.139-3.005-0.003-4.149   l-7.709-7.708c-1.445-1.445-4.03-0.812-4.797,1.041c-0.446,1.078-0.199,2.27,0.688,3.156l5.586,5.586l-5.633,5.636   C47.842,49.93,47.596,51.122,48.042,52.201z"></path></g><g display="none"><path display="inline" d="M49.985,49.218l-6.438,6.439l-3.65-3.652c0.306-0.25,0.634-0.47,0.917-0.752l4.767-4.77   c0.284-0.284,0.502-0.611,0.754-0.916L49.985,49.218z M89.614,68.348l-4.658-4.654c-2.126-2.126-5.583-2.127-7.715,0.005   l-0.196,0.197c-1.029,1.029-1.598,2.399-1.598,3.856c0,1.395,0.52,2.705,1.466,3.719c0.045,0.074,0.099,0.142,0.161,0.203   l4.732,4.731c1.243,1.243,1.243,3.263,0,4.507l-0.203,0.203c-1.243,1.243-3.265,1.243-4.508,0l-2.846-2.845   c0.439-1.085,0.221-2.376-0.658-3.253l-0.074-0.076l1.097-1.097l-6.726-6.725l-6.44,6.436l6.726,6.725l1.097-1.093l0.076,0.074   c0.566,0.567,1.321,0.877,2.124,0.877c0.418,0,0.818-0.095,1.189-0.253l2.834,2.831c1.063,1.066,2.459,1.597,3.855,1.597   c1.395,0,2.792-0.53,3.854-1.597l0.203-0.203c2.127-2.123,2.127-5.583,0-7.709L78.8,70.198c-0.043-0.07-0.096-0.135-0.153-0.194   c-0.604-0.6-0.936-1.4-0.936-2.252c0-0.853,0.332-1.652,0.94-2.257l0.196-0.2c1.243-1.241,3.263-1.243,4.56,0.049l4.606,4.605   c0.442,0.44,1.159,0.44,1.601,0C90.058,69.506,90.058,68.789,89.614,68.348z M71.316,62.09c1.031-1.031,1.031-2.709,0-3.738   L58.753,45.791c-0.496-0.497-1.159-0.771-1.869-0.771c-0.709,0-1.372,0.273-1.869,0.77L40.118,60.687   c-0.497,0.498-0.77,1.161-0.77,1.87s0.275,1.372,0.771,1.869l12.56,12.562c0.992,0.992,2.745,0.992,3.738,0L71.316,62.09z    M47.994,37.926c0-2.93-1.142-5.686-3.213-7.756L33.522,18.909c-2.072-2.073-4.827-3.212-7.757-3.212   c-2.932,0-5.686,1.14-7.758,3.212l-4.767,4.767c-4.277,4.278-4.277,11.24,0,15.516l11.259,11.26   c2.071,2.071,4.827,3.212,7.757,3.212c2.931,0,5.687-1.141,7.757-3.212l4.768-4.769C46.852,43.612,47.994,40.856,47.994,37.926z    M21.714,25.867c-1.583,1.522-3.768-1.083-2.198-2.592c1.677-1.609,3.944-3.392,6.445-3.101c2.355,0.27,4.094,1.694,5.741,3.296   c1.573,1.533-1.037,3.711-2.592,2.198c-0.892-0.867-2.119-2.101-3.47-2.112C24.057,23.541,22.771,24.85,21.714,25.867   L21.714,25.867z"></path></g><g display="none"><path display="inline" d="M47.473,47.104l-5.134,5.135c-2.231,2.229-5.197,3.458-8.354,3.458c-3.156,0-6.123-1.229-8.353-3.458   L13.509,40.113c-2.231-2.229-3.459-5.196-3.459-8.353c0-3.156,1.229-6.123,3.459-8.355l5.132-5.133   c2.231-2.23,5.198-3.46,8.354-3.46c3.156,0,6.123,1.229,8.354,3.46l12.123,12.126C52.078,35.004,52.078,42.499,47.473,47.104z    M89.481,65.238l-5.017-5.014c-1.107-1.108-2.582-1.719-4.152-1.719c-1.568,0-3.043,0.61-4.15,1.719l-0.221,0.221   c-2.239,2.241-2.285,5.858-0.141,8.157c0.05,0.079,0.107,0.151,0.174,0.218l5.1,5.096c0.647,0.646,1.004,1.508,1.003,2.426   c0,0.918-0.357,1.78-1.01,2.433l-0.213,0.213c-1.341,1.339-3.52,1.337-4.854,0.001l-3.066-3.066   c0.474-1.167,0.237-2.558-0.709-3.503l-0.08-0.081l1.18-1.18L49.232,47.063l-0.849,0.85l-5.232,5.233l-0.85,0.851l24.09,24.091   l1.182-1.181l0.081,0.082c0.611,0.609,1.422,0.945,2.285,0.945c0.451,0,0.887-0.097,1.289-0.271l3.047,3.049   c1.144,1.144,2.646,1.716,4.149,1.716c1.504,0,3.011-0.573,4.158-1.72l0.212-0.214c1.109-1.107,1.721-2.583,1.721-4.152   c0.001-1.57-0.609-3.045-1.718-4.151l-4.967-4.965c-0.048-0.073-0.104-0.141-0.164-0.202c-1.338-1.339-1.338-3.518,0-4.856   l0.219-0.22c1.297-1.295,3.505-1.345,4.911,0.053l4.959,4.961c0.478,0.475,1.249,0.477,1.725,0.001   C89.958,66.485,89.958,65.715,89.481,65.238z M23.541,25.766c1.139-1.096,2.522-2.505,4.228-2.489   c1.455,0.012,2.777,1.34,3.738,2.274c1.674,1.629,4.484-0.717,2.791-2.368c-1.775-1.725-3.646-3.258-6.183-3.549   c-2.694-0.314-5.135,1.605-6.94,3.339C19.482,24.599,21.835,27.404,23.541,25.766L23.541,25.766z"></path></g><g display="none"><path display="inline" d="M69.808,42.588H52.179v-1.869c1.029-0.393,1.768-1.392,1.768-2.543V35.71   c0-1.505-1.227-2.731-2.734-2.731h-2.623c-1.508,0-2.735,1.226-2.735,2.731v2.465c0,1.152,0.738,2.15,1.767,2.543v1.869H29.994   c2.337-6.234,7.545-11.202,14.224-13.053c0.258-0.071,0.452-0.283,0.5-0.544c0.049-0.262-0.056-0.53-0.27-0.688   c-2.386-1.769-3.754-4.459-3.754-7.384c0-5.077,4.13-9.207,9.208-9.207c5.076,0,9.205,4.13,9.205,9.207   c0,2.923-1.369,5.614-3.757,7.384c-0.214,0.158-0.318,0.426-0.268,0.688c0.047,0.263,0.241,0.473,0.498,0.544   C62.26,31.386,67.469,36.354,69.808,42.588z M51.249,43.518v-3.552c0.979-0.02,1.768-0.812,1.768-1.791V35.71   c0-0.994-0.808-1.801-1.805-1.801h-2.623c-0.996,0-1.805,0.807-1.805,1.801v2.465c0,0.979,0.789,1.771,1.768,1.791v3.552H27.374   v8.477c0.5-0.082,1.01-0.136,1.533-0.136c5.198,0,9.427,4.227,9.427,9.423c0,2.609-1.057,5.033-2.938,6.81   c1.646,0.56,3.179,1.332,4.59,2.266c1.457-0.86,3.028-1.546,4.695-2.01c-2.167-1.603-3.588-4.161-3.588-7.065   c0-4.858,3.941-8.803,8.808-8.803c4.861,0,8.804,3.944,8.804,8.803c0,2.904-1.421,5.463-3.588,7.065   c1.668,0.464,3.239,1.15,4.696,2.01c1.41-0.933,2.944-1.706,4.59-2.266c-1.88-1.774-2.938-4.199-2.938-6.81   c0-5.196,4.229-9.423,9.428-9.423c0.523,0,1.034,0.054,1.535,0.137v-8.478H51.249z M33.515,68.461   c-0.043-0.232,0.05-0.47,0.241-0.611c2.121-1.57,3.338-3.964,3.338-6.567c0-4.512-3.673-8.183-8.187-8.183   c-4.514,0-8.187,3.671-8.187,8.183c0,2.604,1.217,4.998,3.339,6.567c0.191,0.142,0.284,0.378,0.241,0.611   c-0.044,0.233-0.216,0.422-0.444,0.485c-7.953,2.205-13.565,9.378-13.837,17.572h20.389c0.202-6.406,3.481-12.021,8.419-15.427   c-1.491-0.924-3.118-1.661-4.868-2.146C33.73,68.883,33.558,68.694,33.515,68.461z M75.94,68.946   c-0.228-0.063-0.4-0.252-0.442-0.485c-0.045-0.233,0.05-0.471,0.24-0.611c2.123-1.57,3.341-3.964,3.341-6.567   c0-4.512-3.673-8.183-8.187-8.183c-4.515,0-8.187,3.671-8.187,8.183c0,2.606,1.217,4.999,3.338,6.567   c0.19,0.141,0.285,0.378,0.241,0.611c-0.043,0.233-0.216,0.422-0.443,0.485c-1.75,0.484-3.379,1.222-4.869,2.146   c4.939,3.406,8.219,9.021,8.42,15.427h20.39C89.512,78.324,83.896,71.151,75.94,68.946z"></path></g><g display="none"><path display="inline" d="M47.781,45.914c-1.044-0.504-1.769-1.574-1.769-2.796v-2.463c0-1.715,1.394-3.111,3.108-3.111h2.629   c1.714,0,3.108,1.396,3.108,3.111v2.463c0,1.221-0.727,2.292-1.769,2.796v1.243h17.846c-1.279-8.126-7.215-14.968-15.328-17.217   c-0.257-0.071-0.451-0.283-0.5-0.546c-0.05-0.263,0.057-0.53,0.271-0.689c2.391-1.768,3.762-4.464,3.762-7.396   c0-5.083-4.136-9.219-9.22-9.219c-5.085,0-9.222,4.135-9.222,9.219c0,2.932,1.37,5.628,3.759,7.396   c0.215,0.159,0.32,0.426,0.272,0.689c-0.049,0.263-0.243,0.475-0.501,0.546c-8.111,2.248-14.044,9.09-15.324,17.217h18.879V45.914z    M38.233,71.2c-1.329-0.756-2.762-1.362-4.283-1.785c-0.229-0.063-0.401-0.252-0.445-0.485c-0.043-0.231,0.051-0.471,0.241-0.612   c2.126-1.574,3.345-3.971,3.345-6.574c0-4.521-3.679-8.2-8.201-8.2s-8.201,3.679-8.201,8.2c0,2.604,1.219,5,3.345,6.574   c0.19,0.142,0.284,0.381,0.241,0.612c-0.043,0.233-0.216,0.422-0.445,0.485c-7.965,2.21-13.588,9.396-13.859,17.607H29.74   C29.939,80.617,33.183,74.8,38.233,71.2z M76.004,69.415c-0.23-0.063-0.402-0.252-0.445-0.485c-0.043-0.234,0.05-0.471,0.24-0.612   c2.127-1.573,3.348-3.97,3.348-6.574c0-4.521-3.68-8.2-8.202-8.2c-4.521,0-8.201,3.679-8.201,8.2c0,2.604,1.221,5.001,3.348,6.574   c0.19,0.142,0.283,0.378,0.24,0.612c-0.044,0.233-0.216,0.422-0.445,0.485c-1.52,0.423-2.953,1.026-4.281,1.785   c5.051,3.597,8.297,9.417,8.495,15.822h19.767C89.595,78.811,83.972,71.625,76.004,69.415z M54.969,69.446l-1.288-0.356   l1.074-0.796c2.118-1.569,3.334-3.955,3.334-6.551c0-4.505-3.665-8.17-8.168-8.17c-4.505,0-8.17,3.665-8.17,8.17   c0,2.598,1.214,4.984,3.332,6.548l1.076,0.796l-1.29,0.359c-7.943,2.2-13.553,9.359-13.837,17.545H68.81   C68.524,78.809,62.914,71.649,54.969,69.446z M77.135,50.015c0-0.861-0.698-1.555-1.557-1.555H51.784v-3.544   c0.979-0.02,1.769-0.815,1.769-1.799v-2.463c0-0.999-0.808-1.807-1.804-1.807H49.12c-0.996,0-1.804,0.808-1.804,1.807v2.463   c0,0.984,0.791,1.779,1.77,1.799v3.544H24.254c-0.858,0-1.552,0.694-1.552,1.555c0,0.857,0.694,1.559,1.552,1.559h51.324   C76.437,51.573,77.135,50.872,77.135,50.015z"></path></g><g display="none"><g display="inline"><path d="M51.549,85.637H9.989c0-16.231,1.264-33.269,12.008-41.504c-3.925-2.901-6.495-7.52-6.495-12.775    c0-8.797,7.129-15.936,15.933-15.936c8.795,0,15.938,7.138,15.938,15.936c0,5.255-2.579,9.874-6.504,12.775    C50.568,53.868,51.549,69.405,51.549,85.637z M79.241,53.789c-0.807,0.51-1.755,0.816-2.777,0.816    c-1.084,0-2.092-0.332-2.929-0.899c-0.032,6.066-0.1,12.134-0.091,18.2c-0.113,0.069-0.223,0.138-0.339,0.209L55.675,83.021    c-1.822,1.128-1.434,2.365-0.077,2.396H72.58l4.008-0.031v-0.031c1.409,0.078,2.778-0.755,2.778-2.593c0-9.638,0-19.275,0-28.914    C79.324,53.828,79.282,53.809,79.241,53.789z M88.258,52.092c-2.202-1.032-4.403-2.065-6.604-3.098    c0.009,0.128,0.038,0.25,0.038,0.38c0,1.861-0.983,3.487-2.45,4.415c0.041,0.02,0.083,0.039,0.125,0.059    c2.34,1.098,4.681,2.194,7.021,3.293C89.535,58.615,91.37,53.554,88.258,52.092z M73.425,45.135    c-1.975-0.926-3.949-1.853-5.925-2.778c-0.032-0.592-0.208-1.096-0.456-1.542c-0.311-0.741-0.85-1.408-1.757-1.821    c-2.89-1.319-5.778-2.641-8.658-3.957c-2.21-1.006-4.209,0.89-4.619,2.9c-0.214,1.047-0.429,2.099-0.644,3.152    c-0.324,1.585,0.94,2.927,2.228,3.546c3.104,1.485,6.202,2.971,9.302,4.457c1.313,0.631,3.013,0.016,3.94-1.121    c1.488,0.698,2.978,1.397,4.467,2.095c-0.031-0.229-0.07-0.455-0.07-0.691C71.232,47.626,72.103,46.085,73.425,45.135z     M80.316,49.375c0-2.132-1.731-3.855-3.853-3.855c-2.132,0-3.856,1.723-3.856,3.855c0,2.131,1.725,3.856,3.856,3.856    C78.585,53.23,80.316,51.506,80.316,49.375z M56.957,72.39l13.984-8.79l0,0c1.091-0.689,1.42-2.131,0.735-3.223    c-0.689-1.095-2.132-1.424-3.223-0.735l0,0l-13.984,8.79l0,0c-1.091,0.69-1.42,2.132-0.735,3.224    C54.424,72.75,55.867,73.078,56.957,72.39L56.957,72.39z M56.957,79.425l13.984-8.793l0,0c1.091-0.688,1.42-2.132,0.735-3.222    c-0.689-1.096-2.132-1.425-3.223-0.735l0,0L54.47,75.466l0,0c-1.091,0.688-1.42,2.129-0.735,3.225    C54.424,79.78,55.867,80.109,56.957,79.425L56.957,79.425z"></path></g></g><g display="none"><path display="inline" d="M51.081,51.83c-1.288-0.027-1.464,1.979-0.16,2.003c0.868,0.016,1.945,0.005,2.603,0.674   c0.565,0.569,0.561,1.597,0.575,2.337c0.005,1.28,2.016,1.458,1.995,0.159c-0.015-1.354-0.15-2.679-1.021-3.773   C54.148,52.059,52.449,51.858,51.081,51.83z M87.947,78.91c0-17.473-11.805-32.151-27.861-36.602   c4.225-3.124,7.003-8.098,7.003-13.753c0-9.47-7.69-17.157-17.155-17.157c-9.48,0-17.16,7.688-17.16,17.157   c0,5.655,2.768,10.63,6.998,13.753C23.71,46.759,11.915,61.438,11.915,78.91h35.322v-5.474h5.384v5.474H87.947z M51.928,71.411   h-3.995c-1.729,0-3.354-0.674-4.587-1.902c-1.223-1.224-1.895-2.852-1.895-4.585l0.005-9.414c-0.005-3.577,2.902-6.489,6.482-6.492   h3.985c3.573,0,6.492,2.913,6.492,6.492v9.414C58.411,68.5,55.497,71.411,51.928,71.411z M89.897,86.229   c0,1.258-1.028,2.29-2.285,2.29H12.25c-1.258,0-2.286-1.032-2.286-2.29c0-1.264,1.027-2.281,2.286-2.281h75.362   C88.869,83.947,89.897,84.965,89.897,86.229z"></path></g><g display="none"><path display="inline" d="M18.152,59.957c0.199-1.76,0.589-3.593,1.135-5.433c0.437,1.412,1.185,2.712,2.214,3.808   C20.323,58.772,19.209,59.325,18.152,59.957z M66.901,36.219c-0.37-0.102-0.65-0.408-0.722-0.787   c-0.069-0.379,0.083-0.764,0.394-0.994c2.335-1.724,3.674-4.355,3.674-7.219c0-4.961-4.037-8.998-9.001-8.998   s-9.001,4.037-9.001,8.998c0,2.863,1.338,5.495,3.671,7.22c0.31,0.229,0.46,0.615,0.392,0.994   c-0.071,0.379-0.352,0.684-0.723,0.786c-1.607,0.445-3.172,1.089-4.653,1.917c-0.305,0.17-0.676,0.17-0.981,0   c-1.482-0.827-3.048-1.471-4.653-1.917c-0.371-0.102-0.65-0.408-0.721-0.787c-0.072-0.379,0.082-0.764,0.39-0.993   c2.333-1.724,3.673-4.356,3.673-7.22c0-4.961-4.038-8.998-9.001-8.998s-9.001,4.037-9.001,8.998c0,2.864,1.337,5.496,3.669,7.22   c0.31,0.229,0.462,0.615,0.392,0.993c-0.07,0.379-0.35,0.684-0.722,0.787c-3.03,0.841-5.85,3.045-8.26,5.961   c0.958-0.308,1.976-0.479,3.035-0.479c5.463,0,9.908,4.446,9.908,9.911c0,2.533-0.951,4.902-2.658,6.721   c1.54,0.575,2.982,1.327,4.312,2.225c1.369-0.768,2.837-1.381,4.383-1.809c-2.193-1.621-3.629-4.202-3.629-7.137   c0-4.914,3.983-8.904,8.9-8.904c4.917,0,8.901,3.99,8.901,8.904c0,2.935-1.44,5.516-3.631,7.137   c1.545,0.428,3.014,1.041,4.382,1.809c1.33-0.897,2.772-1.649,4.311-2.225c-1.707-1.818-2.658-4.188-2.658-6.721   c0-5.465,4.448-9.911,9.911-9.911c1.393,0,2.72,0.292,3.922,0.813C72.765,39.399,69.958,37.066,66.901,36.219z M78.43,58.332   c1.187,0.444,2.311,1.001,3.376,1.64c-0.184-1.857-0.555-3.778-1.084-5.695C80.299,55.785,79.521,57.172,78.43,58.332z    M33.035,58.932c-0.07-0.378,0.082-0.764,0.391-0.993c2.045-1.516,3.219-3.822,3.219-6.327c0-4.354-3.541-7.897-7.894-7.897   s-7.895,3.543-7.895,7.897c0,2.505,1.174,4.812,3.22,6.327c0.31,0.229,0.461,0.615,0.391,0.993c-0.07,0.378-0.35,0.684-0.721,0.786   c-7.75,2.15-13.256,9.062-13.687,17.013h20.224c0.312-6.168,3.456-11.573,8.165-14.966c-1.442-0.878-3.009-1.58-4.691-2.047   C33.386,59.615,33.106,59.31,33.035,58.932z M76.182,59.718c-0.37-0.103-0.651-0.408-0.722-0.786   c-0.068-0.379,0.082-0.765,0.393-0.993c2.049-1.516,3.223-3.821,3.223-6.327c0-4.354-3.54-7.897-7.892-7.897   c-4.354,0-7.896,3.543-7.896,7.897c0,2.505,1.175,4.812,3.221,6.327c0.309,0.229,0.46,0.615,0.391,0.993   c-0.07,0.378-0.351,0.684-0.723,0.786c-1.681,0.467-3.248,1.169-4.688,2.045c4.709,3.393,7.854,8.8,8.167,14.968h20.222   C89.443,68.779,83.936,61.868,76.182,59.718z"></path></g><g display="none"><path display="inline" d="M46.522,49.722c1.683-1.679,2.753-3.825,3.074-6.166c0.32,2.34,1.391,4.487,3.072,6.166   c-1.046,0.374-2.074,0.828-3.072,1.358C48.595,50.55,47.566,50.096,46.522,49.722z M28.996,46.816   c-0.324,1.256-0.536,2.549-0.625,3.87c0.118-0.004,0.232-0.018,0.351-0.018c0.032,0,0.063,0.005,0.096,0.005   c0.729-0.352,1.473-0.679,2.245-0.954C30.206,48.865,29.518,47.881,28.996,46.816z M70.437,50.705   c0.127-0.009,0.254-0.015,0.382-0.019c-0.09-1.32-0.3-2.612-0.624-3.866c-0.521,1.062-1.209,2.045-2.066,2.9   C68.923,50.004,69.688,50.343,70.437,50.705z M54.638,30.902c-0.062-0.338,0.074-0.681,0.349-0.884   c2.364-1.743,3.718-4.405,3.718-7.304c0-5.022-4.086-9.109-9.108-9.109c-5.024,0-9.112,4.086-9.112,9.109   c0,2.899,1.354,5.561,3.714,7.305c0.276,0.204,0.411,0.547,0.349,0.884c-0.063,0.337-0.311,0.609-0.642,0.7   c-0.363,0.101-0.715,0.225-1.069,0.345c3.574,1.432,6.221,4.699,6.76,8.631c0.539-3.931,3.187-7.198,6.76-8.63   c-0.356-0.119-0.711-0.244-1.075-0.346C54.949,31.512,54.7,31.239,54.638,30.902z M78.199,67.233   c1.165,0.425,2.271,0.959,3.319,1.573c-0.213-1.684-0.625-3.317-1.216-4.87C79.836,65.156,79.13,66.276,78.199,67.233z    M21.668,67.232c-1.153-1.188-1.966-2.629-2.394-4.2c-0.847,1.949-1.409,4.035-1.637,6.203   C18.892,68.433,20.237,67.754,21.668,67.232z M65.444,50.253c-0.062-0.337,0.073-0.68,0.349-0.883   c2.362-1.744,3.716-4.406,3.716-7.305c0-5.023-4.086-9.109-9.108-9.109c-5.024,0-9.114,4.086-9.114,9.109   c0,2.898,1.355,5.561,3.716,7.305c0.276,0.204,0.41,0.546,0.349,0.883c-0.062,0.337-0.312,0.609-0.641,0.701   c-0.866,0.24-1.721,0.543-2.563,0.899c3.845,0.984,6.693,4.462,6.693,8.612c0,2.936-1.439,5.517-3.635,7.137   c1.587,0.438,3.092,1.075,4.492,1.873c1.354-0.91,2.827-1.67,4.398-2.243c-1.758-1.813-2.741-4.206-2.741-6.767   c0-4.096,2.529-7.608,6.106-9.069c-0.453-0.159-0.908-0.312-1.375-0.442C65.755,50.863,65.506,50.591,65.444,50.253z    M43.839,50.253c-0.062-0.337,0.073-0.68,0.349-0.883c2.362-1.744,3.716-4.406,3.716-7.305c0-5.023-4.086-9.109-9.109-9.109   c-5.024,0-9.112,4.086-9.112,9.109c0,2.898,1.354,5.561,3.714,7.305c0.275,0.204,0.411,0.546,0.348,0.883   c-0.062,0.337-0.312,0.609-0.642,0.701c-0.343,0.097-0.676,0.215-1.011,0.326c3.744,1.377,6.426,4.97,6.426,9.186   c0,2.561-0.983,4.953-2.743,6.767c1.572,0.572,3.043,1.333,4.399,2.243c1.399-0.798,2.903-1.435,4.491-1.873   c-2.192-1.62-3.627-4.201-3.627-7.137c0-3.994,2.629-7.374,6.253-8.501c-0.922-0.403-1.86-0.746-2.81-1.011   C44.151,50.863,43.902,50.591,43.839,50.253z M33.114,67.766c-0.062-0.337,0.073-0.68,0.348-0.884   c2.075-1.536,3.265-3.875,3.265-6.416c0-4.414-3.59-8.004-8.004-8.004c-4.415,0-8.004,3.59-8.004,8.004   c0,2.541,1.19,4.88,3.265,6.416c0.275,0.204,0.41,0.547,0.348,0.884s-0.311,0.608-0.642,0.7   c-7.832,2.172-13.387,9.182-13.773,17.231H30.25c0.281-6.259,3.474-11.741,8.264-15.15c-1.461-0.894-3.051-1.608-4.758-2.081   C33.425,68.374,33.176,68.103,33.114,67.766z M76.176,68.466c-0.33-0.092-0.58-0.363-0.643-0.701   c-0.062-0.337,0.074-0.68,0.35-0.885c2.079-1.533,3.271-3.871,3.271-6.414c0-4.414-3.59-8.004-8.004-8.004   c-4.413,0-8.004,3.59-8.004,8.004c0,2.541,1.189,4.88,3.262,6.416c0.275,0.204,0.41,0.548,0.349,0.884   c-0.064,0.337-0.312,0.608-0.643,0.7c-1.706,0.473-3.297,1.188-4.758,2.081c4.792,3.409,7.986,8.892,8.268,15.15h20.331   C89.569,77.647,84.012,70.638,76.176,68.466z"></path></g><g display="none"><path display="inline" d="M88.815,65.505l-3.963-2.773l-4.528-3.174c0,0-0.365-0.255-0.365-0.252l0.068-0.439   c0.033-0.211,0.049-0.393,0.049-0.57c0-2.828-0.191-5.665-0.378-8.065l-0.116-1.501l1.233,0.864l2.615,1.831l2.617,1.832   c1.31,0.914,2.59,0.333,3.278-0.651c0.689-0.983,0.798-2.387-0.511-3.303l-2.092-1.465l-7.328-5.132c0,0-0.286-0.2-0.286-0.195   l-0.016-0.35l-0.006-0.08l-0.004-0.075c0,0-0.016-0.328-0.016-0.331l0.238-0.225c1.296-1.214,2.007-2.853,2.007-4.615   c0-3.493-2.844-6.335-6.335-6.335c-3.493,0-6.336,2.842-6.336,6.335c0,1.756,0.708,3.393,1.992,4.604c0,0,0.244,0.231,0.242,0.272   l-0.022,0.334c-0.003,0.05-0.006,0.094-0.009,0.139l-0.014,0.35l-0.289,0.203l-5.879,4.115l-1.765,1.234l-0.409,0.287l-0.408-0.287   l-7.683-5.379c0,0-0.286-0.2-0.286-0.195l-0.018-0.35l-0.002-0.08l-0.006-0.075c0,0-0.014-0.328-0.014-0.331l0.239-0.225   c1.291-1.214,2.006-2.853,2.006-4.615c0-3.493-2.843-6.335-6.335-6.335c-3.496,0-6.338,2.842-6.338,6.335   c0,1.756,0.708,3.39,1.995,4.604l0.242,0.228l-0.02,0.336c-0.006,0.058-0.009,0.122-0.011,0.18l-0.014,0.35l-0.289,0.203   l-2.25,1.573l-5.394,3.776l-0.408,0.287l-0.409-0.287l-7.683-5.379c0,0-0.289-0.2-0.292-0.264l-0.014-0.35   c-0.003-0.028-0.003-0.052-0.006-0.075l-0.022-0.336l0.245-0.231c1.294-1.214,2.006-2.853,2.006-4.615   c0-3.493-2.84-6.335-6.336-6.335c-3.492,0-6.335,2.842-6.335,6.335c0,1.756,0.709,3.393,1.993,4.604c0,0,0.239,0.225,0.239,0.219   l-0.017,0.329l-0.006,0.108l-0.006,0.089c0,0-0.017,0.345-0.017,0.353l-0.286,0.2l-9.631,6.741c-1.226,0.859-1.05,2.034-0.481,2.85   c0.761,1.088,2.32,1.721,3.707,0.751l3.712-2.598l1.376-0.964l1.208-0.847l-0.092,1.475c-0.149,2.395-0.302,5.212-0.302,7.966   c0,0.197,0.02,0.396,0.061,0.634l0.081,0.447l-0.373,0.261l-8.897,6.23c-1.226,0.855-1.05,2.031-0.481,2.848   c0.761,1.089,2.32,1.723,3.707,0.751l4.449-3.113l5.779-4.049l0.2-0.139l0.242,0.012c0.119,0.006,0.244,0.012,0.367,0.012h0.225   l0.184,0.131l10.464,7.324c0.958,0.669,1.792,0.475,2.323,0.194l0.047-0.025l0.05-0.017c0.272-0.098,0.478-0.197,0.664-0.33   l1.333-0.934l8.897-6.229l0.198-0.139l0.244,0.012c0.119,0.006,0.244,0.012,0.367,0.012h0.225l0.184,0.131l10.462,7.324   c0.959,0.669,1.791,0.475,2.325,0.194l0.045-0.025l0.049-0.017c0.273-0.098,0.479-0.197,0.667-0.33l10.229-7.162l0.2-0.139   l0.242,0.012c0.119,0.006,0.247,0.012,0.366,0.012h0.225l0.184,0.131l10.465,7.324c0.6,0.419,1.218,0.552,1.834,0.394   c0.553-0.142,1.078-0.522,1.444-1.045c0.367-0.524,0.546-1.146,0.487-1.714C89.751,66.457,89.416,65.924,88.815,65.505z    M45.349,50.144c-0.153,2.395-0.306,5.212-0.306,7.966c0,0.194,0.02,0.396,0.062,0.637l0.08,0.444l-0.373,0.261l-6.908,4.838   l-0.408,0.283l-0.409-0.283l-6.755-4.732l-0.366-0.255l0.072-0.439c0.031-0.206,0.048-0.392,0.048-0.567   c0-2.828-0.192-5.665-0.378-8.065l-0.117-1.501l1.234,0.864l1.209,0.845l4.023,2.818c0.958,0.669,1.792,0.474,2.326,0.193   l0.047-0.024l0.047-0.017c0.272-0.098,0.478-0.201,0.664-0.331l3.715-2.598l1.373-0.964l1.211-0.847L45.349,50.144z M70.343,50.144   c-0.15,2.398-0.303,5.22-0.303,7.966c0,0.194,0.02,0.396,0.061,0.637l0.078,0.444l-0.369,0.261l-4.065,2.846l-2.845,1.992   l-0.409,0.283l-0.405-0.283l-4.504-3.153l-2.254-1.579l-0.364-0.252l0.069-0.439c0.033-0.214,0.05-0.395,0.05-0.57   c0-2.82-0.19-5.659-0.38-8.065l-0.117-1.501l1.234,0.864l4.025,2.817l1.207,0.846c0.959,0.669,1.795,0.474,2.325,0.193l0.047-0.024   l0.051-0.02c0.27-0.095,0.476-0.198,0.663-0.328l3.39-2.376l1.698-1.186l1.209-0.847L70.343,50.144z"></path></g><g display="none"><g display="inline"><g><path d="M49.86,89.895c-5.508,0-9.974-4.466-9.974-9.974V59.974H19.94c-5.508,0-9.971-4.466-9.971-9.974     c0-5.508,4.463-9.973,9.971-9.973l19.947,0.005V20.08c0-5.508,4.466-9.974,9.974-9.974s9.974,4.471,9.974,9.974v19.947h19.947     c5.508,0,9.971,4.465,9.971,9.973c0,5.508-4.463,9.974-9.971,9.974H59.834v19.947C59.834,85.429,55.368,89.895,49.86,89.895z      M48.52,18.311h-0.021c0.983,0,3.267,0.364,3.267,3.636l0,0c0,1.099,0.893,1.991,1.992,1.991c1.101,0,1.992-0.892,1.992-1.991     l0,0c0-2.324-0.706-4.196-2.099-5.56c-2.096-2.059-4.896-2.064-5.21-2.059l0,0c-1.099,0.021-1.973,0.929-1.953,2.028     C46.51,17.455,47.42,18.332,48.52,18.311L48.52,18.311z M78.632,47.599h-0.021c0.982,0.005,3.268,0.363,3.268,3.641l0,0     c0,1.1,0.893,1.991,1.991,1.991c1.1,0,1.992-0.892,1.992-1.991l0,0c0-2.329-0.705-4.201-2.099-5.564     c-2.095-2.06-4.896-2.064-5.209-2.06l0,0c-1.1,0.021-1.975,0.934-1.953,2.033C76.622,46.748,77.532,47.62,78.632,47.599     L78.632,47.599z"></path></g></g></g><g display="none"><path display="inline" d="M79.503,50.754c-0.016-0.015-0.029-0.025-0.045-0.04c3.383-3.38,6.048-6.046,6.048-6.046   c0.768-0.77,1.191-1.797,1.19-2.889c0-1.098-0.423-2.12-1.19-2.889l-0.086-0.084c-0.771-0.77-1.795-1.191-2.893-1.191   c-1.092,0-2.116,0.422-2.883,1.191l-0.544,0.541c-0.22-0.303-0.442-0.601-0.715-0.874c-0.016-0.015-0.032-0.02-0.045-0.035   c3.4-3.4,6.049-6.051,6.049-6.051c1.591-1.593,1.591-4.185,0.002-5.773l-0.089-0.089c-1.593-1.594-4.183-1.594-5.775,0   l-1.101,1.097c-0.22-0.303-0.449-0.601-0.72-0.874c-0.012-0.01-0.029-0.021-0.042-0.035l6.049-6.046   c0.767-0.77,1.191-1.797,1.189-2.894c0-1.093-0.423-2.115-1.199-2.889c0,0-0.087-0.09-0.077-0.085c-1.59-1.588-4.18-1.588-5.772,0   l-9.199,9.199c-0.219-0.302-0.441-0.601-0.714-0.874c-0.013-0.015-0.031-0.025-0.043-0.035c3.38-3.38,6.049-6.051,6.049-6.051   c1.591-1.594,1.591-4.185,0.005-5.773c0,0-0.09-0.084-0.091-0.089c-0.771-0.77-1.795-1.191-2.888-1.191   c-1.095,0-2.12,0.422-2.89,1.191L45.307,32.953c-0.181-0.244-0.354-0.486-0.573-0.705c-0.002,0-0.099-0.1-0.199-0.199   c2.207-2.204,6.203-6.2,6.203-6.206c0.725-0.72,1.126-1.688,1.126-2.725c0-1.033-0.4-2.006-1.126-2.735l-0.399-0.398   c-1.507-1.504-3.957-1.504-5.465,0c0,0-12.642,12.644-12.636,12.639c-0.061,0.064-0.115,0.134-0.174,0.208   c-0.035,0.044-0.069,0.089-0.106,0.139l-0.018,0.021l-0.02,0.02c-0.092,0.084-0.186,0.168-0.279,0.249   c-0.148,0.128-0.29,0.252-0.424,0.387c-1.79,1.792-3.229,3.833-4.329,6.032l-1.569,1.568l-3.242,3.242   c-0.149,0.149-0.246,0.278-0.342,0.402c-0.044,0.035-0.082,0.07-0.131,0.114c-0.167,0.144-0.355,0.308-0.557,0.511   C10.91,55.653,10.91,72.169,21.057,82.315c10.147,10.146,26.661,10.146,36.808,0c0.298-0.302,0.55-0.591,0.773-0.844l0.09-0.104   c0.171-0.129,0.359-0.278,0.562-0.478c0.028-0.029,20.213-20.213,20.216-20.213c2.556-2.562,2.69-6.607,0.46-9.357   C79.812,51.131,79.679,50.928,79.503,50.754z M75.905,57.083c0.003,0-20.182,20.185-20.153,20.16   c-0.051,0.045-0.177,0.139-0.264,0.203c-0.149,0.108-0.275,0.218-0.397,0.362l-0.282,0.317c-0.193,0.224-0.375,0.433-0.553,0.61   c-8.152,8.152-21.439,8.152-29.604-0.014c-8.166-8.166-8.166-21.456,0-29.622c0.077-0.079,0.181-0.169,0.292-0.263   c0.109-0.095,0.233-0.204,0.363-0.328c0.094-0.085,0.183-0.184,0.263-0.283c0.109-0.145,0.133-0.179,0.144-0.189   C25.671,48.083,38.31,35.439,38.31,35.439c0.32-0.318,0.752-0.497,1.214-0.497s0.894,0.179,1.213,0.497l0.399,0.402   c0.668,0.665,0.668,1.757,0,2.422l-7.625,7.63c-0.687,0.685-0.923,1.703-0.605,2.621c0.316,0.918,1.127,1.579,2.093,1.698   c0.074,0.01,0.168,0.024,0.268,0.04c0.801,0.124,1.752-0.12,2.326-0.695l22.93-22.93c0.362-0.362,0.848-0.561,1.37-0.561   c0.518,0,1.005,0.199,1.367,0.561c0.449,0.452,0.648,0.934,0.648,1.455c0,0.521-0.199,1.008-0.562,1.37L43.344,49.458   c-0.551,0.551-0.819,1.326-0.727,2.1c0.094,0.774,0.536,1.459,1.204,1.866c0.055,0.035,0.126,0.079,0.201,0.129   c1.005,0.66,2.406,0.566,3.257-0.283L70.29,30.257c0.754-0.754,1.981-0.754,2.736,0c0.449,0.452,0.647,0.938,0.65,1.455   c0,0.521-0.201,1.007-0.562,1.37L50.103,56.096c-0.864,0.863-0.991,2.219-0.303,3.231c0.055,0.079,0.109,0.163,0.162,0.243   c0.41,0.66,1.097,1.097,1.866,1.182c0.77,0.089,1.539-0.179,2.088-0.726l18.05-18.049c0.361-0.363,0.849-0.562,1.369-0.562   c0.52,0,1.005,0.199,1.367,0.562c0.842,0.844,0.842,2.069,0.087,2.825c0.003,0-20.975,20.978-20.975,20.978   c-0.584,0.581-0.85,1.415-0.707,2.225c0.02,0.118,0.039,0.247,0.055,0.372c0.118,0.963,0.776,1.777,1.694,2.09   c0.919,0.317,1.937,0.084,2.624-0.606l15.602-15.602c0.362-0.362,0.847-0.562,1.366-0.562c0.521,0,1.008,0.199,1.37,0.562   C76.66,55.103,76.66,56.328,75.905,57.083z"></path></g><g display="none"><path display="inline" d="M83.342,43.499c0,1.377-1.114,2.492-2.491,2.492c-1.378,0-2.492-1.114-2.492-2.492   c0-15.748-12.817-28.561-28.566-28.561c-15.75,0-28.563,12.813-28.563,28.561s12.813,28.566,28.563,28.566   c0.615,0,1.233,0.248,1.69,0.662c0.526,0.472,0.825,1.143,0.825,1.849c0,5.65,4.596,10.244,10.24,10.244   s10.238-4.594,10.238-10.244c0-1.377,1.114-2.491,2.492-2.491c1.377,0,2.491,1.114,2.491,2.491c0,8.395-6.827,15.228-15.222,15.228   c-7.591,0-13.885-5.592-15.021-12.872c-17.441-1.173-31.281-15.698-31.281-33.432c0-18.497,15.05-33.544,33.547-33.544   C68.29,9.955,83.342,25.001,83.342,43.499z M55.657,55.523c0,6.02,4.896,10.915,10.914,10.915c6.021,0,10.916-4.896,10.916-10.915   c0-1.378-1.114-2.492-2.491-2.492c-1.378,0-2.492,1.114-2.492,2.492c0,3.27-2.661,5.933-5.933,5.933   c-3.27,0-5.931-2.663-5.931-5.933c0-3.271,2.661-5.932,5.931-5.932c1.003,0,1.908-0.604,2.297-1.528   c0.132-0.302,0.215-0.682,0.215-1.012c0-10.905-8.876-19.782-19.783-19.782c-10.91,0-19.787,8.876-19.787,19.782   c0,1.377,1.115,2.491,2.492,2.491c1.377,0,2.492-1.114,2.492-2.491c0-8.161,6.64-14.798,14.803-14.798   c7.452,0,13.618,5.538,14.635,12.711C59.194,46.15,55.657,50.418,55.657,55.523z"></path></g><g display="none"><path display="inline" d="M87.247,43.588c0,1.379-1.115,2.495-2.494,2.495s-2.493-1.116-2.493-2.495   c0-15.764-12.827-28.59-28.597-28.59c-15.765,0-28.591,12.826-28.591,28.59c0,4.646,1.121,9.032,3.096,12.915   c-1.445,1.524-2.333,3.439-2.552,5.504c-3.493-5.288-5.533-11.616-5.533-18.419c0-18.516,15.066-33.579,33.581-33.579   C72.186,10.009,87.247,25.072,87.247,43.588z M51.396,77.055c1.137,7.288,7.436,12.886,15.034,12.886   c8.405,0,15.244-6.84,15.244-15.243c0-1.378-1.115-2.494-2.494-2.494s-2.494,1.116-2.494,2.494c0,5.655-4.599,10.255-10.256,10.255   c-5.65,0-10.25-4.6-10.25-10.255c0-0.706-0.296-1.378-0.822-1.851c-0.457-0.415-1.076-0.664-1.695-0.664   c-4.206,0-8.198-0.92-11.798-2.558c-1.406,1.457-3.27,2.46-5.358,2.785C40.921,75.04,45.985,76.691,51.396,77.055z M59.533,55.626   c0,6.025,4.906,10.927,10.932,10.927c6.026,0,10.927-4.901,10.927-10.927c0-1.379-1.116-2.494-2.494-2.494   s-2.493,1.115-2.493,2.494c0,3.273-2.666,5.938-5.939,5.938c-3.278,0-5.943-2.665-5.943-5.938c0-3.274,2.665-5.939,5.943-5.939   c1.004,0,1.91-0.604,2.299-1.529c0.128-0.302,0.216-0.682,0.216-1.014c0-10.917-8.886-19.803-19.808-19.803   c-10.921,0-19.807,8.886-19.807,19.803c0,1.379,1.115,2.495,2.494,2.495c1.378,0,2.494-1.116,2.494-2.495   c0-8.169,6.647-14.814,14.818-14.814c7.458,0,13.63,5.543,14.652,12.725C63.075,46.243,59.533,50.515,59.533,55.626z M42.436,48.64   c0,3.879,3.127,7.015,6.998,7.015c3.88,0,6.996-3.136,6.996-7.015c0-3.853-3.122-7-6.996-7   C45.561,41.64,42.436,44.787,42.436,48.64z M35.045,70.04c3.878,0,6.996-3.142,6.996-7.01c0-3.854-3.112-7.001-6.986-7.001   c-0.002,0-0.006,0-0.009,0c-0.002,0-0.005,0-0.009,0c-3.862,0-6.984,3.146-6.984,6.995C28.053,66.898,31.175,70.04,35.045,70.04z    M20.663,70.415c-3.871,0-6.999,3.143-6.999,7.001c0.006,3.868,3.128,7.005,6.999,7.005c3.873,0,6.993-3.137,6.999-7.005   C27.661,73.558,24.536,70.415,20.663,70.415z"></path></g><g display="none"><path display="inline" d="M53.705,67.819c0,2.592-2.109,4.7-4.701,4.7c-2.594,0-4.704-2.108-4.704-4.7   c0-2.595,2.11-4.703,4.704-4.703C51.596,63.116,53.705,65.225,53.705,67.819z M88.954,44.374l-4.324-4.323l-4.322-4.319   c-0.843-0.842-1.963-1.159-3.075-0.86c-1.167,0.312-2.125,1.266-2.437,2.433c-0.301,1.116,0.012,2.237,0.854,3.079   c0,0.004,4.217,4.217,6.316,6.316l-0.706,0.706l-5.615,5.615c-0.838,0.838-1.154,1.962-0.854,3.075   c0.312,1.166,1.266,2.124,2.433,2.437c1.112,0.3,2.237-0.017,3.079-0.859l8.651-8.646C90.236,47.744,90.236,45.657,88.954,44.374z    M76.073,49.027c1.283-1.283,1.283-3.37,0-4.653l-4.322-4.323l-0.821-0.821v14.937L76.073,49.027z M47.352,49.027   c1.283-1.283,1.283-3.37,0-4.653l-4.323-4.323l-0.821-0.821v14.937L47.352,49.027z M23.907,53.021   c-0.842,0.838-1.155,1.962-0.857,3.075c0.31,1.166,1.268,2.124,2.431,2.437c0.542,0.146,1.081,0.137,1.591,0.004v-8.685   L23.907,53.021z M25.49,34.872c-1.165,0.312-2.122,1.266-2.436,2.433c-0.297,1.116,0.015,2.237,0.857,3.079   c0,0.004,1.506,1.505,3.16,3.161v-8.681C26.563,34.735,26.026,34.727,25.49,34.872z M52.627,53.021   c-0.842,0.838-1.153,1.962-0.855,3.075c0.31,1.166,1.267,2.124,2.429,2.437c0.544,0.146,1.083,0.137,1.592,0.004v-8.685   L52.627,53.021z M54.209,34.872c-1.163,0.312-2.12,1.266-2.433,2.433c-0.298,1.116,0.015,2.237,0.855,3.079   c0,0.004,1.506,1.505,3.16,3.161v-8.681C55.283,34.735,54.748,34.727,54.209,34.872z M68.74,28.976v47.166   c0,5.124-4.187,9.31-9.306,9.31H38.57c-5.119,0-9.309-4.186-9.309-9.31V28.976c0-5.119,4.19-9.31,9.309-9.31h15.648   c0.008-2.159,1.761-3.908,3.925-3.908c2.168,0,3.921,1.757,3.921,3.926c0,0.137-0.024,0.265-0.039,0.397   C65.883,21.218,68.74,24.763,68.74,28.976z M64.361,28.976c0-2.72-2.211-4.931-4.927-4.931H38.57c-2.72,0-4.93,2.211-4.93,4.931   v47.166c0,2.72,2.21,4.932,4.93,4.932h20.864c2.716,0,4.927-2.212,4.927-4.932V28.976z M61.543,32.995   c-1.18-3.271-4.289-5.636-7.949-5.636h-9.182c-4.665,0-8.479,3.814-8.479,8.475v21.394c0,4.023,2.841,7.397,6.615,8.257   c0.709-1.954,2.266-3.48,4.235-4.156h-2.371c-2.262,0-4.101-1.839-4.101-4.101V35.834c0-2.258,1.839-4.096,4.101-4.096h9.182   c2.259,0,4.097,1.838,4.097,4.096v21.394c0,2.262-1.838,4.101-4.097,4.101h-2.368c1.966,0.676,3.522,2.202,4.232,4.152   c3.772-0.855,6.611-4.229,6.611-8.253V35.834C62.069,34.834,61.864,33.889,61.543,32.995z M24.335,44.374l-4.323-4.323   l-4.321-4.319c-0.842-0.842-1.964-1.159-3.076-0.86c-1.168,0.312-2.126,1.266-2.438,2.433c-0.3,1.116,0.012,2.237,0.857,3.079   c0.002,0.004,4.214,4.217,6.314,6.316l-0.706,0.706l-5.61,5.615c-0.842,0.838-1.159,1.962-0.859,3.075   c0.312,1.166,1.266,2.124,2.433,2.437c1.112,0.3,2.237-0.017,3.079-0.859l8.651-8.646C25.618,47.744,25.618,45.657,24.335,44.374z"></path></g><g display="none"><path display="inline" d="M53.705,67.819c0,2.592-2.109,4.7-4.701,4.7c-2.594,0-4.704-2.108-4.704-4.7   c0-2.595,2.11-4.703,4.704-4.703C51.596,63.116,53.705,65.225,53.705,67.819z M68.74,28.976v47.166c0,5.124-4.187,9.31-9.306,9.31   H38.57c-5.119,0-9.309-4.186-9.309-9.31V28.976c0-5.119,4.19-9.31,9.309-9.31h15.648c0.008-2.159,1.761-3.908,3.925-3.908   c2.168,0,3.921,1.757,3.921,3.926c0,0.137-0.024,0.265-0.039,0.397C65.883,21.218,68.74,24.763,68.74,28.976z M64.361,28.976   c0-2.72-2.211-4.931-4.927-4.931H38.57c-2.72,0-4.93,2.211-4.93,4.931v47.166c0,2.72,2.21,4.932,4.93,4.932h20.864   c2.716,0,4.927-2.212,4.927-4.932V28.976z M61.543,32.995c-1.18-3.271-4.289-5.636-7.949-5.636h-9.182   c-4.665,0-8.479,3.814-8.479,8.475v21.394c0,4.023,2.841,7.397,6.615,8.257c0.709-1.954,2.266-3.48,4.235-4.156h-2.371   c-2.262,0-4.101-1.839-4.101-4.101V35.834c0-2.258,1.839-4.096,4.101-4.096h9.182c2.259,0,4.097,1.838,4.097,4.096v21.394   c0,2.262-1.838,4.101-4.097,4.101h-2.368c1.966,0.676,3.522,2.202,4.232,4.152c3.772-0.855,6.611-4.229,6.611-8.253V35.834   C62.069,34.834,61.864,33.889,61.543,32.995z"></path></g><g display="none"><polygon display="inline" points="60.787,32.907 60.793,32.911 60.793,32.913  "></polygon><path display="inline" fill="none" d="M63.139,33.05c0.047,0.004,0.117-0.002,0.184-0.059c0.109-0.09,0.121-0.248,0.033-0.355   c-0.09-0.107-0.25-0.121-0.355-0.031c-0.068,0.055-0.088,0.123-0.092,0.17c-0.004,0.049,0.002,0.119,0.059,0.186   S63.09,33.046,63.139,33.05z"></path><circle display="inline" fill="none" cx="35.453" cy="34.545" r="0.722"></circle><path display="inline" d="M89.162,42.459c0.766-0.64,0.862-1.78,0.228-2.545c-0.644-0.766-1.784-0.867-2.55-0.229   C86.703,39.8,86.571,39.894,86.433,40c-0.117-0.726-0.412-1.414-0.895-1.993c-1.467-1.75-4.086-1.982-5.833-0.521   c-0.852,0.713-1.375,1.715-1.471,2.814c-0.036,0.399,0.005,0.79,0.078,1.173c-0.478-0.244-0.782-0.476-0.892-0.57   c-0.095-0.082-0.208-0.117-0.314-0.175c-2.167-2.565-4.943-4.688-8.112-6.268c0.457-1.315,0.733-2.712,0.733-4.183   c0-7.139-5.812-12.95-12.954-12.95c-7.139,0-12.95,5.811-12.95,12.95c0,1.332,0.248,2.598,0.626,3.808   c-2.244,1.034-4.3,2.342-6.1,3.885c-0.029-0.016-0.053-0.028-0.078-0.045c-0.053-1.625-0.68-3.237-1.922-4.479   c-2.585-2.586-6.784-2.586-9.371,0.003c-0.92,0.921-1.498,2.048-1.763,3.234c-3.633,1.353-6.593,4.056-8.28,7.509   c-0.113-0.008-0.22-0.037-0.33-0.037c-3.661,0-6.629,2.969-6.629,6.63v1.201c0,3.661,2.969,6.631,6.629,6.631   c0.326,0,0.64-0.054,0.953-0.1c2.63,4.383,7.417,7.322,12.901,7.322c1.328,0,2.607-0.186,3.833-0.508   c0.225,0.268,0.387,1.779,0.387,2.316v6.309c0,2.324,1.886,4.215,4.215,4.215s4.218-1.891,4.218-4.215v-2.566   c3.882,1.504,8.402,2.285,13.251,2.285c4.354,0,8.45-0.623,12.051-1.836v2.117c0,2.324,1.885,4.215,4.215,4.215   s4.22-1.891,4.22-4.215V67.65c0-0.199-0.032-0.391-0.062-0.577c3.421-3.145,5.481-7.376,5.481-12.674   c0-3.091-0.701-6.031-1.958-8.719C82.845,45.872,85.933,45.163,89.162,42.459z M82.023,40.264c0.223-0.188,0.558-0.159,0.74,0.064   c0.188,0.224,0.159,0.554-0.065,0.741c-0.139,0.119-0.29,0.13-0.388,0.123c-0.098-0.008-0.239-0.049-0.354-0.188   c-0.117-0.138-0.134-0.285-0.122-0.387C81.844,40.52,81.885,40.377,82.023,40.264z M24.588,45.814   c-0.831,0-1.506-0.676-1.506-1.507s0.676-1.502,1.506-1.502c0.832,0,1.507,0.672,1.507,1.502S25.42,45.814,24.588,45.814z    M68.689,41.506c-0.355,0.933-1.397,1.405-2.329,1.05c-1.066-0.403-2.163-0.712-3.272-0.977c-1.88-0.444-3.814-0.712-5.794-0.75   c-2.334-0.044-4.613,0.224-6.829,0.753c-1.107,0.265-2.203,0.574-3.274,0.978c-0.932,0.354-1.975-0.114-2.329-1.046   c-0.354-0.933,0.114-1.975,1.047-2.333c0.375-0.143,0.761-0.245,1.144-0.371c1.356-0.456,2.737-0.831,4.146-1.087   c-2.269-1.706-3.759-4.395-3.759-7.445c0-5.147,4.187-9.333,9.334-9.333c5.151,0,9.338,4.187,9.338,9.333   c0,3.05-1.49,5.739-3.755,7.445c1.414,0.256,2.794,0.626,4.149,1.079c0.376,0.127,0.759,0.233,1.133,0.375   C68.57,39.527,69.043,40.574,68.689,41.506z"></path></g><g display="none"><path display="inline" d="M60.793,32.913c0,0,0,0,0-0.002c-0.002,0-0.006-0.002-0.006-0.004L60.793,32.913z M55.023,30.849   c-4.635,0-8.388,3.757-8.388,8.387c0,4.634,3.753,8.387,8.388,8.387c4.628,0,8.386-3.753,8.386-8.387   C63.409,34.606,59.651,30.849,55.023,30.849z M55.023,10.001c-4.635,0-8.388,3.758-8.388,8.387c0,4.634,3.753,8.387,8.388,8.387   c4.628,0,8.386-3.752,8.386-8.387C63.409,13.759,59.651,10.001,55.023,10.001z M82.464,60.249c0.637-0.533,0.721-1.482,0.187-2.12   c-0.533-0.638-1.482-0.72-2.121-0.191c-0.113,0.098-0.228,0.177-0.341,0.265c-0.094-0.592-0.333-1.166-0.742-1.659   c-1.223-1.457-3.399-1.653-4.856-0.436c-0.71,0.597-1.146,1.426-1.224,2.344c-0.031,0.331,0.006,0.657,0.068,0.974   c-0.399-0.202-0.654-0.394-0.748-0.472c0,0-0.004-0.005-0.01-0.011l0.01,0.011c-0.076-0.067-0.17-0.099-0.258-0.15   c-3.935-4.649-10.196-7.676-17.266-7.676c-5.837,0-11.119,2.058-15.001,5.385c-0.021-0.016-0.042-0.025-0.062-0.041   c-0.047-1.353-0.571-2.69-1.602-3.728c-2.151-2.151-5.645-2.151-7.801,0.006c-0.767,0.767-1.249,1.705-1.467,2.69   c-3.027,1.124-5.489,3.374-6.894,6.251c-0.094-0.005-0.182-0.026-0.274-0.026c-3.049,0-5.521,2.467-5.521,5.515v1.001   c0,3.048,2.472,5.52,5.521,5.52c0.269,0,0.528-0.046,0.792-0.082c2.193,3.648,6.179,6.096,10.74,6.096   c1.105,0,2.172-0.155,3.193-0.419c0.109,0.128,0.208,0.264,0.321,0.389c0,0.01-0.005,0.021-0.005,0.03v6.521   c0,1.938,1.576,3.515,3.514,3.515c1.939,0,3.509-1.576,3.509-3.515v-1.896c3.229,1.249,6.997,1.896,11.036,1.896   c3.622,0,7.033-0.519,10.029-1.523v1.523c0,1.938,1.57,3.515,3.509,3.515s3.509-1.576,3.509-3.515v-5.547   c2.82-2.605,4.516-6.11,4.516-10.501c0-2.571-0.586-5.018-1.628-7.257C77.202,63.09,79.773,62.499,82.464,60.249z M29.96,61.788   c0,0.69-0.564,1.25-1.254,1.25c-0.694,0-1.254-0.56-1.254-1.25c0-0.694,0.56-1.254,1.254-1.254   C29.396,60.534,29.96,61.094,29.96,61.788z M76.466,59.036c-0.098-0.114-0.107-0.238-0.104-0.321   c0.006-0.083,0.042-0.202,0.156-0.296c0.187-0.155,0.466-0.135,0.622,0.052c0.149,0.187,0.129,0.467-0.058,0.623   c-0.118,0.093-0.238,0.104-0.321,0.099C76.68,59.187,76.56,59.15,76.466,59.036z M48.025,61.104   c-0.772,0.296-1.643-0.099-1.938-0.876c-0.295-0.772,0.093-1.643,0.871-1.938l0,0c3.022-1.15,6.229-1.7,9.538-1.638   c2.965,0.057,5.841,0.606,8.552,1.632l0,0c0.778,0.296,1.167,1.161,0.876,1.939c-0.295,0.777-1.166,1.171-1.943,0.876l0,0   c-2.384-0.902-4.925-1.39-7.542-1.436C53.52,59.606,50.689,60.089,48.025,61.104L48.025,61.104z"></path></g><g display="none"><path display="inline" d="M71.61,62.11l2.448-0.679l-2.043-1.51c-0.871-0.645-1.565-1.445-2.08-2.341   c0.878-0.207,1.672-0.706,2.258-1.439c1.087-1.373,1.17-3.279,0.209-4.748l-1.604-2.428c1.38-1.586,3.407-2.595,5.67-2.595   c4.151,0,7.524,3.374,7.524,7.522c0,2.389-1.118,4.586-3.073,6.028l-2.043,1.51l2.448,0.679c6.823,1.894,8.438,7.619,8.569,16.265   H62.99C63.128,69.958,64.779,64.006,71.61,62.11z M70.887,55.099c-0.108,0.136-0.229,0.255-0.358,0.36   c-0.087,0.072-0.182,0.128-0.276,0.187c-0.039,0.024-0.076,0.054-0.117,0.075c-0.13,0.071-0.265,0.124-0.404,0.17   c-0.005,0.002-0.011,0.004-0.016,0.006c-0.227,0.071-0.46,0.122-0.701,0.122c-0.266,0-0.55-0.051-0.817-0.153l-8.508-3.058   c-0.1,0.052-0.2,0.084-0.301,0.15c-0.55,0.318-1.104,0.602-1.688,0.87c-0.116,0.067-0.251,0.134-0.384,0.185   c-0.67,0.3-1.371,0.533-2.089,0.752c-0.218,0.05-0.434,0.116-0.652,0.166c-0.535,0.135-1.086,0.252-1.621,0.335   c-0.251,0.034-0.485,0.083-0.718,0.116c-0.736,0.084-1.489,0.152-2.241,0.152c-0.015,0-0.033,0-0.05,0c-0.018,0-0.034,0-0.051,0   c-0.751,0-1.504-0.068-2.24-0.152c-0.25-0.033-0.485-0.082-0.718-0.116c-0.535-0.083-1.087-0.2-1.621-0.335   c-0.217-0.05-0.451-0.116-0.669-0.166c-0.702-0.219-1.403-0.452-2.089-0.752c-0.132-0.051-0.25-0.117-0.385-0.185   c-0.567-0.269-1.119-0.552-1.67-0.87c-0.101-0.05-0.202-0.099-0.301-0.15l-8.524,3.058c-0.251,0.103-0.533,0.153-0.801,0.153   c-0.389,0-0.769-0.104-1.11-0.287c-0.035-0.019-0.065-0.043-0.1-0.063c-0.105-0.062-0.21-0.124-0.305-0.203   c-0.131-0.107-0.252-0.229-0.358-0.366c-0.635-0.803-0.686-1.921-0.117-2.79l4.461-6.753c-0.101-0.201-0.166-0.387-0.267-0.586   c-0.184-0.385-0.367-0.785-0.535-1.187c-0.117-0.301-0.234-0.602-0.334-0.903c-0.117-0.351-0.234-0.684-0.334-1.035   c-0.083-0.334-0.184-0.668-0.25-1.02c-0.085-0.318-0.133-0.635-0.185-0.938c-0.066-0.382-0.134-0.767-0.167-1.152   c-0.033-0.234-0.033-0.468-0.049-0.702c-0.034-0.419-0.067-0.852-0.067-1.288c0-10.361,8.423-18.785,18.786-18.785   c10.362,0,18.786,8.423,18.786,18.785c0,0.453-0.033,0.919-0.066,1.371c-0.018,0.201-0.018,0.402-0.051,0.603   c-0.033,0.401-0.1,0.786-0.166,1.186c-0.068,0.302-0.117,0.602-0.185,0.904c-0.067,0.35-0.167,0.701-0.268,1.052   c-0.101,0.335-0.201,0.668-0.317,1.003c-0.102,0.317-0.218,0.618-0.335,0.919c-0.167,0.418-0.351,0.819-0.552,1.204   c-0.084,0.182-0.15,0.385-0.25,0.568l3.241,4.905l0,0l1.221,1.848C71.572,53.178,71.522,54.296,70.887,55.099z M68.964,53.609   c0.001-0.018,0.002-0.035,0.003-0.053l-3.829-5.812l-1.403-2.122c0.05-0.084,0.083-0.185,0.133-0.269   c0.285-0.451,0.552-0.935,0.803-1.421c0.084-0.184,0.167-0.351,0.249-0.535c0.27-0.585,0.502-1.185,0.688-1.821   c0.065-0.2,0.117-0.418,0.167-0.619c0.117-0.434,0.216-0.885,0.3-1.337c0.05-0.3,0.103-0.584,0.134-0.902   c0.05-0.435,0.083-0.887,0.101-1.337c0-0.218,0.052-0.418,0.052-0.636c0-4.529-1.84-8.64-4.816-11.598   c-2.975-2.974-7.067-4.814-11.597-4.814c-9.06,0-16.414,7.354-16.414,16.412c0,0.218,0.035,0.417,0.051,0.636   c0.017,0.451,0.05,0.903,0.1,1.337c0.033,0.317,0.084,0.602,0.134,0.902c0.083,0.452,0.184,0.903,0.301,1.337   c0.05,0.201,0.101,0.419,0.167,0.619c0.184,0.637,0.418,1.236,0.685,1.821c0.084,0.185,0.167,0.352,0.252,0.535   c0.25,0.486,0.5,0.97,0.802,1.421c0.05,0.084,0.082,0.185,0.133,0.269l-1.404,2.122l-3.779,5.735   c0.002,0.036,0.005,0.073,0.007,0.109l6.882-2.485l2.656-0.954c0.033,0.036,0.068,0.051,0.101,0.067   c0.167,0.116,0.352,0.233,0.519,0.351c0.234,0.134,0.468,0.285,0.685,0.418c0.201,0.102,0.385,0.201,0.569,0.302   c0.267,0.134,0.535,0.267,0.801,0.385c0.167,0.066,0.319,0.149,0.485,0.215c0.434,0.186,0.869,0.353,1.303,0.487   c0.134,0.033,0.268,0.066,0.401,0.116c0.333,0.101,0.685,0.185,1.053,0.269c0.15,0.033,0.317,0.066,0.466,0.1   c0.368,0.067,0.72,0.115,1.087,0.149c0.133,0.019,0.284,0.052,0.418,0.052c0.502,0.048,1.02,0.081,1.538,0.081   c0.518,0,1.019-0.033,1.519-0.081c0.152,0,0.302-0.033,0.436-0.052c0.368-0.034,0.721-0.082,1.087-0.149   c0.15-0.033,0.317-0.066,0.467-0.1c0.353-0.084,0.704-0.168,1.055-0.269c0.133-0.05,0.268-0.083,0.399-0.116   c0.437-0.135,0.869-0.302,1.305-0.487c0.166-0.065,0.318-0.148,0.485-0.215c0.267-0.118,0.534-0.251,0.802-0.385   c0.184-0.101,0.367-0.2,0.568-0.317c0.216-0.117,0.451-0.269,0.667-0.402c0.184-0.117,0.37-0.234,0.535-0.351   c0.033-0.017,0.069-0.05,0.101-0.067l2.657,0.954L68.964,53.609z M27.693,56.136c-1.083-1.368-1.166-3.274-0.201-4.748l1.623-2.457   c-1.379-1.565-3.394-2.56-5.64-2.56c-4.149,0-7.524,3.374-7.524,7.522c0,2.39,1.118,4.587,3.069,6.028l2.042,1.51l-2.447,0.679   c-6.833,1.896-8.482,7.848-8.619,16.265h26.903c-0.13-8.646-1.746-14.371-8.57-16.265l-2.447-0.679l2.043-1.51   c0.87-0.643,1.564-1.441,2.078-2.334C29.091,57.384,28.261,56.873,27.693,56.136z M43.604,28.799c0.284,0,0.514-0.23,0.514-0.514   s-0.23-0.514-0.514-0.514h-2.382c-0.284,0-0.514,0.23-0.514,0.514s0.23,0.514,0.514,0.514H43.604L43.604,28.799z M43.604,26.417   c0.284,0,0.514-0.23,0.514-0.514s-0.23-0.514-0.514-0.514h-2.382c-0.284,0-0.514,0.23-0.514,0.514s0.23,0.514,0.514,0.514H43.604   L43.604,26.417z M47.803,28.799c0.284,0,0.514-0.23,0.514-0.514v-2.382c0-0.284-0.23-0.514-0.514-0.514s-0.514,0.23-0.514,0.514   v2.382C47.29,28.569,47.52,28.799,47.803,28.799L47.803,28.799z M45.422,28.799c0.284,0,0.514-0.23,0.514-0.514v-2.382   c0-0.284-0.23-0.514-0.514-0.514s-0.514,0.23-0.514,0.514v2.382C44.909,28.569,45.139,28.799,45.422,28.799L45.422,28.799z    M52.004,28.799c0.284,0,0.514-0.23,0.514-0.514s-0.229-0.514-0.514-0.514h-2.383c-0.284,0-0.514,0.23-0.514,0.514   s0.23,0.514,0.514,0.514H52.004L52.004,28.799z M52.004,26.417c0.284,0,0.514-0.23,0.514-0.514s-0.229-0.514-0.514-0.514h-2.383   c-0.284,0-0.514,0.23-0.514,0.514s0.23,0.514,0.514,0.514H52.004L52.004,26.417z M53.82,28.799c0.284,0,0.514-0.23,0.514-0.514   v-2.382c0-0.284-0.229-0.514-0.514-0.514s-0.514,0.23-0.514,0.514v2.382C53.307,28.569,53.536,28.799,53.82,28.799L53.82,28.799z    M56.203,28.799c0.284,0,0.514-0.23,0.514-0.514v-2.382c0-0.284-0.229-0.514-0.514-0.514s-0.514,0.23-0.514,0.514v2.382   C55.689,28.569,55.919,28.799,56.203,28.799L56.203,28.799z M62.553,35.11c0.478,0,0.864-0.387,0.864-0.865   s-0.387-0.865-0.864-0.865h-4.011c-0.478,0-0.864,0.387-0.864,0.865s0.387,0.865,0.864,0.865H62.553L62.553,35.11z M62.553,39.12   c0.478,0,0.864-0.387,0.864-0.865s-0.387-0.865-0.864-0.865h-4.011c-0.478,0-0.864,0.387-0.864,0.865s0.387,0.865,0.864,0.865   H62.553L62.553,39.12z M51.474,39.12c0.478,0,0.864-0.387,0.864-0.865v-4.01c0-0.478-0.387-0.865-0.864-0.865   s-0.865,0.387-0.865,0.865v4.01C50.609,38.733,50.996,39.12,51.474,39.12L51.474,39.12z M55.484,39.12   c0.478,0,0.864-0.387,0.864-0.865v-4.01c0-0.478-0.387-0.865-0.864-0.865s-0.864,0.387-0.864,0.865v4.01   C54.62,38.733,55.007,39.12,55.484,39.12L55.484,39.12z M48.415,35.11c0.478,0,0.865-0.387,0.865-0.865s-0.387-0.865-0.865-0.865   h-4.009c-0.478,0-0.865,0.387-0.865,0.865s0.387,0.865,0.865,0.865H48.415L48.415,35.11z M48.415,39.12   c0.478,0,0.865-0.387,0.865-0.865s-0.387-0.865-0.865-0.865h-4.009c-0.478,0-0.865,0.387-0.865,0.865s0.387,0.865,0.865,0.865   H48.415L48.415,39.12z M41.348,39.12c0.478,0,0.865-0.387,0.865-0.865v-4.01c0-0.478-0.387-0.865-0.865-0.865   s-0.865,0.387-0.865,0.865v4.01C40.483,38.733,40.871,39.12,41.348,39.12L41.348,39.12z M37.338,39.12   c0.478,0,0.865-0.387,0.865-0.865v-4.01c0-0.478-0.387-0.865-0.865-0.865s-0.865,0.387-0.865,0.865v4.01   C36.474,38.733,36.861,39.12,37.338,39.12L37.338,39.12z M42.375,47.514c0.351,0,0.635-0.284,0.635-0.635s-0.284-0.635-0.635-0.635   h-2.947c-0.351,0-0.635,0.284-0.635,0.635s0.284,0.635,0.635,0.635H42.375L42.375,47.514z M42.375,44.569   c0.351,0,0.635-0.284,0.635-0.635s-0.284-0.635-0.635-0.635h-2.947c-0.351,0-0.635,0.284-0.635,0.635s0.284,0.635,0.635,0.635   H42.375L42.375,44.569z M47.569,47.514c0.351,0,0.635-0.284,0.635-0.635v-2.945c0-0.351-0.284-0.635-0.635-0.635   s-0.635,0.284-0.635,0.635v2.945C46.934,47.23,47.218,47.514,47.569,47.514L47.569,47.514z M44.623,47.514   c0.351,0,0.635-0.284,0.635-0.635v-2.945c0-0.351-0.284-0.635-0.635-0.635s-0.635,0.284-0.635,0.635v2.945   C43.987,47.23,44.271,47.514,44.623,47.514L44.623,47.514z M52.764,47.514c0.351,0,0.636-0.284,0.636-0.635   s-0.285-0.635-0.636-0.635h-2.948c-0.351,0-0.635,0.284-0.635,0.635s0.284,0.635,0.635,0.635H52.764L52.764,47.514z M52.764,44.569   c0.351,0,0.636-0.284,0.636-0.635s-0.285-0.635-0.636-0.635h-2.948c-0.351,0-0.635,0.284-0.635,0.635s0.284,0.635,0.635,0.635   H52.764L52.764,44.569z M55.011,47.514c0.351,0,0.636-0.284,0.636-0.635v-2.945c0-0.351-0.285-0.635-0.636-0.635   s-0.636,0.284-0.636,0.635v2.945C54.375,47.23,54.66,47.514,55.011,47.514L55.011,47.514z M57.956,47.514   c0.351,0,0.636-0.284,0.636-0.635v-2.945c0-0.351-0.285-0.635-0.636-0.635s-0.636,0.284-0.636,0.635v2.945   C57.32,47.23,57.605,47.514,57.956,47.514L57.956,47.514z"></path></g><g><path d="M9.987,75.059c0.201-16.312,5.361-25.324,16.192-28.329c0.369-0.103,0.646-0.408,0.718-0.785   c0.069-0.377-0.082-0.759-0.39-0.988c-3.42-2.527-5.38-6.381-5.38-10.577c0-7.277,5.917-13.196,13.196-13.196   c7.275,0,13.194,5.918,13.194,13.196c0,4.19-1.963,8.046-5.388,10.577c-0.309,0.229-0.46,0.611-0.39,0.988   c0.069,0.377,0.35,0.683,0.718,0.785c1.937,0.536,3.774,1.278,5.523,2.158c-6.845,5.833-8.156,15.802-8.234,26.171H9.987z    M87.375,75.059c-0.037-5.26-0.417-9.961-1.421-13.994c-0.915,0.318-1.887,0.527-2.912,0.527c-4.915,0-8.915-3.996-8.915-8.904   c0-1.816,0.555-3.506,1.493-4.916c-0.899-0.393-1.843-0.754-2.877-1.042l-1.982-0.551l1.653-1.222   c3.425-2.531,5.389-6.387,5.389-10.577c0-7.277-5.92-13.196-13.194-13.196c-7.277,0-13.197,5.918-13.197,13.196   c0,4.196,1.962,8.05,5.382,10.577l1.651,1.222l-1.979,0.551c-11.947,3.312-14.606,13.698-14.717,28.329h23.02H87.375z    M76.135,52.688c0,3.805,3.099,6.898,6.907,6.898c3.811,0,6.909-3.094,6.909-6.898c0-3.806-3.099-6.904-6.909-6.904   C79.233,45.784,76.135,48.881,76.135,52.688z"></path></g></svg>