<svg xmlns:dc="http://purl.org/dc/elements/1.1/" xmlns:cc="http://creativecommons.org/ns#" xmlns:rdf="http://www.w3.org/1999/02/22-rdf-syntax-ns#" xmlns:svg="http://www.w3.org/2000/svg" xmlns="http://www.w3.org/2000/svg" xmlns:sodipodi="http://sodipodi.sourceforge.net/DTD/sodipodi-0.dtd" xmlns:inkscape="http://www.inkscape.org/namespaces/inkscape" version="1.1" x="0px" y="0px" viewBox="0 0 100 100"><g transform="translate(0,-952.36218)"><path style="color:#000000;enable-background:accumulate;" d="m 32,968.36219 c -8.86394,0 -16,7.1361 -16,16 l 0,36.00001 c 0,8.8639 7.13606,16 16,16 l 36,0 c 8.86394,0 16,-7.1361 16,-16 l 0,-36.00001 c 0,-8.8639 -7.13606,-16 -16,-16 l -36,0 z m 38,10 c 2.2091,0 4,1.7908 4,4 0,2.2091 -1.7909,4 -4,4 -2.2092,0 -4,-1.7909 -4,-4 0,-2.2092 1.7908,-4 4,-4 z m -20,6 c 9.91747,0 18,8.08259 18,18.00001 0,9.9174 -8.08253,18 -18,18 -9.91745,0 -18,-8.0826 -18,-18 0,-9.91742 8.08255,-18.00001 18,-18.00001 z m 0,3.99999 c -7.75567,0 -14,6.2444 -14,14.00002 0,7.7556 6.24433,14 14,14 7.75569,0 14,-6.2444 14,-14 0,-7.75562 -6.24431,-14.00002 -14,-14.00002 z" fill="#000000" stroke="none" marker="none" visibility="visible" display="inline" overflow="visible"></path></g></svg>