<?xml version="1.0" encoding="UTF-8"?>
<!DOCTYPE svg PUBLIC "-//W3C//DTD SVG 1.1//EN" "http://www.w3.org/Graphics/SVG/1.1/DTD/svg11.dtd">
<svg version="1.1" xmlns="http://www.w3.org/2000/svg" xmlns:xlink="http://www.w3.org/1999/xlink" x="0" y="0" width="19.12" height="17" viewBox="0, 0, 19.12, 17">
  <g id="Layer_2">
    <path d="M0.64,0 C0.394,-0.031 0.152,0.083 0.02,0.292 C-0.113,0.501 -0.113,0.769 0.02,0.978 C0.152,1.187 0.394,1.301 0.64,1.27 L2.64,1.27 L4.86,11.61 C4.95,12 5.2,12.32 5.52,12.32 L16.15,12.32 C16.396,12.351 16.638,12.237 16.77,12.028 C16.903,11.819 16.903,11.551 16.77,11.342 C16.638,11.133 16.396,11.019 16.15,11.05 L6,11.05 L5.77,9.77 L17,9.77 C17.295,9.761 17.549,9.557 17.62,9.27 L19.11,2.9 C19.142,2.713 19.092,2.521 18.974,2.372 C18.856,2.223 18.68,2.132 18.49,2.12 L4.16,2.12 L3.81,0.5 C3.739,0.213 3.485,0.009 3.19,0 z M4.42,3.4 L17.68,3.4 L16.5,8.5 L5.5,8.5 z M7.65,12.75 C6.479,12.75 5.53,13.699 5.53,14.87 C5.53,16.041 6.479,16.99 7.65,16.99 C8.821,16.99 9.77,16.041 9.77,14.87 C9.765,13.701 8.819,12.755 7.65,12.75 z M14.02,12.75 C12.849,12.75 11.9,13.699 11.9,14.87 C11.9,16.041 12.849,16.99 14.02,16.99 C15.191,16.99 16.14,16.041 16.14,14.87 C16.134,13.694 15.176,12.744 14,12.75 z M7.65,14 C8.119,14 8.5,14.381 8.5,14.85 C8.5,15.319 8.119,15.7 7.65,15.7 C7.181,15.7 6.8,15.319 6.8,14.85 C6.797,14.624 6.886,14.406 7.046,14.246 C7.206,14.086 7.424,13.997 7.65,14 z M14,14 C14.469,14 14.85,14.381 14.85,14.85 C14.85,15.319 14.469,15.7 14,15.7 C13.531,15.7 13.15,15.319 13.15,14.85 C13.147,14.624 13.236,14.406 13.396,14.246 C13.556,14.086 13.774,13.997 14,14 z" fill="#808080"/>
  </g>
</svg>
