<?xml version="1.0" encoding="UTF-8"?>
<!DOCTYPE svg PUBLIC "-//W3C//DTD SVG 1.1//EN" "http://www.w3.org/Graphics/SVG/1.1/DTD/svg11.dtd">
<svg version="1.1" xmlns="http://www.w3.org/2000/svg" xmlns:xlink="http://www.w3.org/1999/xlink" x="0" y="0" width="100" height="100" viewBox="0, 0, 100, 100">
  <g id="Layer_1">
    <g>
      <path d="M99.4,63.75 L92.4,56.75 C91.6,55.95 90.4,55.95 89.6,56.75 C88.8,57.55 88.8,58.75 89.6,59.55 L93.3,63.25 C88.7,63.15 84.5,62.75 80.8,62.05 L81.3,61.55 C88.7,54.95 92.9,45.45 92.9,35.55 C92.9,28.25 90.1,21.35 84.9,16.15 L84.8,16.05 C79.7,10.85 72.8,7.95 65.5,7.95 C65.5,7.95 65.5,7.95 65.5,7.95 C58.4,7.95 51.7,10.65 46.5,15.55 C41.4,10.65 34.6,7.95 27.5,7.95 C20.2,7.95 13.3,10.85 8,16.05 C2.8,21.25 0,28.15 0,35.45 C0,45.35 4.2,54.85 11.6,61.45 L45.1,91.55 C45.5,91.85 45.9,92.05 46.4,92.05 C46.9,92.05 47.3,91.85 47.7,91.55 L77.2,65.15 C81.9,66.25 87.3,66.95 93.3,67.05 L89.6,70.75 C88.8,71.55 88.8,72.75 89.6,73.55 C90,73.95 90.5,74.15 91,74.15 C91.5,74.15 92,73.95 92.4,73.55 L99.4,66.55 C100.2,65.75 100.2,64.55 99.4,63.75 z M46.4,87.45 L14.2,58.55 C7.7,52.65 3.9,44.25 3.9,35.45 C3.9,34.25 4,33.15 4.2,32.05 C4.4,32.05 4.7,32.05 4.9,32.05 C4.9,32.05 4.9,32.05 4.9,32.05 C6,32.05 6.8,31.25 6.8,30.15 C6.8,29.15 6,28.25 5,28.15 C6.1,24.65 8.1,21.45 10.8,18.75 C15.2,14.35 21.2,11.85 27.5,11.85 C33.8,11.85 39.7,14.25 44.2,18.75 L45.1,19.65 C45.9,20.45 47.1,20.45 47.9,19.65 L48.8,18.75 C53.2,14.35 59.2,11.85 65.4,11.85 C65.4,11.85 65.4,11.85 65.4,11.85 C71.7,11.85 77.6,14.35 82,18.75 L82.1,18.85 C82.1,18.85 82.1,18.85 82.1,18.85 C86.5,23.35 89,29.25 89,35.55 C89,44.35 85.2,52.75 78.7,58.65 L76.1,60.95 C66.4,58.25 59.3,53.55 52.5,48.55 C52.4,48.45 52.2,48.45 52.1,48.35 C52,48.25 51.9,48.15 51.8,48.05 L50.4,46.95 C49.5,46.25 48.3,46.45 47.7,47.35 C47,48.25 47.2,49.45 48.1,50.05 L49.6,51.15 C49.7,51.25 49.9,51.35 50,51.35 C50.1,51.45 50.2,51.55 50.3,51.65 C56.7,56.35 63.6,61.05 72.8,63.95 L46.4,87.45 z" fill="#000000"/>
      <path d="M27,32.05 C26.4,31.85 25.8,31.65 25.2,31.45 C24.2,31.05 23.1,31.65 22.7,32.65 C22.4,33.65 22.9,34.75 23.9,35.15 C24.5,35.35 25,35.55 25.5,35.75 C25.7,35.85 26,35.85 26.2,35.85 C27,35.85 27.7,35.35 28,34.55 C28.5,33.55 28,32.45 27,32.05 z" fill="#000000"/>
      <path d="M19.8,29.85 C19.2,29.75 18.6,29.55 18,29.45 C16.9,29.25 15.9,29.95 15.7,30.95 C15.5,32.05 16.2,33.05 17.2,33.25 C17.8,33.35 18.4,33.45 18.9,33.65 C19.1,33.65 19.2,33.75 19.4,33.75 C20.3,33.75 21.1,33.15 21.3,32.25 C21.5,31.15 20.8,30.15 19.8,29.85 z" fill="#000000"/>
      <path d="M12.4,28.65 C11.8,28.55 11.2,28.55 10.5,28.45 C9.4,28.35 8.5,29.15 8.4,30.25 C8.3,31.35 9.1,32.25 10.2,32.35 C10.8,32.45 11.4,32.45 12,32.55 C12.1,32.55 12.2,32.55 12.2,32.55 C13.2,32.55 14,31.85 14.1,30.85 C14.2,29.75 13.5,28.75 12.4,28.65 z" fill="#000000"/>
      <path d="M33.8,35.25 C33.3,34.95 32.7,34.65 32.1,34.35 C31.1,33.85 30,34.25 29.5,35.25 C29,36.25 29.4,37.35 30.4,37.85 C30.9,38.15 31.4,38.35 32,38.65 C32.3,38.85 32.6,38.85 32.9,38.85 C33.6,38.85 34.3,38.45 34.6,37.85 C35.1,36.95 34.8,35.75 33.8,35.25 z" fill="#000000"/>
      <path d="M38.6,38.15 C37.7,37.55 36.5,37.85 35.9,38.75 C35.3,39.65 35.6,40.85 36.5,41.45 C37,41.75 37.5,42.15 38,42.45 C38.3,42.65 38.7,42.75 39.1,42.75 C39.7,42.75 40.3,42.45 40.7,41.85 C41.3,40.95 41.1,39.75 40.2,39.15 C39.7,38.75 39.2,38.45 38.6,38.15 z" fill="#000000"/>
      <path d="M44.7,42.35 C43.8,41.75 42.6,41.85 42,42.75 C41.4,43.65 41.5,44.85 42.4,45.45 L43.8,46.55 C44.2,46.85 44.6,46.95 45,46.95 C45.6,46.95 46.2,46.65 46.6,46.15 C47.3,45.25 47.1,44.05 46.2,43.45 L44.7,42.35 z" fill="#000000"/>
    </g>
  </g>
</svg>
