<svg xmlns="http://www.w3.org/2000/svg" xmlns:xlink="http://www.w3.org/1999/xlink" version="1.1" x="0px" y="0px" viewBox="0 0 96 96" enable-background="new 0 0 96 96" xml:space="preserve"><path d="M92.496,29.856c-3.604-5.332-9.432-8.392-15.988-8.392c-12.672,0-19.691,9.084-20.54,18.648  c-16.684,0.448-20.632,6.916-22.96,13.924c-1.412-2.584-3.4-5.24-5.448-7.964c-4.188-5.584-8.504-11.34-8.384-16.86  c6.62,1.704,11.684-1.64,12.724-8.052c0.932-5.752-1.68-13.164-7.536-15.112C22.96,5.58,21.472,5.34,19.932,5.34  c-9.408,0-19.928,9.08-19.928,21.228c0,45.94,18.14,59.976,25.94,63.88c0.28,0.14,0.584,0.216,0.896,0.216  c0.212,0,0.428-0.04,0.632-0.104c4.344-1.44,10.496-1.44,16.44-1.44c6.264,0,12.744,0,17.704-1.656  c9.168-3.06,18.472-17.155,19.823-24.96c3.824-0.852,9.365-4.172,12.44-10.344C97.12,44.064,96.616,35.932,92.496,29.856z"></path></svg>