<svg xmlns="http://www.w3.org/2000/svg" xmlns:xlink="http://www.w3.org/1999/xlink" version="1.1" x="0px" y="0px" viewBox="0 0 100 100" style="enable-background:new 0 0 100 100;" xml:space="preserve"><style type="text/css">
	.st0{fill:none;}
</style><circle class="st0" cx="68.3" cy="46.6" r="1.5"></circle><path d="M77.9,57.1L73.8,50l0-1.8c0-4.2-1.2-9.1-3.8-14l0,0c-0.8-1.5-1.9-2.9-3-4.2l-2.1,2.2L59,33.5L55.5,38h-5.1l-4.5,5.2h-5  l-4.1,4.4h-4.9l-3.3,3.9c1.1,3.9,3.3,7.4,6.1,10.1c0,0,0,0.1,0,0.1l-0.8,25.2c0,0.6,0.4,1.1,1,1.1L57.1,88c0.6,0,1-0.5,1-1V76.9  c0-0.6,0.5-1.1,1.1-1.2l9.4-1.1c2.5-0.3,4.5-2.3,4.7-4.8l0.1-0.8c0-0.1,0-0.2,0-0.3l0.1-8l3.1-0.8C77.9,59.6,78.5,58.2,77.9,57.1z   M68.3,48c-0.8,0-1.5-0.7-1.5-1.5c0-0.8,0.7-1.5,1.5-1.5s1.5,0.7,1.5,1.5C69.8,47.4,69.1,48,68.3,48z"></path><polygon points="35.9,45.4 40,41.1 44.9,41.1 49.4,35.8 54.5,35.8 57.7,31.6 63.7,30.3 65.4,28.5 66.3,27.6 64.4,22.8 58.5,21.6   53.4,17.6 47.3,19.1 42.2,15.2 36.9,16.1 33.3,12.7 28.3,10.6 26.7,8 27.3,11.6 30,15.2 30.4,19.6 27.4,23.5 27.7,29.7 23.6,34.3   24.8,40.1 22.7,44.8 25.4,49.5 27.5,49.5 28.1,48.8 30.9,45.4 "></polygon></svg>