<svg xmlns="http://www.w3.org/2000/svg" xmlns:xlink="http://www.w3.org/1999/xlink" version="1.1" x="0px" y="0px" viewBox="0 0 100 100" style="enable-background:new 0 0 100 100;" xml:space="preserve"><g><path d="M14.7919922,69.5H76.125c0.828125,0,1.5-0.6713867,1.5-1.5V58h7.5830078c0.828125,0,1.5-0.6713867,1.5-1.5v-13   c0-0.8286133-0.671875-1.5-1.5-1.5H77.625V32c0-0.8286133-0.671875-1.5-1.5-1.5H14.7919922c-0.828125,0-1.5,0.6713867-1.5,1.5v36   C13.2919922,68.8286133,13.9638672,69.5,14.7919922,69.5z M83.7080078,45v10H77.625V45H83.7080078z M16.2919922,33.5H74.625v10v13   v10H16.2919922V33.5z"></path><path d="M57.0205078,35.375h-9.125c-0.828125,0-1.5,0.6713867-1.5,1.5v26.25c0,0.8286133,0.671875,1.5,1.5,1.5h9.125   c0.828125,0,1.5-0.6713867,1.5-1.5v-26.25C58.5205078,36.0463867,57.8486328,35.375,57.0205078,35.375z M55.5205078,61.625h-6.125   v-23.25h6.125V61.625z"></path><path d="M43.0205078,35.375h-9.125c-0.828125,0-1.5,0.6713867-1.5,1.5v26.25c0,0.8286133,0.671875,1.5,1.5,1.5h9.125   c0.828125,0,1.5-0.6713867,1.5-1.5v-26.25C44.5205078,36.0463867,43.8486328,35.375,43.0205078,35.375z M41.5205078,61.625h-6.125   v-23.25h6.125V61.625z"></path><path d="M29.0205078,35.375h-9.125c-0.828125,0-1.5,0.6713867-1.5,1.5v26.25c0,0.8286133,0.671875,1.5,1.5,1.5h9.125   c0.828125,0,1.5-0.6713867,1.5-1.5v-26.25C30.5205078,36.0463867,29.8486328,35.375,29.0205078,35.375z M27.5205078,61.625h-6.125   v-23.25h6.125V61.625z"></path></g></svg>