<svg xmlns="http://www.w3.org/2000/svg" xmlns:xlink="http://www.w3.org/1999/xlink" version="1.1" x="0px" y="0px" viewBox="0 0 60 60" enable-background="new 0 0 60 60" xml:space="preserve"><path d="M24.427,9.315c0,0-0.44,7.627,6.893,11.147c0,0-1.32,4.986,1.614,7.773c0,0-2.2,4.253-1.76,6.893  c0,0-3.519-0.436-4.84,2.934c0,0-3.445-1.691-6.809,1.548c0,0-12.083-6.354-11.231,10.478h4.693c0,0-2.347-9.093,4.4-7.04  c0,0,10.158,13.253,24.2,4.84c9.467-5.671,11.011-16.773,9.81-22.88c-1.01-5.133-4.677-15.693-17.877-10.12  c0,0-2.91-0.586-3.215-5.573H24.427z"></path></svg>