<svg xmlns="http://www.w3.org/2000/svg" xmlns:xlink="http://www.w3.org/1999/xlink" version="1.1" x="0px" y="0px" viewBox="0 0 100 100" enable-background="new 0 0 100 100" xml:space="preserve"><path d="M27.5,72.5C27.5,84.9,37.6,95,50,95s22.5-10.1,22.5-22.5S62.4,50,50,50S27.5,60.1,27.5,72.5z M50,55  c9.6,0,17.5,7.9,17.5,17.5S59.6,90,50,90s-17.5-7.9-17.5-17.5S40.4,55,50,55z"></path><path d="M44.7,81.3c2.9-2.9,7.7-2.9,10.6,0c0.5,0.5,1.1,0.7,1.8,0.7s1.3-0.2,1.8-0.7c1-1,1-2.6,0-3.5c-4.9-4.9-12.8-4.9-17.7,0  c-1,1-1,2.6,0,3.5C42.1,82.3,43.7,82.3,44.7,81.3z"></path><circle cx="45" cy="67.5" r="2.5"></circle><circle cx="55" cy="67.5" r="2.5"></circle><path d="M55.5,23.2c-1-1-2.6-1-3.5,0l-10,10c-0.7,0.7-0.9,1.8-0.5,2.7c0.4,0.9,1.3,1.5,2.3,1.5h6.5l-5.7,5.7c-1,1-1,2.6,0,3.5  c0.5,0.5,1.1,0.7,1.8,0.7s1.3-0.2,1.8-0.7l10-10c0.7-0.7,0.9-1.8,0.5-2.7c-0.4-0.9-1.3-1.5-2.3-1.5h-6.5l5.7-5.7  C56.5,25.8,56.5,24.2,55.5,23.2z"></path><path d="M61.5,12.6C59.5,8,55.1,5,50,5s-9.5,3-11.5,7.6c-6.2,0.7-11,6-11,12.4c0,5.1,3.1,9.7,7.8,11.6c1.3,0.5,2.7-0.1,3.3-1.4  c0.5-1.3-0.1-2.7-1.4-3.3c-2.8-1.2-4.7-3.9-4.7-6.9c0-4.1,3.4-7.5,7.5-7.5h0.3c1.1,0,2.1-0.8,2.4-1.9c0.9-3.3,3.8-5.6,7.3-5.6  s6.4,2.3,7.3,5.6c0.3,1.1,1.3,1.9,2.4,1.9H60c4.1,0,7.5,3.4,7.5,7.5c0,3.1-1.8,5.8-4.7,6.9c-1.3,0.5-1.9,2-1.4,3.3  c0.4,1,1.3,1.6,2.3,1.6c0.3,0,0.6-0.1,0.9-0.2c4.7-1.9,7.8-6.5,7.8-11.6C72.5,18.6,67.7,13.3,61.5,12.6z"></path></svg>