<svg xmlns="http://www.w3.org/2000/svg" xmlns:xlink="http://www.w3.org/1999/xlink" version="1.1" x="0px" y="0px" viewBox="0 0 100 100" enable-background="new 0 0 100 100" xml:space="preserve"><g><path d="M70.154,29.848C64.771,24.467,57.615,21.502,50,21.502s-14.768,2.965-20.154,8.346c-5.383,5.381-8.346,12.539-8.346,20.15   s2.963,14.77,8.346,20.154S42.385,78.498,50,78.498s14.768-2.963,20.154-8.346c5.383-5.381,8.346-12.541,8.346-20.154   S75.535,35.229,70.154,29.848z M68,51.502H32c-0.83,0-1.5-0.672-1.5-1.5s0.67-1.5,1.5-1.5h36c0.83,0,1.5,0.672,1.5,1.5   S68.83,51.502,68,51.502z"></path></g></svg>