<?xml version="1.0" encoding="UTF-8"?>
<!DOCTYPE svg PUBLIC "-//W3C//DTD SVG 1.1//EN" "http://www.w3.org/Graphics/SVG/1.1/DTD/svg11.dtd">
<svg version="1.1" xmlns="http://www.w3.org/2000/svg" xmlns:xlink="http://www.w3.org/1999/xlink" x="0" y="0" width="95" height="95" viewBox="0, 0, 95, 95">
  <g id="Layer_1">
    <g>
      <path d="M68.904,15.176 C56.144,25.879 51.615,41.522 51.615,41.522 C72.197,25.467 80.432,6.119 80.432,6.119 C44.412,9.824 48.737,45.226 48.737,45.226 C56.35,19.5 68.904,15.176 68.904,15.176 z" fill="#000000"/>
      <path d="M67.396,51.176 L46.92,51.176 C49.598,9.572 14.568,6.119 14.568,6.119 C37.172,17.582 43.894,41.103 45.779,51.176 L27.574,51.176 C26.015,51.176 24.75,52.442 24.75,54.002 L25.064,57.391 L69.904,57.391 L70.218,54.002 C70.219,52.441 68.957,51.176 67.396,51.176 z" fill="#000000"/>
      <path d="M27.574,86.055 C27.574,87.616 28.84,88.881 30.398,88.881 L64.572,88.881 C66.131,88.881 67.396,87.615 67.396,86.055 L69.904,59.084 L25.064,59.084 L27.574,86.055 z" fill="#000000"/>
    </g>
  </g>
</svg>
