<?xml version="1.0" encoding="UTF-8"?>
<!DOCTYPE svg PUBLIC "-//W3C//DTD SVG 1.1//EN" "http://www.w3.org/Graphics/SVG/1.1/DTD/svg11.dtd">
<svg version="1.1" xmlns="http://www.w3.org/2000/svg" xmlns:xlink="http://www.w3.org/1999/xlink" x="0" y="0" width="100" height="100" viewBox="0, 0, 100, 100">
  <g id="Layer_1">
    <path d="M69.4,24.2 C68.8,24 68.5,23.4 68.5,22.9 L68.5,20.9 C69.6,20.8 70.5,19.9 70.5,18.8 L70.5,14.3 C70.5,12.6 69.1,11.2 67.4,11.2 L32.6,11.2 C30.9,11.2 29.5,12.6 29.5,14.3 L29.5,18.8 C29.5,19.9 30.4,20.8 31.5,20.9 L31.5,22.9 C31.5,23.5 31.1,24 30.6,24.2 C23.3,27.1 18.5,34.1 18.5,42 L18.5,78.1 C18.5,84 23.3,88.9 29.3,88.9 L70.8,88.9 C76.7,88.9 81.6,84.1 81.6,78.1 L81.6,42 C81.5,34.1 76.8,27.1 69.4,24.2 z M31.5,14.2 C31.5,13.6 32,13.1 32.6,13.1 L67.4,13.1 C68,13.1 68.5,13.6 68.5,14.2 L68.5,18.7 C68.5,18.8 68.4,18.8 68.4,18.8 L31.7,18.8 C31.6,18.8 31.6,18.7 31.6,18.7 L31.6,14.2 z M31.3,26.1 C32.6,25.6 33.5,24.3 33.5,22.9 L33.5,20.9 L66.5,20.9 L66.5,22.9 C66.5,24.3 67.4,25.6 68.7,26.1 C72,27.4 74.7,29.7 76.6,32.5 L23.4,32.5 C25.3,29.6 28,27.4 31.3,26.1 z M22.3,34.4 C22.4,34.4 22.4,34.4 22.5,34.4 L77.8,34.4 C78.9,36.7 79.5,39.3 79.5,41.9 L79.5,77.5 L20.5,77.5 L20.5,42 C20.5,39.3 21.1,36.7 22.3,34.4 z M70.7,86.9 L29.3,86.9 C25,86.9 21.4,83.8 20.7,79.7 L79.4,79.7 C78.6,83.7 75,86.9 70.7,86.9 z" fill="#000000"/>
    <path d="M37.8,56.7 C38.9,55.5 40,54.8 41.1,54.9 C42.9,54.9 44.3,56.6 44.3,56.6 C44.5,56.8 44.7,56.9 45,57 C45.3,57 45.5,56.9 45.7,56.8 C48.5,54.4 51.9,57 52,57.1 C52.4,57.4 52.9,57.4 53.3,57.1 C53.7,56.8 53.7,56.2 53.4,55.8 C52.7,54.8 53,53.6 53.2,52.4 C53.3,52.1 53.3,51.7 53.4,51.5 C53.6,50.2 52.8,48.7 52.3,47.7 C52.2,47.5 52.1,47.3 52,47.2 C51.7,46.5 51.1,46.1 50.4,46 C49.7,45.9 48.9,46.1 48.4,46.7 C48.1,47 46.9,47.3 46.3,47 C45.9,46.8 45.5,46.7 45.1,46.6 C44.8,46.5 44.3,46.4 44.1,46.2 C44,46 44.1,45.5 44.1,45.4 C44.4,45.1 44.8,44.6 44.8,43.7 C44.8,43.4 44.9,43.1 45.1,42.9 C45.3,42.7 45.6,42.5 45.8,42.3 C46.4,41.7 47.3,41.6 48,41.8 C49.5,42.3 51,43.4 51.9,44.2 C52.4,44.6 52.9,45.2 53.2,45.8 C53.7,46.8 54.2,47.5 54.5,47.9 C54.6,48 54.8,48.2 55.1,48.5 C56.6,50 60.6,53.8 61.1,59.6 C61.1,59.9 61.3,60.2 61.5,60.4 C61.7,60.5 61.7,60.7 61.5,61.1 C61.3,61.6 60.7,61.6 60.7,61.6 C60.5,61.6 60.2,61.7 60,61.8 C60,61.8 56.1,65.1 50.7,65.1 C48.5,65.1 47.2,64.7 46.2,64.3 C45.5,64.1 44.9,63.9 44.3,63.9 C44.6,63.6 44.8,63.5 44.9,63.5 C45.4,63.3 45.6,62.7 45.4,62.2 C45.2,61.7 44.6,61.4 44.1,61.6 C44,61.7 42.8,62.2 42,63.8 C41.8,64.3 41.6,64.8 41.5,65.2 C41.4,65.6 41.3,66 41.1,66.3 C39.4,68.4 38.4,68.4 37.9,68.4 C37.8,68.4 37.6,68.4 37.5,68.4 C37,68.5 36.6,69 36.7,69.5 C36.8,70 37.2,70.4 37.7,70.4 C37.7,70.4 37.8,70.4 37.8,70.4 C37.8,70.4 37.9,70.4 38,70.4 C38.7,70.4 39.9,70.3 41.6,68.8 C42.2,68.4 42.6,67.9 42.9,67.4 C43,67.3 43.1,67.2 43.2,67.1 C44.3,65.7 44.4,65.7 45.7,66.2 C46.7,66.5 48.3,67.1 50.8,67.1 C56.2,67.1 60.1,64.3 61.1,63.5 C61.9,63.4 62.8,62.9 63.3,61.9 C63.9,60.7 63.5,59.6 63,59.1 C62.3,52.8 57.9,48.5 56.4,47.1 C56.2,46.9 56.1,46.8 56,46.7 C55.8,46.4 55.4,45.8 54.9,45 C54.4,44.2 53.8,43.4 53.1,42.8 C52,41.9 50.3,40.7 48.6,40.1 C47.2,39.6 45.6,39.9 44.4,40.9 C44.1,41.1 43.9,41.4 43.6,41.6 C43,42.2 42.6,43 42.6,43.9 C42.6,44 42.6,44.1 42.6,44.1 C41.7,44.9 41.7,46.6 42.2,47.4 C42.6,48.1 43.5,48.4 44.4,48.6 C44.7,48.7 45.1,48.8 45.4,48.9 C46.8,49.5 49,49 49.7,48.1 C49.7,48.1 49.8,48 49.9,48.1 C50,48.1 50,48.2 50,48.2 C50.1,48.4 50.2,48.6 50.3,48.8 C50.7,49.5 51.3,50.7 51.2,51.4 C51.2,51.6 51.1,51.9 51.1,52.2 C51,52.8 50.8,53.7 50.8,54.5 C49.1,53.9 47,53.6 45,54.9 C44.2,54.2 42.8,53.2 41,53.1 C39.3,53.1 37.6,53.9 36.1,55.6 C35.7,56 35.8,56.6 36.2,57 C36.8,57.2 37.5,57.2 37.8,56.7 z" fill="#000000"/>
  </g>
</svg>
