<svg xmlns="http://www.w3.org/2000/svg" viewBox="0 0 43.8 43.8"><title>when_afternoon</title><g id="Layer_2" data-name="Layer 2"><g id="quiz"><path d="M21.9,0A21.9,21.9,0,1,0,43.8,21.9,21.88,21.88,0,0,0,21.9,0Zm0,40.85A18.95,18.95,0,1,1,40.85,21.9,19,19,0,0,1,21.9,40.85Z"/><circle cx="21.9" cy="21.9" r="0.7"/><rect x="15.84" y="13.69" width="16.45" height="0.52" transform="translate(4.16 33.38) rotate(-74.42)"/><rect x="26.15" y="17.16" width="0.75" height="9.56" transform="translate(4.49 48.4) rotate(-89.81)"/><rect x="38.12" y="21.61" width="1.74" height="0.58"/><rect x="3.94" y="21.61" width="1.74" height="0.58"/><rect x="21.61" y="3.94" width="0.58" height="1.74"/><rect x="21.61" y="38.12" width="0.58" height="1.74"/></g></g></svg>