<svg xmlns="http://www.w3.org/2000/svg" xmlns:xlink="http://www.w3.org/1999/xlink" version="1.1" x="0px" y="0px" viewBox="0 0 100 100" style="enable-background:new 0 0 100 100;" xml:space="preserve"><g><g><path d="M49.973,22.908c4.9,0,8.887-3.987,8.887-8.887s-3.987-8.887-8.887-8.887c-4.9,0-8.887,3.987-8.887,8.887    S45.073,22.908,49.973,22.908z M49.973,9.389c2.554,0,4.632,2.078,4.632,4.632s-2.078,4.632-4.632,4.632    c-2.554,0-4.632-2.078-4.632-4.632S47.419,9.389,49.973,9.389z"></path><path d="M85.369,27.388c-1.055-1.737-3.026-2.77-5.281-2.77c-0.011,0-0.022,0-0.033,0c0,0,0,0,0,0H19.898l0,0    c-0.011,0-0.022,0-0.032,0c-2.225,0-4.18,1.033-5.234,2.77c-1.141,1.88-1.141,4.215,0,6.095c1.095,1.804,3.03,2.877,5.182,2.877    c0.008,0,0.016,0,0.024,0c0,0,0,0,0,0h19.148v17.747c0,0.354-0.011,0.874-0.109,1.309c0,0,0,0,0,0.001c0,0,0,0,0,0L31.712,87.25    c-0.003,0.013-0.004,0.025-0.007,0.038c-0.003,0.013-0.007,0.026-0.009,0.039c-0.627,3.359,1.567,6.595,4.994,7.368    c0.502,0.113,1.001,0.168,1.491,0.168c2.797,0,5.289-1.774,6.138-4.543c0.003-0.008,0.005-0.016,0.008-0.024    c0.004-0.012,0.008-0.023,0.011-0.035c0.005-0.017,0.008-0.035,0.013-0.052c0.007-0.028,0.016-0.054,0.023-0.083l5.596-24.698    l5.549,24.695c0,0.002,0.001,0.004,0.002,0.006c0,0.002,0,0.003,0.001,0.005c0.651,2.828,3.294,4.733,6.252,4.733    c0.506,0,1.021-0.056,1.536-0.172c3.477-0.784,5.643-4.042,4.931-7.417c-0.001-0.005-0.003-0.009-0.004-0.014    c-0.001-0.005-0.001-0.009-0.002-0.014l-7.164-31.832c0,0,0,0,0,0c0,0,0,0,0-0.001c-0.098-0.435-0.109-0.956-0.109-1.309V36.361    h19.094c0,0,0,0,0,0c0.008,0,0.016,0,0.024,0c2.186,0,4.211-1.1,5.29-2.877C86.511,31.604,86.511,29.268,85.369,27.388z     M62.374,90.544c-1.075,0.242-2.451-0.258-2.706-1.364l-6.461-28.752c0,0,0-0.001,0-0.001c0,0,0-0.001,0-0.001    c-0.349-1.548-1.679-2.629-3.234-2.629c-1.552,0-2.878,1.077-3.231,2.62c-0.001,0.002-0.001,0.005-0.002,0.007l0,0.002    c0,0,0,0,0,0.001c0,0,0,0,0,0L40.245,89.09c-0.349,1.108-1.443,1.718-2.618,1.454c-1.16-0.261-1.941-1.345-1.749-2.421    l7.149-31.77c0,0,0,0,0,0c0,0,0,0,0,0l0,0c0,0,0,0,0,0c0.191-0.849,0.213-1.687,0.213-2.244V36.172v0v0    c0-2.242-1.824-4.067-4.067-4.067H19.838h0c-0.004,0-0.008,0-0.012,0c-0.657,0.001-1.239-0.307-1.558-0.831    c-0.314-0.517-0.314-1.16,0-1.677c0.405-0.667,1.31-0.723,1.602-0.723c0.01,0,0.019,0,0.028,0h0h60.157h0c0.004,0,0.009,0,0.013,0    c0.289-0.002,1.252,0.045,1.664,0.723c0.314,0.517,0.314,1.16,0,1.677c-0.312,0.513-0.944,0.831-1.653,0.831    c-0.008,0-0.016,0-0.024,0h0H60.718c-0.001,0-0.003,0-0.004,0c-0.001,0-0.003,0-0.004,0c-2.208,0-4.004,1.824-4.004,4.067v17.936    c0,0.557,0.022,1.395,0.213,2.244c0,0,0,0,0,0l0,0.001c0,0,0,0,0,0c0,0,0,0,0,0l7.158,31.806    C64.328,89.355,63.409,90.31,62.374,90.544z"></path></g></g></svg>