<svg xmlns="http://www.w3.org/2000/svg" xmlns:xlink="http://www.w3.org/1999/xlink" version="1.1" x="0px" y="0px" viewBox="0 0 100 100" style="enable-background:new 0 0 100 100;" xml:space="preserve"><path d="M50,12.2c-20.9,0-37.8,16.9-37.8,37.8c0,20.9,16.9,37.8,37.8,37.8S87.8,70.9,87.8,50C87.8,29.1,70.9,12.2,50,12.2z M50,82.7  C32,82.7,17.3,68,17.3,50C17.3,32,32,17.3,50,17.3S82.7,32,82.7,50C82.7,68,68,82.7,50,82.7z"></path><g><circle cx="50" cy="50" r="1.2"></circle></g><g><rect x="53.3" y="22.1" transform="matrix(0.9632 0.2686 -0.2686 0.9632 11.7128 -13.1226)" width="0.9" height="28.4"></rect></g><g><rect x="47.8" y="54.9" transform="matrix(0.7313 0.6821 -0.6821 0.7313 52.9355 -23.303)" width="16.5" height="1.3"></rect></g><g><rect x="78" y="49.5" width="3" height="1"></rect></g><g><rect x="19" y="49.5" width="3" height="1"></rect></g><g><rect x="49.5" y="19" width="1" height="3"></rect></g><g><rect x="49.5" y="78" width="1" height="3"></rect></g></svg>