<?xml version="1.0" encoding="UTF-8"?>
<!DOCTYPE svg PUBLIC "-//W3C//DTD SVG 1.1//EN" "http://www.w3.org/Graphics/SVG/1.1/DTD/svg11.dtd">
<svg version="1.1" xmlns="http://www.w3.org/2000/svg" xmlns:xlink="http://www.w3.org/1999/xlink" x="0" y="0" width="48" height="48" viewBox="0, 0, 48, 48">
  <g id="Layer_1">
    <path d="M38.8,35.6 L47.5,14.7 L41.1,7.4 L38.9,9.4 L44.1,15.3 L35.6,35.6 L4.2,35.6 C2.1,35.6 0.5,37.3 0.5,39.3 C0.5,41.4 2.2,43 4.2,43 L4.9,43 L4.9,47.5 L9.6,47.5 L9.6,43 L32.3,43 L32.3,47.5 L37,47.5 L37,43 L38.5,43 C40.6,43 42.2,41.3 42.2,39.3 C42.2,37.3 40.7,35.7 38.8,35.6 z" fill="#000000"/>
    <path d="M29.1,3.7 C29.1,5.467 27.623,6.9 25.8,6.9 C23.977,6.9 22.5,5.467 22.5,3.7 C22.5,1.933 23.977,0.5 25.8,0.5 C27.623,0.5 29.1,1.933 29.1,3.7 z" fill="#000000"/>
    <path d="M8.9,29.6 C11.8,30 14.3,29.3 16.3,27.7 C18.7,25.8 19.7,23 20.1,21.2 C26.1,25 28,31.7 28,31.7 C28.2,32.6 29.1,33.1 30,33.1 C30.2,33.1 30.3,33.1 30.5,33 C31.6,32.7 32.2,31.7 31.9,30.6 C31.8,30.3 30,24 24.3,19.3 L26.5,14 C30.4,14.2 33.7,11.7 35.2,9.9 C36,9.2 35.8,8 34.9,7.3 C34,6.6 32.8,6.8 32.1,7.6 C32,7.8 28.5,11.9 24.6,9.5 C20.2,6.8 17.2,7.2 15.4,8 C12.8,9.2 11.3,11.8 10.7,15.9 C10.6,17 11.3,17.9 12.4,18.1 C12.5,18.1 12.6,18.1 12.7,18.1 C13.7,18.1 14.6,17.4 14.7,16.4 C15.1,13.8 15.9,12 17.1,11.5 C17.7,11.2 18.6,11.2 19.6,11.5 L16.7,18.1 C16.5,18.4 16.4,18.7 16.4,19 C16.4,19 16.1,22.7 13.8,24.6 C12.7,25.5 11.3,25.8 9.5,25.6 C8.4,25.5 7.4,26.2 7.2,27.3 C7,28.5 7.8,29.5 8.9,29.6 z" fill="#000000"/>
  </g>
</svg>
