<?xml version="1.0" encoding="UTF-8"?>
<!DOCTYPE svg PUBLIC "-//W3C//DTD SVG 1.1//EN" "http://www.w3.org/Graphics/SVG/1.1/DTD/svg11.dtd">
<svg version="1.1" xmlns="http://www.w3.org/2000/svg" xmlns:xlink="http://www.w3.org/1999/xlink" x="0" y="0" width="240" height="240" viewBox="0, 0, 240, 240">
  <g id="Layer_1">
    <path d="M147.469,54.922 C148.469,54.158 149.443,53.368 150.389,52.568 C149.589,52.287 148.734,52.127 147.837,52.127 L139.163,52.127 C138.908,53.808 138.391,57.079 137.633,61.141 C140.801,59.604 144.223,57.466 147.469,54.922 z" fill="#000000"/>
    <path d="M114.741,59.42 C114.152,56.156 113.744,53.564 113.527,52.127 L109.2,52.127 C107.456,52.127 105.852,52.712 104.559,53.686 C103.275,54.273 101.349,55.174 98.991,56.345 C105.593,56.679 110.925,58.134 114.741,59.42 z" fill="#000000"/>
    <path d="M170.357,34.523 C171.89,34.523 173.383,34.962 174.676,35.794 C178.385,38.179 179.464,43.138 177.083,46.847 C175.298,49.601 173.011,52.512 170.395,55.414 C171.113,57.398 171.723,59.219 172.217,60.856 C173.271,64.306 173.814,67.01 174.023,68.861 C173.318,68.585 172.524,68.229 171.705,67.789 C169.087,66.461 166.087,64.519 163.285,62.524 C161.339,64.285 159.312,65.988 157.244,67.588 C151.411,71.998 142.97,77.64 133.456,79.273 C131.492,86.071 129.094,92.16 126.345,94.909 C124.926,93.49 123.602,91.17 122.381,88.332 C121.491,91.132 119.759,93.622 117.342,95.41 C115.394,100.884 114.526,105.22 114.761,108.301 C115.144,113.257 117.114,116.67 119.198,120.278 C120.131,121.889 121.092,123.553 121.911,125.37 C122.986,126.887 125.023,131.326 127.335,138.255 L133.436,138.255 L148.341,228.034 C149.46,234.77 155.826,239.325 162.563,238.206 C169.298,237.087 173.854,230.719 172.735,223.984 L155.566,120.576 L155.566,76.645 C158.35,78.565 161.339,80.458 164.427,82.04 C168.209,83.903 171.947,85.543 176.727,85.632 C178.326,85.632 180.092,85.396 181.895,84.684 C184.619,83.663 187.156,81.293 188.421,78.646 C189.734,75.996 190.117,73.299 190.128,70.547 C190.108,66.396 189.227,61.868 187.535,56.229 C185.832,50.603 183.272,43.903 179.663,35.775 C177.869,31.738 173.14,29.918 169.102,31.714 C166.804,32.735 165.229,34.707 164.626,36.96 C166.119,35.418 168.163,34.523 170.357,34.523 z" fill="#000000"/>
    <path d="M105.594,40.175 C105.445,40.811 105.271,41.434 105.073,42.046 C108.704,44.555 113.105,46.029 117.852,46.029 C130.278,46.029 140.352,35.955 140.352,23.529 C140.352,11.102 130.278,1.029 117.852,1.029 C107.973,1.029 99.587,7.398 96.562,16.252 C103.899,21.509 107.763,30.851 105.594,40.175 z" fill="#000000"/>
    <path d="M125.344,56.888 L118.344,52.888 L118.344,60.715 C118.767,60.873 119.181,61.028 119.583,61.18 L125.344,57.888 L125.344,56.888 z" fill="#000000"/>
    <path d="M134.344,52.888 L127.344,56.888 L127.344,57.888 L134.344,61.888 z" fill="#000000"/>
    <path d="M127.149,63.631 C127.204,63.64 127.261,63.643 127.317,63.652 C127.028,63.489 126.699,63.389 126.344,63.389 C126.261,63.389 126.182,63.404 126.101,63.413 C126.467,63.502 126.821,63.58 127.149,63.631 z" fill="#000000"/>
    <path d="M124.604,79.421 C124.444,79.709 124.344,80.035 124.344,80.389 C124.344,81.493 125.239,82.389 126.344,82.389 C127.448,82.389 128.344,81.493 128.344,80.389 C128.344,80.157 128.298,79.937 128.225,79.729 C126.979,79.711 125.768,79.614 124.604,79.421 z" fill="#000000"/>
    <path d="M87.958,14.516 C99.251,17.145 106.273,28.432 103.643,39.724 C101.014,51.017 89.727,58.039 78.435,55.41 C67.142,52.78 60.12,41.493 62.749,30.201 C65.379,18.908 76.665,11.886 87.958,14.516 z" fill="#000000"/>
    <path d="M74.53,227.916 L74.53,228.973 C74.53,234.495 79.007,238.973 84.53,238.973 C89.914,238.973 94.294,234.713 94.509,229.379 C92.884,229.449 91.317,229.488 89.837,229.488 C82.938,229.488 78.452,228.734 74.53,227.916 z" fill="#000000"/>
    <path d="M107.777,228.222 L108.235,230.476 C109.337,235.888 114.615,239.382 120.027,238.283 C125.436,237.183 128.934,231.902 127.834,226.49 L127.582,225.252 C121.765,225.574 118.68,226.203 115.277,226.899 C113.158,227.332 110.882,227.793 107.777,228.222 z" fill="#000000"/>
    <path d="M56.557,86.843 C58.293,87.331 60.042,87.493 62.012,87.498 C64.701,87.483 67.876,87.152 71.639,86.456 C73.872,89.55 76.8,94.257 78.438,99.478 C79.743,100.257 81.6,101.199 84.184,102.185 C89.334,104.165 91.913,109.963 89.938,115.109 C88.461,118.947 84.71,121.525 80.599,121.525 C79.372,121.525 78.167,121.3 77.013,120.855 C76.5,120.657 76,120.457 75.51,120.256 C75.44,120.378 75.37,120.503 75.3,120.626 C69.555,127.155 52.376,167.599 58.518,224.271 C72.853,223.271 74.519,228.605 96.519,227.271 C118.519,225.937 113.685,223.021 137.352,223.021 C137.813,165.542 122.585,129.274 120.174,126.388 C117.601,120.57 113.37,116.29 112.768,108.454 C112.467,104.562 113.752,99.408 115.672,94.139 C118.924,91.964 121.065,88.26 121.065,84.054 C121.065,83.388 120.997,82.74 120.894,82.103 C121.772,80.318 122.633,78.646 123.431,77.142 C123.899,77.246 124.368,77.35 124.853,77.436 C126.089,77.645 127.328,77.74 128.566,77.74 C138.421,77.603 147.715,72.281 156.021,66.004 C164.283,59.617 171.311,52.075 175.398,45.767 C177.189,42.979 176.382,39.268 173.594,37.475 C170.809,35.684 167.098,36.491 165.305,39.276 C162.333,43.947 155.869,51.013 148.704,56.493 C141.582,62.079 133.514,65.878 128.565,65.74 C127.947,65.74 127.374,65.694 126.843,65.604 C124.04,65.17 120.313,63.526 115.327,61.737 C110.347,59.971 104.067,58.258 96.196,58.268 C83.812,58.278 73.035,60.845 65.055,64.198 C61.056,65.889 57.758,67.752 55.167,69.826 C53.872,70.877 52.736,71.974 51.766,73.33 C50.83,74.682 49.906,76.391 49.872,78.818 C49.848,80.404 50.428,82.211 51.433,83.513 C52.965,85.503 54.863,86.343 56.557,86.843 z" fill="#000000"/>
    <path d="M77.732,118.989 C78.675,119.352 79.646,119.524 80.6,119.524 C83.816,119.524 86.847,117.573 88.07,114.391 C89.654,110.266 87.594,105.639 83.469,104.054 C79.375,102.491 76.667,100.885 75.121,99.612 C74.982,99.498 74.84,99.382 74.721,99.274 C74.716,99.27 74.712,99.265 74.707,99.261 C73.807,98.456 73.419,97.858 73.239,97.497 C73.067,97.125 73.046,96.976 73.035,96.679 C73.029,96.276 73.182,95.408 73.928,94.076 C73.941,94.053 73.959,94.027 73.972,94.004 C72.904,91.959 71.754,90.129 70.736,88.65 C67.448,89.204 64.588,89.484 62.023,89.5 C60.722,89.496 59.588,89.421 58.532,89.278 C57.628,91.542 57.04,94.014 57.036,96.68 C57.027,99.326 57.654,102.086 58.889,104.571 C60.116,107.069 61.896,109.272 64.037,111.187 C64.057,111.205 64.078,111.219 64.099,111.237 C65.25,112.257 66.514,113.201 67.878,114.093 C70.68,115.926 73.935,117.525 77.732,118.989 z" fill="#000000"/>
  </g>
</svg>
