<?xml version="1.0" encoding="UTF-8"?>
<!DOCTYPE svg PUBLIC "-//W3C//DTD SVG 1.1//EN" "http://www.w3.org/Graphics/SVG/1.1/DTD/svg11.dtd">
<svg version="1.1" xmlns="http://www.w3.org/2000/svg" xmlns:xlink="http://www.w3.org/1999/xlink" x="0" y="0" width="100" height="100" viewBox="0, 0, 100, 100">
  <g id="Layer_1">
    <path d="M70.154,29.848 C64.771,24.467 57.615,21.502 50,21.502 C42.385,21.502 35.232,24.467 29.846,29.848 C24.463,35.229 21.5,42.387 21.5,49.998 C21.5,57.609 24.463,64.768 29.846,70.152 C35.229,75.536 42.385,78.498 50,78.498 C57.615,78.498 64.768,75.535 70.154,70.152 C75.537,64.771 78.5,57.611 78.5,49.998 C78.5,42.385 75.535,35.229 70.154,29.848 z M68,51.502 L32,51.502 C31.17,51.502 30.5,50.83 30.5,50.002 C30.5,49.174 31.17,48.502 32,48.502 L68,48.502 C68.83,48.502 69.5,49.174 69.5,50.002 C69.5,50.83 68.83,51.502 68,51.502 z" fill="#000000"/>
  </g>
</svg>
