<?xml version="1.0" encoding="UTF-8"?>
<!DOCTYPE svg PUBLIC "-//W3C//DTD SVG 1.1//EN" "http://www.w3.org/Graphics/SVG/1.1/DTD/svg11.dtd">
<svg version="1.1" xmlns="http://www.w3.org/2000/svg" xmlns:xlink="http://www.w3.org/1999/xlink" x="0" y="0" width="64" height="64" viewBox="0, 0, 64, 64">
  <g id="Layer_1">
    <path d="M2.009,50.183 C2.017,50.678 2.06,51.163 2.125,51.641 C2.135,51.715 2.147,51.787 2.159,51.861 C2.233,52.333 2.331,52.795 2.458,53.247 C2.463,53.264 2.466,53.281 2.471,53.299 C2.753,54.282 3.158,55.21 3.666,56.072 C3.698,56.127 3.732,56.181 3.766,56.236 C3.998,56.615 4.248,56.98 4.519,57.33 C4.555,57.377 4.589,57.426 4.626,57.473 C4.93,57.854 5.254,58.217 5.602,58.558 C5.655,58.61 5.713,58.657 5.767,58.708 C6.057,58.982 6.36,59.24 6.675,59.485 C6.783,59.569 6.893,59.651 7.004,59.731 C7.276,59.927 7.556,60.109 7.844,60.282 C7.858,60.291 7.869,60.304 7.884,60.313 C7.925,60.337 7.966,60.361 8.008,60.385 C8.06,60.419 8.112,60.452 8.166,60.483 C8.169,60.485 8.172,60.487 8.175,60.489 C8.177,60.49 8.179,60.49 8.182,60.492 C8.193,60.498 8.204,60.502 8.215,60.508 C8.66,60.754 9.126,60.966 9.603,61.155 C9.647,61.172 9.691,61.187 9.735,61.204 C10.119,61.351 10.512,61.477 10.913,61.584 C11.007,61.609 11.102,61.634 11.197,61.657 C11.556,61.743 11.922,61.812 12.293,61.865 C12.398,61.88 12.502,61.901 12.608,61.913 C13.065,61.966 13.528,62 14,62 C14.479,62 14.949,61.964 15.414,61.909 C15.449,61.905 15.485,61.897 15.521,61.893 C15.981,61.834 16.432,61.747 16.874,61.638 C16.887,61.635 16.9,61.634 16.912,61.631 C16.919,61.629 16.924,61.625 16.93,61.624 C20.795,60.648 23.912,57.8 25.264,54.098 C25.267,54.089 25.274,54.082 25.277,54.073 C25.285,54.05 25.291,54.026 25.299,54.003 C25.397,53.727 25.486,53.447 25.564,53.162 C25.586,53.082 25.606,53.002 25.626,52.922 C25.689,52.671 25.748,52.418 25.795,52.161 C25.824,52.005 25.844,51.848 25.867,51.691 C25.894,51.498 25.926,51.308 25.944,51.112 C25.979,50.741 26,50.371 26,50 C26,49.609 25.979,49.22 25.941,48.832 C25.92,48.618 25.882,48.409 25.85,48.199 C25.825,48.035 25.807,47.87 25.775,47.707 C25.72,47.423 25.647,47.146 25.572,46.869 C25.549,46.785 25.532,46.699 25.507,46.615 C25.418,46.313 25.313,46.019 25.201,45.728 C25.181,45.677 25.168,45.624 25.148,45.573 C25.146,45.567 25.141,45.562 25.138,45.556 C23.936,42.553 21.56,40.145 18.574,38.909 C18.567,38.906 18.562,38.901 18.556,38.899 C18.509,38.88 18.459,38.868 18.412,38.85 C18.053,38.707 17.686,38.582 17.311,38.474 C17.229,38.451 17.146,38.432 17.064,38.41 C16.697,38.313 16.324,38.233 15.944,38.171 C15.886,38.162 15.828,38.153 15.77,38.144 C15.351,38.082 14.926,38.041 14.495,38.024 C14.482,38.023 14.469,38.022 14.455,38.022 C14.302,38.017 14.153,38 14,38 C12.229,38 10.551,38.396 9.036,39.088 C9.03,39.091 9.024,39.094 9.018,39.096 C8.621,39.278 8.237,39.482 7.865,39.705 C7.838,39.721 7.809,39.733 7.782,39.749 C7.773,39.754 7.768,39.764 7.759,39.769 C4.313,41.881 2,45.671 2,50 C2,50.05 2.007,50.098 2.008,50.148 C2.008,50.15 2.007,50.151 2.007,50.153 C2.007,50.163 2.009,50.172 2.009,50.183 z M9.698,40.986 C9.925,40.877 10.154,40.776 10.388,40.685 C10.42,40.673 10.452,40.662 10.484,40.65 C11.47,40.279 12.51,40.071 13.556,40.022 C13.646,40.018 13.736,40.01 13.826,40.008 C14.002,40.004 14.178,40.011 14.354,40.017 C14.503,40.022 14.652,40.028 14.799,40.04 C14.953,40.052 15.106,40.069 15.259,40.088 C15.424,40.109 15.587,40.134 15.749,40.163 C15.891,40.188 16.033,40.213 16.174,40.245 C16.219,40.255 16.262,40.269 16.307,40.279 L13.586,43 L10.618,43 L9.628,41.02 C9.651,41.009 9.675,40.998 9.698,40.986 z M21.844,51.537 L23.856,48.374 C23.874,48.483 23.892,48.592 23.906,48.702 C23.923,48.828 23.942,48.953 23.953,49.079 C23.981,49.383 24,49.689 24,50 C24,50.446 23.962,50.891 23.9,51.335 C23.89,51.408 23.878,51.481 23.866,51.554 C23.795,51.994 23.701,52.432 23.57,52.866 L20.369,53.506 L21.8,51.6 C21.803,51.597 21.803,51.592 21.805,51.589 L21.844,51.537 z M15.84,59.82 C15.43,59.899 15.025,59.941 14.623,59.969 C14.513,59.976 14.402,59.983 14.291,59.986 C13.981,59.996 13.674,59.988 13.369,59.969 C13.258,59.962 13.145,59.963 13.034,59.952 C12.637,59.913 12.244,59.851 11.856,59.764 C11.79,59.75 11.727,59.73 11.662,59.714 C11.301,59.625 10.943,59.519 10.591,59.39 C10.568,59.382 10.546,59.373 10.523,59.365 L13.444,56.931 L16.669,56.286 L15.84,59.82 z M17.429,54.094 L13.784,54.823 L13.274,52.272 L13.104,51.422 L16.062,49.204 L19.535,51.287 L17.429,54.094 z M12,49.75 L9.268,47.701 L10.618,45 L13.382,45 L14.733,47.701 L12,49.75 z M7.862,49.147 L11.094,51.571 L11.903,55.613 L8.573,58.387 C8.552,58.374 8.53,58.362 8.51,58.349 C7.898,57.946 7.338,57.48 6.837,56.963 C6.789,56.914 6.745,56.861 6.699,56.811 C6.494,56.591 6.298,56.364 6.114,56.127 C6.071,56.072 6.03,56.015 5.988,55.958 C5.802,55.707 5.626,55.449 5.465,55.183 C5.44,55.143 5.416,55.103 5.392,55.062 C4.638,53.78 4.168,52.332 4.043,50.817 C4.042,50.806 4.042,50.796 4.041,50.785 L7.862,49.147 z M18.056,59.132 L18.826,55.854 L22.584,55.103 C21.529,56.871 19.95,58.287 18.056,59.132 z M23.089,45.854 L20.681,49.642 L16.764,47.292 L15.216,44.197 L18.386,41.027 C20.458,42.044 22.126,43.752 23.089,45.854 z M7.921,42.078 L8.882,44 L7.269,47.225 L4.113,48.577 C4.492,45.939 5.899,43.633 7.921,42.078 z" fill="#000000"/>
    <path d="M3.917,25.379 L28.539,42.213 C28.467,42.395 28.412,42.58 28.354,42.765 C28.35,42.779 28.345,42.792 28.341,42.805 C28.242,43.127 28.164,43.452 28.11,43.782 C28.102,43.827 28.091,43.872 28.084,43.917 C28.033,44.269 28,44.623 28,44.982 C28,44.986 28.001,44.989 28.001,44.993 C28.001,44.995 28,44.997 28,45 C28,46.813 28.687,48.581 29.987,50.168 C29.945,50.211 29.907,50.257 29.866,50.301 C29.847,50.322 29.825,50.339 29.806,50.36 C29.801,50.366 29.799,50.374 29.794,50.379 C28.683,51.615 28,53.243 28,55.031 C28,56.8 28.668,58.413 29.758,59.643 C29.763,59.649 29.764,59.657 29.77,59.663 C29.793,59.689 29.819,59.71 29.842,59.736 C29.966,59.871 30.095,60.001 30.229,60.126 C30.272,60.166 30.316,60.206 30.36,60.245 C30.498,60.368 30.642,60.484 30.79,60.595 C30.832,60.626 30.873,60.658 30.915,60.689 C31.073,60.803 31.237,60.909 31.404,61.009 C31.439,61.03 31.474,61.053 31.51,61.073 C31.691,61.177 31.878,61.272 32.068,61.36 C32.093,61.371 32.117,61.385 32.142,61.396 C32.345,61.487 32.553,61.567 32.766,61.638 C32.781,61.643 32.796,61.65 32.811,61.655 C33.028,61.726 33.249,61.786 33.475,61.835 C33.487,61.838 33.5,61.842 33.512,61.845 C33.728,61.891 33.948,61.926 34.17,61.951 C34.192,61.954 34.214,61.959 34.236,61.961 C34.477,61.986 34.721,62 34.969,62 C36.217,62 37.387,61.666 38.402,61.088 C38.406,61.086 38.409,61.084 38.413,61.082 C38.611,60.969 38.803,60.846 38.989,60.714 C39.014,60.696 39.038,60.677 39.063,60.659 C39.226,60.54 39.384,60.415 39.536,60.283 C39.572,60.252 39.606,60.219 39.641,60.187 C39.781,60.06 39.915,59.929 40.044,59.792 C40.06,59.775 40.079,59.76 40.095,59.742 C40.1,59.736 40.102,59.728 40.107,59.722 C41.08,58.658 41.731,57.296 41.895,55.787 C42.94,55.914 43.981,56 45,56 C46.206,56 47.381,55.916 48.516,55.76 L53.042,58.581 C53.324,60.513 54.992,62 57,62 C59.206,62 61,60.206 61,58 C61,55.794 59.206,54 57,54 L56.318,54 L55.679,53.547 C56.65,53.038 57.527,52.46 58.305,51.827 C58.35,51.8 58.399,51.784 58.441,51.749 C59.705,50.694 60.633,49.522 61.229,48.277 C61.234,48.267 61.238,48.256 61.243,48.246 C61.389,47.938 61.513,47.625 61.617,47.308 C61.637,47.247 61.657,47.186 61.676,47.124 C61.758,46.848 61.824,46.57 61.874,46.289 C61.889,46.209 61.907,46.131 61.919,46.051 C61.968,45.704 62,45.354 62,45 C62,44.646 61.968,44.296 61.918,43.948 C61.906,43.868 61.887,43.789 61.873,43.71 C61.823,43.429 61.758,43.151 61.675,42.875 C61.656,42.813 61.636,42.752 61.616,42.691 C61.513,42.374 61.388,42.061 61.242,41.753 C61.237,41.743 61.233,41.732 61.228,41.722 C60.632,40.477 59.704,39.305 58.44,38.25 C58.4,38.217 58.353,38.203 58.31,38.177 C56.479,36.684 54.066,35.508 51.291,34.79 C51.358,34.764 51.423,34.734 51.489,34.707 C51.565,34.676 51.64,34.644 51.716,34.612 C54.176,33.554 56.372,31.919 58.11,29.812 C58.112,29.809 58.114,29.807 58.117,29.804 C58.46,29.387 58.791,28.958 59.097,28.505 C59.11,28.486 59.115,28.465 59.126,28.445 C60.939,25.741 62,22.493 62,19 C62,18.583 61.974,18.144 61.933,17.684 C61.909,17.376 61.876,17.072 61.836,16.769 C61.834,16.756 61.834,16.746 61.832,16.734 C61.831,16.73 61.829,16.726 61.829,16.722 C60.969,10.343 56.567,5.087 50.665,2.992 C50.655,2.988 50.647,2.981 50.637,2.977 C50.612,2.968 50.586,2.963 50.561,2.954 C50.183,2.823 49.8,2.707 49.411,2.602 C49.29,2.569 49.169,2.539 49.048,2.508 C48.709,2.425 48.368,2.348 48.022,2.285 C47.794,2.243 47.566,2.213 47.338,2.18 C47.078,2.144 46.82,2.103 46.557,2.079 C46.039,2.03 45.52,2 45,2 C44.488,2 43.98,2.031 43.476,2.077 C43.307,2.092 43.139,2.113 42.971,2.133 C42.634,2.174 42.3,2.226 41.968,2.287 C41.783,2.321 41.597,2.35 41.414,2.389 C40.989,2.482 40.568,2.589 40.154,2.714 C39.9,2.79 39.653,2.88 39.404,2.967 C39.212,3.035 39.021,3.103 38.832,3.177 C38.564,3.282 38.298,3.391 38.037,3.51 C37.893,3.575 37.752,3.647 37.61,3.716 C37.09,3.967 36.587,4.242 36.1,4.544 C35.996,4.608 35.889,4.668 35.786,4.735 C35.536,4.897 35.295,5.068 35.054,5.243 C34.912,5.346 34.772,5.451 34.633,5.558 C34.406,5.733 34.181,5.91 33.963,6.096 C33.822,6.217 33.687,6.346 33.55,6.472 C33.198,6.794 32.861,7.129 32.537,7.479 C32.394,7.634 32.249,7.787 32.111,7.947 C31.937,8.149 31.771,8.357 31.607,8.568 C31.48,8.731 31.357,8.896 31.236,9.064 C31.076,9.286 30.916,9.507 30.766,9.736 C30.676,9.874 30.594,10.019 30.508,10.16 C30.215,10.638 29.947,11.13 29.702,11.637 C29.653,11.739 29.597,11.837 29.549,11.941 C29.546,11.948 29.547,11.957 29.544,11.964 C28.562,14.11 28,16.488 28,19 C28,19.389 28.033,19.77 28.058,20.153 C28.058,20.156 28.057,20.16 28.057,20.163 C28.057,20.17 28.059,20.176 28.059,20.183 C28.096,20.713 28.158,21.234 28.242,21.75 C28.247,21.779 28.25,21.808 28.255,21.836 C28.341,22.342 28.449,22.839 28.578,23.329 C28.587,23.365 28.596,23.4 28.606,23.436 C28.737,23.92 28.889,24.394 29.061,24.859 C29.075,24.896 29.088,24.934 29.102,24.971 C29.276,25.433 29.47,25.885 29.682,26.327 C29.699,26.363 29.717,26.4 29.734,26.436 C29.95,26.877 30.183,27.306 30.435,27.725 C30.454,27.757 30.474,27.789 30.493,27.821 C30.659,28.092 30.821,28.365 31.001,28.626 C31.009,28.639 31.013,28.654 31.022,28.667 C31.269,29.023 31.532,29.364 31.802,29.698 C31.871,29.782 31.941,29.865 32.011,29.948 C32.31,30.303 32.619,30.648 32.944,30.975 C32.961,30.992 32.977,31.01 32.994,31.027 C33.336,31.368 33.694,31.688 34.062,31.998 C34.147,32.069 34.231,32.14 34.317,32.21 C34.68,32.504 35.052,32.785 35.436,33.047 C35.515,33.101 35.598,33.15 35.678,33.203 C36.005,33.418 36.34,33.621 36.681,33.813 C36.795,33.877 36.907,33.944 37.023,34.006 C37.408,34.211 37.802,34.4 38.203,34.575 C38.346,34.638 38.491,34.696 38.636,34.755 C38.664,34.766 38.691,34.778 38.719,34.789 C38.719,34.789 38.719,34.789 38.719,34.789 C37.059,35.218 35.521,35.805 34.166,36.532 L10.042,17.134 C8.929,16.239 7.535,15.853 6.122,16.048 C4.707,16.242 3.47,16.989 2.64,18.152 C1.831,19.285 1.519,20.664 1.762,22.035 C2.003,23.405 2.769,24.593 3.917,25.379 z M37.809,59.097 C37.715,59.163 37.614,59.216 37.516,59.274 C37.374,59.36 37.229,59.44 37.079,59.512 C36.921,59.584 36.76,59.649 36.595,59.704 C36.523,59.729 36.449,59.75 36.376,59.772 C35.428,60.04 34.399,60.031 33.452,59.738 C33.42,59.728 33.387,59.719 33.356,59.708 C33.162,59.643 32.973,59.562 32.788,59.473 C32.682,59.421 32.579,59.364 32.477,59.304 C32.343,59.227 32.209,59.149 32.082,59.058 C32.057,59.04 32.036,59.018 32.011,58.999 C33.698,57.775 36.174,57.787 37.868,59.049 C37.846,59.064 37.83,59.083 37.809,59.097 z M34.906,56.062 C33.375,56.062 31.893,56.582 30.685,57.505 C30.261,56.774 30,55.936 30,55.031 C30,54.112 30.268,53.262 30.704,52.523 C31.919,53.468 33.418,54 34.969,54 C36.518,54 38.015,53.469 39.229,52.527 C39.253,52.568 39.28,52.608 39.303,52.651 C39.361,52.756 39.424,52.857 39.475,52.967 C39.557,53.146 39.619,53.336 39.68,53.526 C39.716,53.637 39.756,53.747 39.784,53.861 C39.832,54.059 39.858,54.264 39.881,54.47 C39.902,54.657 39.938,54.839 39.938,55.031 C39.938,55.963 39.664,56.827 39.215,57.573 C37.993,56.607 36.478,56.062 34.906,56.062 z M32.078,51.007 C32.281,50.861 32.497,50.741 32.715,50.628 C32.743,50.613 32.77,50.597 32.799,50.582 C32.956,50.508 33.117,50.445 33.281,50.388 C33.359,50.359 33.438,50.333 33.518,50.308 C34.479,50.027 35.523,50.029 36.48,50.322 C36.5,50.328 36.52,50.334 36.539,50.34 C36.733,50.402 36.921,50.483 37.106,50.569 C37.169,50.599 37.23,50.632 37.292,50.665 C37.34,50.691 37.389,50.716 37.436,50.743 C37.552,50.808 37.666,50.876 37.776,50.951 C37.815,50.978 37.851,51.011 37.889,51.04 C36.198,52.274 33.73,52.273 32.041,51.036 C32.054,51.028 32.065,51.016 32.078,51.007 z M33.032,48.34 C33.024,48.342 33.017,48.346 33.009,48.348 C32.829,48.401 32.654,48.463 32.481,48.53 C32.433,48.548 32.384,48.563 32.337,48.583 C32.274,48.609 32.212,48.637 32.15,48.664 C32.149,48.664 32.148,48.665 32.147,48.665 C31.955,48.751 31.766,48.843 31.583,48.945 C30.546,47.706 30.003,46.352 30,44.99 C30,44.707 30.027,44.427 30.071,44.15 C30.083,44.077 30.099,44.007 30.114,43.936 C30.153,43.739 30.203,43.544 30.263,43.351 C30.293,43.255 30.323,43.158 30.358,43.065 C30.414,42.913 30.483,42.764 30.551,42.615 C30.588,42.537 30.62,42.455 30.659,42.379 C30.669,42.363 30.686,42.353 30.695,42.336 C30.855,42.032 31.054,41.722 31.303,41.388 C31.315,41.371 31.319,41.351 31.328,41.333 C31.424,41.207 31.523,41.088 31.624,40.971 C31.719,40.859 31.835,40.742 31.951,40.623 C31.951,40.623 31.951,40.623 31.952,40.623 L31.96,40.615 C32.027,40.545 32.101,40.484 32.17,40.415 C33.369,41.806 34,43.369 34,44.982 C34,46.132 33.674,47.26 33.032,48.34 z M41.819,53.783 C41.784,53.589 41.739,53.4 41.688,53.212 C41.684,53.197 41.68,53.181 41.676,53.166 C41.627,52.991 41.571,52.819 41.509,52.65 C41.498,52.62 41.488,52.59 41.476,52.561 C41.415,52.4 41.348,52.243 41.276,52.088 C41.26,52.054 41.243,52.02 41.227,51.986 C41.153,51.835 41.076,51.687 40.992,51.542 C40.973,51.51 40.954,51.479 40.935,51.447 C40.847,51.301 40.757,51.158 40.659,51.02 C40.645,51.001 40.63,50.983 40.617,50.963 C40.47,50.759 40.312,50.565 40.144,50.378 C40.139,50.372 40.137,50.364 40.132,50.359 C40.113,50.338 40.091,50.32 40.072,50.3 C39.944,50.162 39.812,50.031 39.673,49.904 C39.635,49.869 39.598,49.835 39.559,49.801 C39.413,49.672 39.261,49.551 39.104,49.435 C39.076,49.414 39.048,49.391 39.02,49.371 C38.997,49.354 38.974,49.337 38.951,49.321 C38.839,49.242 38.722,49.17 38.605,49.098 C38.541,49.058 38.477,49.018 38.411,48.98 C38.302,48.918 38.19,48.86 38.077,48.803 C37.997,48.763 37.918,48.724 37.836,48.687 C37.821,48.68 37.806,48.672 37.79,48.665 C37.789,48.665 37.788,48.664 37.787,48.664 C37.696,48.624 37.603,48.587 37.51,48.55 C37.416,48.513 37.322,48.479 37.226,48.446 C37.122,48.41 37.018,48.375 36.912,48.345 C36.802,48.313 36.69,48.286 36.578,48.259 C36.482,48.236 36.386,48.212 36.288,48.193 C36.153,48.167 36.016,48.149 35.878,48.13 C35.819,48.122 35.761,48.109 35.702,48.103 C35.7,48.103 35.698,48.102 35.696,48.102 C35.677,48.1 35.657,48.099 35.638,48.097 C35.547,48.088 35.455,48.086 35.364,48.081 C35.772,47.076 36,46.042 36,44.982 C36,42.888 35.207,40.89 33.704,39.14 C33.779,39.089 33.845,39.04 33.924,38.987 C34.131,38.849 34.338,38.712 34.559,38.583 C34.612,38.552 34.657,38.512 34.703,38.473 C37.393,36.945 41.012,36 45,36 C49.523,36 53.576,37.213 56.328,39.119 C54.804,40.877 54,42.89 54,45 C54,47.11 54.804,49.123 56.328,50.881 C55.491,51.461 54.539,51.978 53.483,52.415 C53.434,52.427 53.384,52.435 53.336,52.454 C51.89,53.043 50.291,53.471 48.583,53.727 C48.577,53.728 48.572,53.731 48.566,53.732 C47.42,53.901 46.231,54 45,54 C43.958,54 42.892,53.927 41.819,53.783 z M43.386,33.905 C43.223,33.887 43.064,33.859 42.903,33.836 C42.902,33.836 42.902,33.836 42.901,33.836 C42.531,33.783 42.163,33.719 41.8,33.64 C41.639,33.605 41.48,33.566 41.321,33.525 C41.288,33.517 41.255,33.508 41.222,33.499 C40.893,33.413 40.568,33.313 40.246,33.205 C40.123,33.164 40,33.125 39.878,33.08 C39.798,33.051 39.717,33.023 39.638,32.992 C39.279,32.854 38.928,32.7 38.582,32.535 C38.568,32.528 38.553,32.523 38.539,32.516 C38.438,32.468 38.337,32.421 38.237,32.371 C38.069,32.285 37.908,32.188 37.744,32.096 C37.512,31.967 37.28,31.839 37.055,31.698 C36.803,31.539 36.559,31.368 36.317,31.195 C36.157,31.081 36,30.965 35.844,30.844 C35.589,30.646 35.337,30.444 35.095,30.23 C34.986,30.134 34.882,30.03 34.776,29.93 C34.532,29.701 34.288,29.472 34.06,29.228 C34.056,29.223 34.052,29.219 34.047,29.214 C33.75,28.895 33.467,28.563 33.198,28.22 C33.193,28.214 33.187,28.208 33.182,28.202 C33.118,28.12 33.063,28.03 33,27.946 C33.165,27.586 33.349,27.234 33.551,26.897 C34.259,25.709 35.141,24.232 36.739,23.627 C38.876,22.815 41.128,24.087 43.732,25.561 C44.795,26.163 45.895,26.785 47.056,27.299 C49.754,28.493 52.781,29.088 56.102,29.051 C55.994,29.17 55.889,29.292 55.777,29.408 C55.652,29.537 55.525,29.663 55.397,29.788 C55.168,30.009 54.934,30.223 54.691,30.429 C54.554,30.545 54.413,30.657 54.272,30.768 C54.028,30.961 53.78,31.15 53.524,31.328 C53.362,31.44 53.196,31.543 53.03,31.648 C52.783,31.806 52.535,31.962 52.278,32.106 C52.078,32.217 51.872,32.316 51.667,32.418 C51.432,32.535 51.198,32.656 50.956,32.761 C50.704,32.87 50.445,32.962 50.187,33.057 C49.978,33.135 49.772,33.219 49.558,33.288 C49.248,33.387 48.931,33.464 48.614,33.542 C48.439,33.586 48.268,33.64 48.091,33.677 C47.721,33.755 47.344,33.807 46.966,33.857 C46.832,33.875 46.701,33.904 46.565,33.918 C46.049,33.971 45.527,34 45,34 C44.457,34 43.919,33.963 43.386,33.905 z M59.616,43.005 C59.67,43.143 59.713,43.287 59.757,43.431 C59.8,43.577 59.838,43.723 59.869,43.871 C59.891,43.974 59.915,44.076 59.931,44.182 C59.972,44.452 60,44.724 60,45 C60,45.276 59.972,45.548 59.931,45.818 C59.915,45.924 59.891,46.026 59.869,46.129 C59.838,46.277 59.8,46.423 59.757,46.569 C59.713,46.713 59.67,46.857 59.616,46.995 C59.603,47.029 59.586,47.061 59.573,47.095 C59.165,48.085 58.516,48.923 57.848,49.588 C56.636,48.192 56,46.621 56,45 C56,43.379 56.636,41.808 57.848,40.413 C58.516,41.077 59.165,41.915 59.573,42.906 C59.586,42.939 59.603,42.972 59.616,43.005 z M53.575,54.508 L55.422,55.816 C55.591,55.936 55.793,56 56,56 L57,56 C58.103,56 59,56.897 59,58 C59,59.103 58.103,60 57,60 C55.897,60 55,59.103 55,58 C55,57.655 54.822,57.334 54.529,57.151 L51.391,55.195 C51.433,55.184 51.471,55.168 51.512,55.157 C52.11,54.996 52.688,54.812 53.249,54.61 C53.355,54.573 53.47,54.547 53.575,54.508 z M57.679,26.979 C54.024,27.235 50.721,26.734 47.866,25.47 C46.794,24.995 45.739,24.398 44.717,23.82 C41.931,22.244 39.05,20.611 36.03,21.757 C33.78,22.609 32.609,24.572 31.833,25.872 C31.807,25.915 31.786,25.962 31.76,26.006 C30.901,24.388 30.325,22.594 30.111,20.688 C34.472,18.574 39.104,17.209 43.888,16.626 C49.265,15.972 54.657,16.321 59.927,17.661 C59.932,17.711 59.934,17.756 59.938,17.805 C59.971,18.201 60,18.597 60,19 C60,21.934 59.141,24.665 57.679,26.979 z M59.578,15.528 C54.335,14.298 48.985,13.991 43.649,14.641 C38.929,15.215 34.355,16.524 30.025,18.525 C30.08,16.768 30.436,15.088 31.048,13.532 C31.986,13.738 32.899,13.844 33.783,13.844 C34.782,13.844 35.744,13.712 36.662,13.448 C38.598,12.892 39.81,11.909 41.345,10.666 C42.168,9.999 43.102,9.243 44.339,8.386 C46.217,7.086 48.24,5.953 50.35,5.003 C54.927,6.759 58.424,10.688 59.578,15.528 z M32.448,10.812 C32.579,10.611 32.72,10.418 32.861,10.225 C32.962,10.086 33.064,9.948 33.169,9.813 C33.313,9.628 33.458,9.444 33.61,9.266 C33.731,9.125 33.858,8.991 33.984,8.854 C34.247,8.568 34.52,8.293 34.804,8.03 C34.922,7.92 35.04,7.811 35.162,7.704 C35.348,7.542 35.536,7.383 35.73,7.23 C35.837,7.146 35.948,7.067 36.057,6.985 C36.418,6.716 36.79,6.463 37.173,6.227 C37.287,6.157 37.399,6.086 37.515,6.019 C37.737,5.89 37.963,5.767 38.191,5.65 C38.319,5.585 38.449,5.525 38.579,5.463 C38.945,5.289 39.318,5.13 39.697,4.985 C39.876,4.917 40.054,4.848 40.236,4.787 C40.438,4.719 40.643,4.655 40.849,4.596 C41.113,4.52 41.379,4.452 41.649,4.39 C41.832,4.348 42.016,4.306 42.201,4.271 C42.553,4.204 42.908,4.149 43.268,4.108 C43.399,4.093 43.531,4.079 43.663,4.068 C44.105,4.029 44.549,4 45,4 C45.456,4 45.905,4.028 46.35,4.068 C46.571,4.089 46.791,4.12 47.011,4.151 C47.139,4.168 47.266,4.189 47.393,4.209 C45.939,4.97 44.536,5.817 43.2,6.742 C41.901,7.641 40.936,8.423 40.085,9.112 C38.621,10.298 37.654,11.082 36.108,11.526 C34.808,11.899 33.431,11.95 31.925,11.673 C32.085,11.389 32.254,11.111 32.43,10.84 C32.437,10.831 32.442,10.821 32.448,10.812 z M4.267,19.315 C4.774,18.605 5.53,18.148 6.394,18.03 C6.54,18.009 6.686,18 6.831,18 C7.541,18 8.224,18.239 8.789,18.693 L32.352,37.636 C32.147,37.782 31.95,37.932 31.759,38.086 C31.752,38.091 31.745,38.096 31.738,38.102 L31.735,38.104 C31.735,38.104 31.735,38.104 31.735,38.104 L31.627,38.194 C31.606,38.209 31.58,38.215 31.56,38.232 C31.067,38.643 30.634,39.076 30.241,39.52 C30.222,39.541 30.2,39.562 30.181,39.584 C29.967,39.751 29.8,39.969 29.665,40.232 C29.611,40.304 29.553,40.375 29.502,40.448 L5.047,23.729 C4.346,23.249 3.879,22.524 3.731,21.687 C3.582,20.849 3.773,20.007 4.267,19.315 z" fill="#000000"/>
    <path d="M48,43.196 L48,45 L50,45 L50,43.558 C50.535,43.673 51.106,43.804 51.754,43.969 L52.246,42.031 C51.411,41.819 50.672,41.65 49.999,41.514 L49.999,39 L47.999,39 L47.999,41.18 C47.285,41.089 46.636,41.042 45.999,41.019 L45.999,39 L43.999,39 L43.999,41.018 C43.263,41.042 42.603,41.092 41.999,41.162 L41.999,39 L39.999,39 L39.999,41.491 C39.329,41.632 38.697,41.79 38.059,41.953 L37.753,42.031 L38.245,43.969 L38.553,43.891 C39.043,43.766 39.516,43.646 39.999,43.536 L39.999,45 L41.999,45 L41.999,43.178 C42.6,43.101 43.253,43.044 43.999,43.018 L43.999,45 L45.999,45 L45.999,43.02 C46.635,43.044 47.279,43.096 48,43.196 z" fill="#000000"/>
  </g>
</svg>
