<?xml version="1.0" encoding="UTF-8"?>
<!DOCTYPE svg PUBLIC "-//W3C//DTD SVG 1.1//EN" "http://www.w3.org/Graphics/SVG/1.1/DTD/svg11.dtd">
<svg version="1.1" xmlns="http://www.w3.org/2000/svg" xmlns:xlink="http://www.w3.org/1999/xlink" x="0" y="0" width="100" height="100" viewBox="0, 0, 100, 100">
  <g id="Layer_1">
    <path d="M5,76.108 C8.597,76.037 11.032,74.064 12.33,72.616 C13.652,74.091 16.145,76.122 19.854,76.122 C23.562,76.122 26.055,74.091 27.378,72.616 C28.701,74.091 31.194,76.122 34.902,76.122 C38.61,76.122 41.103,74.091 42.426,72.616 C43.748,74.091 46.241,76.122 49.951,76.122 C53.659,76.122 56.152,74.093 57.473,72.616 C58.795,74.093 61.29,76.122 64.998,76.122 C68.706,76.122 71.201,74.093 72.523,72.616 C73.844,74.093 76.337,76.122 80.045,76.122 C83.755,76.122 86.248,74.091 87.57,72.616 C88.882,74.078 91.345,76.08 94.997,76.115 L94.997,72.224 C90.933,72.167 88.778,68.667 88.691,68.524 C88.464,68.134 88.033,67.939 87.596,67.931 L87.568,67.88 L87.539,67.932 C87.104,67.942 86.674,68.138 86.447,68.526 C86.425,68.562 84.219,72.23 80.045,72.23 C75.893,72.23 73.664,68.557 73.645,68.527 C73.419,68.136 72.987,67.939 72.549,67.931 L72.52,67.88 L72.492,67.931 C72.055,67.942 71.626,68.136 71.399,68.526 C71.38,68.562 69.175,72.23 65,72.23 C60.87,72.23 58.684,68.668 58.596,68.524 C58.369,68.134 57.938,67.94 57.503,67.932 L57.472,67.88 L57.444,67.931 C57.006,67.942 56.575,68.139 56.351,68.527 C56.33,68.564 54.13,72.23 49.953,72.23 C45.803,72.23 43.569,68.557 43.55,68.524 C43.324,68.136 42.892,67.942 42.455,67.934 L42.425,67.88 L42.395,67.934 C41.959,67.942 41.529,68.136 41.307,68.523 C41.286,68.56 39.074,72.23 34.904,72.23 C30.755,72.23 28.522,68.557 28.502,68.524 C28.286,68.152 27.856,67.965 27.419,67.955 L27.38,67.888 L27.34,67.955 C26.903,67.966 26.474,68.152 26.26,68.52 C26.239,68.557 24.006,72.23 19.856,72.23 C15.701,72.23 13.475,68.56 13.454,68.524 C13.228,68.136 12.796,67.942 12.36,67.934 L12.33,67.88 L12.3,67.932 C11.864,67.942 11.433,68.136 11.212,68.523 C11.188,68.561 9.042,72.104 5,72.219 L5,76.108 z" fill="#000000"/>
    <path d="M77.724,42.293 C83.455,40.413 89.64,43.559 91.52,49.291 C93.413,55.033 90.15,60.109 84.413,61.983 C78.684,63.852 72.619,61.855 70.744,56.11 C68.857,50.364 71.981,44.171 77.724,42.293 z" fill="#000000"/>
    <path d="M20.071,67.148 C25.087,67.148 27.595,62.796 27.595,62.796 C27.595,62.796 30.103,67.148 35.119,67.148 C40.136,67.148 42.643,62.796 42.643,62.796 C42.643,62.796 45.151,67.148 50.168,67.148 C55.185,67.148 57.69,62.796 57.69,62.796 C57.69,62.796 60.199,67.148 65.215,67.148 C68.406,67.148 70.577,65.39 71.739,64.109 C71.073,62.495 67.733,54.678 66.873,53 C65.523,50.365 63.72,47.878 63.474,47.226 C62.881,45.64 63.7,44.169 64.567,42.04 C65.403,39.978 67.926,34.961 67.926,34.961 C67.926,34.961 85.198,35.773 86.349,35.716 C88.328,35.62 89.532,34.679 90.332,33.427 C91.819,31.109 91.274,27.752 88.862,26.149 C87.567,25.29 85.89,25.529 83.554,25.197 C83.554,25.197 66.455,24.015 63.324,23.881 C60.195,23.748 57.562,26.525 56.442,29.201 C55.323,31.877 47.293,49.832 47.293,49.832 L13.811,64.257 C13.811,64.257 14.946,66.257 18.125,66.913 C18.727,67.059 19.372,67.148 20.071,67.148 z" fill="#000000"/>
  </g>
</svg>
