<?xml version="1.0" encoding="UTF-8"?>
<!DOCTYPE svg PUBLIC "-//W3C//DTD SVG 1.1//EN" "http://www.w3.org/Graphics/SVG/1.1/DTD/svg11.dtd">
<svg version="1.1" xmlns="http://www.w3.org/2000/svg" xmlns:xlink="http://www.w3.org/1999/xlink" x="0" y="0" width="449.932" height="440.872" viewBox="0, 0, 449.932, 440.872">
  <g id="Layer_1">
    <path d="M45.794,-0 C38.628,-0 32.849,5.86 32.849,13.027 L32.849,131.152 C32.849,138.319 38.669,144.178 45.794,144.178 C53.002,144.178 58.82,138.319 58.82,131.152 L58.82,13.027 C58.82,5.86 52.961,-0 45.794,-0 z M404.137,-0 C396.93,-0 391.111,5.86 391.111,13.027 L391.111,131.152 C391.111,138.319 396.971,144.178 404.137,144.178 C411.304,144.178 417.083,138.319 417.083,131.152 L417.083,13.027 C417.083,5.86 411.304,-0 404.137,-0 z M12.945,24.919 C5.779,24.919 -0,30.78 -0,37.946 L-0,106.232 C-0,113.4 5.82,119.178 12.945,119.178 C20.153,119.178 25.971,113.4 25.971,106.232 L25.971,37.946 C25.971,30.78 20.112,24.919 12.945,24.919 z M436.986,24.919 C429.778,24.919 423.96,30.78 423.96,37.946 L423.96,106.232 C423.96,113.4 429.82,119.178 436.986,119.178 C444.153,119.178 449.932,113.4 449.932,106.232 L449.932,37.946 C449.932,30.78 444.153,24.919 436.986,24.919 z M153.078,46.118 C144.338,46.118 137.22,53.353 137.22,62.218 L137.22,63.676 L119.178,63.676 L62.785,63.676 L62.785,80.424 L119.178,80.424 L137.22,80.424 L137.22,131.721 C137.22,134.827 138.187,138.374 140.134,141.025 L184.471,201.949 L184.471,426.147 C184.471,434.266 190.955,440.872 199.116,440.872 L203.566,440.872 C211.685,440.872 218.21,434.308 218.21,426.147 L218.21,311.418 L229.376,311.418 L229.376,426.147 C229.376,434.266 235.859,440.872 244.02,440.872 L248.47,440.872 C256.589,440.872 263.195,434.308 263.195,426.147 L263.195,201.949 L307.371,141.025 C309.486,138.374 310.529,134.828 310.529,131.721 L310.529,80.424 L328.571,80.424 L384.965,80.424 L384.965,63.676 L328.571,63.676 L310.609,63.676 L310.609,62.218 C310.609,53.353 303.496,46.118 294.59,46.118 C285.725,46.118 278.57,53.353 278.57,62.218 L278.57,63.676 L169.02,63.676 L169.02,62.218 C169.02,53.353 161.946,46.118 153.081,46.118 z M169.098,80.423 L278.648,80.423 L278.648,126.622 L243.777,174.438 L203.97,174.438 L169.098,126.622 L169.098,80.423 z M223.873,91.264 C204.009,91.283 187.924,107.405 187.95,127.269 C187.969,147.101 204.041,163.173 223.873,163.192 C243.705,163.174 259.778,147.101 259.797,127.269 C259.823,107.405 243.737,91.282 223.873,91.264 z" fill="#000000"/>
  </g>
</svg>
