<svg xmlns="http://www.w3.org/2000/svg" xmlns:xlink="http://www.w3.org/1999/xlink" version="1.1" x="0px" y="0px" viewBox="0 0 100 100" enable-background="new 0 0 100 100" xml:space="preserve"><path d="M79.928,20.026c0,0-13.699-2.608-27.877-0.098L45.74,36.465c0,0-2.472-6.944-1.133-14.696  c-5.316,1.735-10.365,4.409-14.412,8.464C17.312,43.141,18.368,66.171,19.457,75.679c19.084-18.487,36.678-35.52,38.918-37.655  c5.116-4.88,7.139-4.283,7.139-4.283s0.594,2.022-4.283,7.139c-2.159,2.264-19.537,20.211-38.25,39.53  c6.205,0.808,21.274,2.017,34.211-2.813c-4.838-2.351-7.909-5.38-7.909-5.38l16.145,1.162c1.549-1.064,3.019-2.259,4.37-3.615  C86.32,53.213,79.928,20.026,79.928,20.026z"></path></svg>