<svg xmlns="http://www.w3.org/2000/svg" xmlns:xlink="http://www.w3.org/1999/xlink" version="1.1" x="0px" y="0px" viewBox="0 0 105 105" enable-background="new 0 0 105 105" xml:space="preserve"><g><path fill="#000000" d="M156.334-0.394c0.512-0.431,1.024-0.835,1.531-1.212C157.268-1.243,156.75-0.838,156.334-0.394z"></path><g><path fill="#000000" d="M58.693,23.049c-0.064,1.817-0.074,3.575-0.018,5.384c5.615,0.988,10.73,3.424,14.943,6.907L35.276,73.685    l0.002,0.003l-7.136,7.134c-4.623-5.584-7.399-12.755-7.399-20.574c0-7.793,2.761-14.94,7.355-20.523    c-0.991-1.403-2.133-2.82-3.438-4.165c-5.751,6.608-9.234,15.24-9.234,24.688c0,20.779,16.843,37.623,37.623,37.623    c2.543,0,5.027-0.256,7.43-0.737c-1.633-1.464-3.229-3.031-4.777-4.689c-0.875,0.074-1.762,0.108-2.656,0.108    c-7.823,0-14.996-2.778-20.584-7.407l1.913-1.915c-0.174-0.13-0.314-0.311-0.43-0.565c-0.258-0.565-0.102-1.25,0.372-1.654    c0.363-0.309,1.59-0.574,3.064-0.785l5.545-5.544v-0.003l5.412-5.411v0.002l8.833-8.835l0,0l6.104-6.103l0,0l14.67-14.668    c4.625,5.588,7.406,12.763,7.406,20.584c0,7.951-2.873,15.229-7.635,20.855c1.211,1.291,2.492,2.534,3.83,3.704    c5.684-6.59,9.123-15.172,9.123-24.56C90.666,41.391,76.793,25.773,58.693,23.049z"></path><path fill="#000000" d="M65.441,91.828c0.125,0.054,0.244,0.129,0.352,0.223c0.947,0.836,1.922,1.64,2.914,2.41    c2.691-1.232,5.211-2.773,7.514-4.576c-1.318-1.18-2.605-2.437-3.84-3.755c-2.301,1.719-4.838,3.14-7.551,4.204    C65.035,90.846,65.24,91.347,65.441,91.828z"></path><path fill="#000000" d="M36.262,26.572c0.249,1.986,0.508,3.87,0.764,5.618c1.418-0.813,2.906-1.519,4.446-2.111    c1.602-1.156,3.42-2.189,5.453-3.094c0.67-0.299,1.455-0.027,1.801,0.621c0.102,0.191,0.15,0.397,0.158,0.603    c0.826-0.105,1.662-0.182,2.506-0.225c-0.057-2.007-0.059-3.795-0.028-5.318C45.953,22.904,40.842,24.284,36.262,26.572z"></path><path fill="#000000" d="M66.885,76.788l-0.02-0.03c0,0,0.283,0.498,2.531-1.073c0.682-0.476,1.098-0.839,1.355-1.116    c-1.686-2.507-3.154-5.085-4.439-7.683c-0.258,0.265-0.752,0.628-1.684,1.134c-1.469,0.798-2.092,0.956-2.359,0.936    c0.148,0.303,0.307,0.597,0.461,0.896c-4.98-2.233-8.828-2.856-8.828-2.856c5.957,1.492,10.285,6.261,12.066,8.539    c0.264,0.418,0.541,0.822,0.811,1.232C66.818,76.767,66.854,76.775,66.885,76.788z"></path><path fill="#000000" d="M71.432,75.534c-0.271,0.271-0.705,0.629-1.402,1.1c-1.719,1.154-2.258,1.229-2.43,1.154    c-0.037-0.002-0.07-0.012-0.1-0.028c-0.006-0.003-0.016,0-0.021-0.003c1.457,2.144,2.756,3.855,4.416,5.762l-0.018-0.024    c0,0,0.33,0.479,2.479-1.336c0.652-0.55,1.045-0.959,1.275-1.266C74.01,79.062,72.779,77.487,71.432,75.534z"></path><path fill="#000000" d="M52.944,31.931c0.148,2.482,0.39,4.766,0.767,7.658c0.359,0.063,1.039,0.05,2.336-0.242    c1.285-0.289,1.85-0.575,2.088-0.793c-0.357-2.69-0.582-4.648-0.719-6.782c-0.361,0.138-1.02,0.254-2.197,0.279    C54.037,32.08,53.35,32.019,52.944,31.931z"></path><path fill="#000000" d="M76.408,81.779c-0.248,0.307-0.662,0.719-1.348,1.276c-1.525,1.247-2.104,1.445-2.324,1.423    c1.707,1.904,3.256,3.382,5.16,5.03c0.418,0.38,1.488-0.09,2.289-1.034c0.729-0.859,1.191-1.956,0.65-2.43    C79.156,84.592,77.855,83.367,76.408,81.779z"></path><path fill="#000000" d="M52.899,30.679c0.394,0.114,1.091,0.201,2.326,0.15c1.164-0.047,1.797-0.188,2.143-0.339    c-0.178-3.29-0.141-5.924-0.051-8.009c0,0-0.045-0.944-1.748-3.232c-2.653-3.555-2.549-1.859-2.549-1.859    C52.91,18.592,52.527,23.587,52.899,30.679z"></path><path fill="#000000" d="M58.846,43.234c-0.229-1.34-0.303-2.071-0.477-3.297c-0.295,0.199-0.895,0.438-2.08,0.684    c-1.332,0.277-2.014,0.311-2.361,0.265c0.158,1.151,0.215,1.784,0.422,2.986c0.262,1.547,0.559,3.068,0.881,4.567    c0.35,0.036,1.023-0.032,2.311-0.456c1.311-0.432,1.824-0.778,2.016-1.016C59.287,45.687,59.051,44.437,58.846,43.234z"></path><path fill="#000000" d="M36.888,81.924c7.396-1.099,15.718,4.803,15.718,4.803c0.328-0.151,0.875-0.544,1.765-1.5    c1.064-1.144,1.289-1.702,1.289-1.968c-2.484-3.189-4.341-5.967-6.167-9.081c-0.206,0.311-0.613,0.763-1.381,1.42    c-1.541,1.317-2.062,1.447-2.234,1.392c0.956,1.609,1.663,2.708,2.683,4.217C40.587,80.467,31.377,82.739,36.888,81.924z"></path><path fill="#000000" d="M43.801,63.081c-1.181-2.694-1.988-4.664-2.806-6.965c-0.23,0.278-0.732,0.678-1.746,1.251    c-1.332,0.747-1.977,0.958-2.286,0.976c0.883,2.437,1.766,4.538,3.036,7.372c0.289-0.009,0.916-0.201,2.237-1.159    C43.23,63.837,43.643,63.375,43.801,63.081z"></path><path fill="#000000" d="M64.211,92.508c0,0-7.66-18.271-6.027-22.664c0,0-1.9,0.454,1.709,18.392    c-1.299-1.401-2.135-2.329-3.283-3.772c-0.109,0.316-0.455,0.854-1.35,1.788c-0.961,0.996-1.498,1.398-1.803,1.543    c2.684,3.312,5.152,5.812,8.168,8.491c0.324-0.231,0.793-0.688,1.482-1.585C64.18,93.303,64.277,92.735,64.211,92.508z"></path><path fill="#000000" d="M40.511,54.675c-0.938-2.713-1.51-4.564-1.991-6.326c-0.267,0.248-0.858,0.584-2.102,1.011    c-1.094,0.378-1.768,0.531-2.181,0.572c0.552,1.997,1.22,4.124,2.293,7.137c0.353-0.036,1.005-0.244,2.197-0.941    C39.956,55.406,40.382,54.95,40.511,54.675z"></path><path fill="#000000" d="M72.076,98.572c-2.584-1.673-4.555-3.153-6.779-5.109c-0.016,0.293-0.268,0.883-1.211,2.074    c-0.703,0.886-1.168,1.356-1.477,1.599c2.439,2.121,4.551,3.67,7.186,5.364c0.307-0.274,0.736-0.786,1.33-1.732    C71.934,99.488,72.096,98.872,72.076,98.572z"></path><path fill="#000000" d="M33.207,45.832c0.135,0.6,0.364,1.574,0.705,2.853c0.419-0.027,1.085-0.165,2.157-0.553    c1.359-0.492,1.898-0.877,2.1-1.14c-0.178-0.677-0.316-1.241-0.419-1.678c-0.731-10.509,9.745-17.054,9.745-17.054    c-5.896,2.623-9.213,6.048-11.024,9.438C34.238,30.845,31.58,12.33,40.995,2.5C28.483,6.654,29.417,22.666,31.98,30.537    c-2.146-3.109-5.573-9.138-14.192-9.484c0.842-0.318,9.72,5.461,12.688,14.359c-7.38-7.16-16.144-7.971-16.144-7.971    C24.717,30.63,30.5,39.952,33.207,45.832z"></path><path fill="#000000" d="M40.556,66.924l1.145-1.145c-0.895,0.545-1.263,0.608-1.412,0.566    C40.375,66.536,40.468,66.731,40.556,66.924z"></path><path fill="#000000" d="M47.381,74.565c0.888-0.781,1.259-1.277,1.397-1.585c-0.332-0.578-0.648-1.147-0.959-1.714l-3.339,3.338    c0.253,0.447,0.508,0.891,0.767,1.333C45.523,75.914,46.124,75.677,47.381,74.565z"></path><path fill="#000000" d="M55.389,49.164c0.178,0.798,0.363,1.584,0.557,2.369l3.602-3.599c-0.313,0.204-0.857,0.453-1.818,0.75    C56.379,49.106,55.719,49.19,55.389,49.164z"></path><path fill="#000000" d="M64.051,66.866c0.957-0.538,1.428-0.926,1.656-1.199c-1.424-2.962-2.35-5.437-3.336-8.362    c-0.191,0.216-0.617,0.522-1.523,0.932l-2.191,2.193c0.98,2.72,1.813,4.839,3.023,7.342    C61.959,67.803,62.604,67.685,64.051,66.866z"></path></g></g></svg>