<?xml version="1.0" encoding="UTF-8"?>
<!DOCTYPE svg PUBLIC "-//W3C//DTD SVG 1.1//EN" "http://www.w3.org/Graphics/SVG/1.1/DTD/svg11.dtd">
<svg version="1.1" xmlns="http://www.w3.org/2000/svg" xmlns:xlink="http://www.w3.org/1999/xlink" x="0" y="0" width="100" height="100" viewBox="0, 0, 100, 100">
  <g id="Layer_1">
    <g>
      <path d="M93,46.1 L48,46.1 C47.4,47.1 46.3,47.3 45.2,47.3 C45,47.3 40.4,47.2 36,47.2 C35.8,47.6 35.7,48 35.7,48.4 C35.7,49.7 36.7,50.7 38,50.7 L63.2,50.7 L63.2,96.4 C63.2,97 63.7,97.4 64.2,97.4 L66.8,97.4 C67.4,97.4 67.8,96.9 67.8,96.4 L67.8,50.7 L93,50.7 C93.6,50.7 94.2,50.4 94.6,50 C95,49.6 95.3,49 95.3,48.4 C95.3,47.1 94.3,46.1 93,46.1 z" fill="#000000"/>
      <path d="M48.7,44.4 C48.7,44.6 48.6,44.7 48.6,44.9 L55.1,44.9 C55.7,44.9 56.2,44.6 56.5,44.1 L57.3,43 C57.6,42.5 57.3,41.8 56.7,41.8 L48.4,41.8 C48.8,42.7 48.8,43.6 48.7,44.4 z" fill="#000000"/>
      <path d="M46.1,39.6 C46.2,39.8 46.3,39.9 46.3,39.9 C46.4,40 46.6,40.1 46.7,40 C46.9,39.9 47,39.7 46.9,39.5 L46.9,39.5 C46.9,39.5 46.9,39.4 46.8,39.2 C46.7,39 46.6,38.8 46.6,38.5 C46.5,38.2 46.5,37.9 46.6,37.5 C46.7,37.1 46.8,36.7 47,36.3 C47.2,35.9 47.4,35.5 47.5,35 C47.6,34.5 47.6,34 47.5,33.6 C47.4,33.2 47.3,32.9 47.1,32.7 C47,32.5 46.9,32.4 46.9,32.4 C46.8,32.3 46.6,32.3 46.5,32.3 C46.3,32.4 46.3,32.6 46.4,32.8 L46.4,32.8 C46.4,32.8 46.4,32.9 46.5,33 C46.6,33.2 46.6,33.4 46.7,33.7 C46.7,34 46.7,34.3 46.6,34.7 C46.5,35 46.3,35.5 46.1,35.9 C45.9,36.3 45.7,36.8 45.7,37.4 C45.6,37.9 45.7,38.4 45.8,38.8 C45.9,39.2 46,39.5 46.1,39.6 z" fill="#000000"/>
      <path d="M48.2,39.6 C48.3,39.8 48.4,39.9 48.4,39.9 C48.5,40 48.7,40.1 48.8,40 C49,39.9 49.1,39.7 49,39.5 L49,39.5 C49,39.5 49,39.4 48.9,39.2 C48.8,39 48.7,38.8 48.7,38.5 C48.6,38.2 48.6,37.9 48.7,37.5 C48.8,37.1 48.9,36.7 49.1,36.3 C49.3,35.9 49.5,35.5 49.6,35 C49.7,34.5 49.7,34 49.6,33.6 C49.5,33.2 49.4,32.9 49.2,32.7 C49.1,32.5 49,32.4 49,32.4 C48.9,32.3 48.7,32.3 48.6,32.3 C48.4,32.4 48.4,32.6 48.5,32.8 L48.5,32.8 C48.5,32.8 48.5,32.9 48.6,33 C48.7,33.2 48.7,33.4 48.8,33.7 C48.8,34 48.8,34.3 48.7,34.7 C48.6,35 48.4,35.5 48.2,35.9 C48,36.3 47.8,36.8 47.8,37.4 C47.7,37.9 47.8,38.4 47.9,38.8 C47.9,39.2 48.1,39.5 48.2,39.6 z" fill="#000000"/>
      <path d="M50.2,39.6 C50.3,39.8 50.4,39.9 50.4,39.9 C50.5,40 50.7,40.1 50.8,40 C51,39.9 51.1,39.7 51,39.5 L51,39.5 C51,39.5 51,39.4 50.9,39.2 C50.8,39 50.7,38.8 50.7,38.5 C50.6,38.2 50.6,37.9 50.7,37.5 C50.8,37.1 50.9,36.7 51.1,36.3 C51.3,35.9 51.5,35.5 51.6,35 C51.7,34.5 51.7,34 51.6,33.6 C51.5,33.2 51.4,32.9 51.2,32.7 C51.1,32.5 51,32.4 51,32.4 C50.9,32.3 50.7,32.3 50.6,32.3 C50.4,32.4 50.4,32.6 50.5,32.8 L50.5,32.8 C50.5,32.8 50.5,32.9 50.6,33 C50.7,33.2 50.7,33.4 50.8,33.7 C50.8,34 50.8,34.3 50.7,34.7 C50.6,35 50.4,35.5 50.2,35.9 C50,36.3 49.8,36.8 49.8,37.4 C49.7,37.9 49.8,38.4 49.9,38.8 C49.9,39.2 50.1,39.5 50.2,39.6 z" fill="#000000"/>
      <path d="M47.3,57.5 C47.2,56.1 46.2,54.9 44.8,54.7 L30.7,52.9 C30.5,50.8 30.2,48.8 30.2,47.1 C29.1,47.1 28.3,47.1 28.2,47.1 L28.1,47.1 L28,47.1 C26.2,46.9 24.7,45.5 24.4,43.8 L21,29.6 C20.5,27.1 22.6,24.9 24.8,24.5 C25.2,24.4 25.5,24.4 25.9,24.4 C28,24.4 29.6,25.6 30,27.4 L30,27.5 L31.4,38.4 C32.2,34.8 33.1,31.2 33.7,28.9 C34.4,26.4 34.3,25.8 33.2,23.5 C33,23.2 32.9,22.8 32.7,22.5 C32.3,22.6 31.9,22.6 31.5,22.6 C28.6,22.6 25.8,21.5 23.8,19.5 C23.6,19.6 23.3,19.6 23.1,19.7 C14.4,22.2 12.4,29.2 12.1,36.3 C11.9,41.5 12.2,50.2 13.1,56 C13.1,58.9 14.1,62.4 16.2,63.4 C19.3,64.9 37.9,64 37.9,64 C41,90.9 41,90.5 41.2,93 C41.4,95.1 41.7,97.8 45.5,97.4 C49.1,97 49.1,94.8 48.9,92 C48.5,89.8 47.6,65.4 47.3,57.5 z" fill="#000000"/>
      <path d="M33.5,66.2 C29.1,66.4 16.8,66.5 12.3,64.5 C10.3,62 9.4,45.4 9.8,31.2 C9.8,29.8 8.7,28.6 7.3,28.6 C5.9,28.6 4.7,29.7 4.7,31.1 C4.7,31.2 4.5,39.6 4.9,48.2 C5.6,65.5 7.9,68 10,69 C14.3,71 22.9,71.4 28.5,71.4 C31.2,71.4 33.2,71.3 33.8,71.3 C35.2,71.2 36.3,70 36.2,68.6 C36.1,67.2 34.9,66.1 33.5,66.2 z" fill="#000000"/>
      <path d="M40.5,11.6 C40.5,16.626 36.426,20.7 31.4,20.7 C26.374,20.7 22.3,16.626 22.3,11.6 C22.3,6.574 26.374,2.5 31.4,2.5 C36.426,2.5 40.5,6.574 40.5,11.6 z" fill="#000000"/>
      <path d="M45.6,41.6 L30.3,40.2 L28.7,27.7 C28.3,26 26.6,25.4 24.9,25.7 C23.2,26 21.7,27.8 22.1,29.4 L25.5,43.5 C25.8,44.8 26.8,45.7 28.1,45.9 C28.1,45.9 45.1,46.1 45.2,46.1 C46.7,46.1 47.2,45.7 47.4,44.2 C47.7,42.6 47.3,41.8 45.6,41.6 z" fill="#000000"/>
    </g>
  </g>
</svg>
