<?xml version="1.0" encoding="UTF-8"?>
<!DOCTYPE svg PUBLIC "-//W3C//DTD SVG 1.1//EN" "http://www.w3.org/Graphics/SVG/1.1/DTD/svg11.dtd">
<svg version="1.1" xmlns="http://www.w3.org/2000/svg" xmlns:xlink="http://www.w3.org/1999/xlink" x="0" y="0" width="100" height="100" viewBox="0, 0, 100, 100">
  <g id="Layer_1">
    <path d="M88.524,71.84 C87.7,71.84 86.648,71.47 86.32,69.705 L86.305,69.545 L86.305,54.54 L84.545,54.54 L84.545,32.276 C84.545,29.729 86.279,28.569 87.892,28.569 C89.505,28.569 91.241,29.729 91.241,32.276 L91.241,69.545 C91.241,71.098 90.154,71.805 89.144,71.805 C89.085,71.805 89.021,71.812 88.951,71.818 C88.816,71.829 88.673,71.84 88.524,71.84 z M88.06,69.46 C88.188,70.086 88.352,70.086 88.525,70.086 C88.622,70.086 88.716,70.077 88.804,70.069 C88.927,70.059 89.042,70.05 89.145,70.05 C89.282,70.05 89.488,70.05 89.488,69.544 L89.488,32.276 C89.488,30.836 88.664,30.323 87.893,30.323 C87.123,30.323 86.3,30.836 86.3,32.276 L86.3,52.786 L88.06,52.786 L88.06,69.46 z" fill="#000000"/>
    <g>
      <g>
        <path d="M19.104,43.603 L19.104,30.042 C19.104,29.642 18.816,29.318 18.46,29.318 C18.107,29.318 17.82,29.642 17.82,30.042 L17.82,43.603 C17.82,44.56 17.009,45.678 15.961,45.678 L15.319,45.678 L15.319,69.216 C15.319,70.394 14.662,70.922 14.007,70.922 C13.355,70.922 12.697,70.394 12.697,69.216 L12.697,45.678 L12.052,45.678 C11.093,45.678 10.12,44.9 10.12,43.411 L10.12,30.042 C10.12,29.642 9.833,29.318 9.48,29.318 C9.126,29.318 8.838,29.642 8.838,30.042 L8.838,43.411 C8.838,45.129 9.788,46.571 11.202,47.001 L11.41,47.064 L11.41,47.306 L11.41,69.216 C11.41,71.286 12.716,72.371 14.006,72.371 C15.295,72.371 16.603,71.286 16.603,69.216 L16.603,47.294 L16.603,47.057 L16.802,46.99 C18.298,46.499 19.104,44.879 19.104,43.603 z" fill="#000000"/>
        <path d="M19.104,43.603 L19.104,30.042 C19.104,29.642 18.816,29.318 18.46,29.318 C18.107,29.318 17.82,29.642 17.82,30.042 L17.82,43.603 C17.82,44.56 17.009,45.678 15.961,45.678 L15.319,45.678 L15.319,69.216 C15.319,70.394 14.662,70.922 14.007,70.922 C13.355,70.922 12.697,70.394 12.697,69.216 L12.697,45.678 L12.052,45.678 C11.093,45.678 10.12,44.9 10.12,43.411 L10.12,30.042 C10.12,29.642 9.833,29.318 9.48,29.318 C9.126,29.318 8.838,29.642 8.838,30.042 L8.838,43.411 C8.838,45.129 9.788,46.571 11.202,47.001 L11.41,47.064 L11.41,47.306 L11.41,69.216 C11.41,71.286 12.716,72.371 14.006,72.371 C15.295,72.371 16.603,71.286 16.603,69.216 L16.603,47.294 L16.603,47.057 L16.802,46.99 C18.298,46.499 19.104,44.879 19.104,43.603 z" fill-opacity="0" stroke="#010101" stroke-width="0.241" stroke-miterlimit="10"/>
      </g>
      <g>
        <path d="M12.417,29.318 C12.063,29.318 11.775,29.642 11.775,30.042 L11.775,43.19 C11.775,43.587 12.063,43.913 12.417,43.913 C12.771,43.913 13.06,43.587 13.06,43.19 L13.06,30.042 C13.06,29.642 12.771,29.318 12.417,29.318 z" fill="#000000"/>
        <path d="M12.417,29.318 C12.063,29.318 11.775,29.642 11.775,30.042 L11.775,43.19 C11.775,43.587 12.063,43.913 12.417,43.913 C12.771,43.913 13.06,43.587 13.06,43.19 L13.06,30.042 C13.06,29.642 12.771,29.318 12.417,29.318 z" fill-opacity="0" stroke="#010101" stroke-width="0.241" stroke-miterlimit="10"/>
      </g>
      <g>
        <path d="M15.574,29.318 C15.221,29.318 14.934,29.642 14.934,30.042 L14.934,43.19 C14.934,43.587 15.221,43.913 15.574,43.913 C15.928,43.913 16.219,43.587 16.219,43.19 L16.219,30.042 C16.219,29.642 15.929,29.318 15.574,29.318 z" fill="#000000"/>
        <path d="M15.574,29.318 C15.221,29.318 14.934,29.642 14.934,30.042 L14.934,43.19 C14.934,43.587 15.221,43.913 15.574,43.913 C15.928,43.913 16.219,43.587 16.219,43.19 L16.219,30.042 C16.219,29.642 15.929,29.318 15.574,29.318 z" fill-opacity="0" stroke="#010101" stroke-width="0.241" stroke-miterlimit="10"/>
      </g>
    </g>
    <path d="M51.324,76.994 C44.523,76.994 38.002,74.47 32.962,69.887 C32.869,69.804 32.814,69.745 32.755,69.684 L32.664,69.592 L33.871,68.319 C33.939,68.384 33.986,68.433 34.03,68.48 C34.058,68.51 34.085,68.539 34.131,68.58 L33.548,69.235 L34.138,68.587 C38.855,72.878 44.958,75.241 51.324,75.241 C65.42,75.241 76.887,63.773 76.887,49.677 C76.887,43.261 74.492,37.124 70.145,32.396 L69.937,32.173 L71.234,30.991 L71.434,31.206 L70.79,31.8 L71.436,31.206 C76.082,36.259 78.642,42.818 78.642,49.676 C78.642,64.739 66.387,76.994 51.324,76.994 z M51.324,73.493 C45.512,73.493 39.907,71.368 35.545,67.509 L36.707,66.195 C40.749,69.771 45.939,71.74 51.324,71.74 C63.49,71.74 73.387,61.843 73.387,49.677 C73.387,44.113 71.304,38.798 67.522,34.709 L68.809,33.518 C72.892,37.932 75.141,43.67 75.141,49.677 C75.142,62.809 64.457,73.493 51.324,73.493 z M30.796,67.697 L30.594,67.452 C26.343,62.504 24.002,56.19 24.002,49.676 C24.002,34.611 36.258,22.355 51.323,22.355 C57.84,22.355 64.156,24.698 69.107,28.954 L68.536,29.619 L69.13,28.973 L69.419,29.225 L68.247,30.531 L68.069,30.374 C68.042,30.352 67.999,30.316 67.954,30.276 C63.322,26.299 57.416,24.109 51.323,24.109 C37.225,24.109 25.756,35.578 25.756,49.676 C25.756,55.773 27.947,61.681 31.926,66.312 L31.26,66.884 L31.928,66.314 L32.125,66.553 L30.796,67.697 z M51.324,66.795 C47.194,66.795 43.202,65.299 40.085,62.583 L41.237,61.261 C44.034,63.699 47.616,65.041 51.323,65.041 C59.796,65.041 66.688,58.148 66.688,49.676 C66.688,45.904 65.3,42.271 62.782,39.448 L64.091,38.28 C66.898,41.425 68.443,45.472 68.443,49.676 C68.443,59.115 60.764,66.795 51.324,66.795 z M33.006,64.887 C29.457,60.622 27.503,55.22 27.503,49.676 C27.503,36.541 38.19,25.854 51.325,25.854 C51.327,25.854 51.329,25.854 51.331,25.854 C57.004,25.854 62.502,27.892 66.814,31.593 L67.324,30.989 L67.404,31.06 L66.283,32.41 L66.811,31.707 L66.193,32.33 L66.762,31.655 L65.672,32.925 C61.677,29.497 56.584,27.609 51.33,27.609 C51.328,27.609 51.326,27.609 51.324,27.609 C39.156,27.609 29.256,37.508 29.256,49.677 C29.256,54.812 31.067,59.816 34.354,63.767 L33.006,64.887 z M51.324,63.738 C48.04,63.738 44.842,62.577 42.318,60.468 L43.442,59.122 C45.651,60.967 48.45,61.983 51.324,61.983 C58.111,61.983 63.633,56.462 63.633,49.674 C63.633,46.542 62.545,43.702 60.487,41.463 L61.778,40.276 C64.139,42.845 65.387,46.095 65.387,49.674 C65.387,57.43 59.078,63.738 51.324,63.738 z M37.295,61.061 C37.23,60.984 37.167,60.906 37.105,60.825 L37.868,60.247 C35.47,57.202 34.202,53.547 34.202,49.677 C34.202,40.236 41.883,32.554 51.324,32.554 C55.209,32.554 59.015,33.897 62.044,36.335 L60.944,37.701 C58.226,35.513 54.809,34.308 51.324,34.308 C42.85,34.308 35.956,41.203 35.956,49.677 C35.956,53.151 37.094,56.431 39.247,59.163 L37.938,60.194 L38.503,59.766 C38.545,59.822 38.588,59.874 38.632,59.926 L37.295,61.061 z M40.132,58.185 C38.254,55.716 37.262,52.774 37.262,49.676 C37.262,41.921 43.57,35.613 51.324,35.613 C54.494,35.613 57.489,36.647 59.986,38.603 L58.904,39.984 C56.719,38.272 54.098,37.367 51.324,37.367 C44.537,37.367 39.016,42.889 39.016,49.677 C39.016,52.388 39.885,54.963 41.528,57.123 L40.132,58.185 z" fill="#000000"/>
    <path d="M31.125,67.938 L29.893,66.689 L68.709,28.683 L70,29.688 z" fill="#000000"/>
    <path d="M33.438,70.375 L32.19,69.143 L70.688,30.375 L71.875,31.688 z" fill="#000000"/>
  </g>
</svg>
