<?xml version="1.0" encoding="UTF-8"?>
<!DOCTYPE svg PUBLIC "-//W3C//DTD SVG 1.1//EN" "http://www.w3.org/Graphics/SVG/1.1/DTD/svg11.dtd">
<svg version="1.1" xmlns="http://www.w3.org/2000/svg" xmlns:xlink="http://www.w3.org/1999/xlink" x="0" y="0" width="109" height="109" viewBox="0, 0, 109, 109">
  <g id="Layer_1">
    <path d="M39.389,69.377 C40.358,70.344 40.358,71.913 39.389,72.883 L37.98,74.291 L37.98,77.385 C37.98,78.043 37.719,78.675 37.254,79.138 L32.818,83.573 C32.42,83.972 32.099,84.193 31.541,84.254 C31.002,84.417 31.002,85.116 31.002,85.38 L31.002,93.156 C31.002,94.526 29.892,95.635 28.522,95.635 L16.811,95.635 C15.441,95.635 14.331,94.526 14.331,93.156 L14.331,85.195 L11.719,82.582 C11.254,82.118 10.993,81.487 10.993,80.829 L10.993,74.629 C10.993,74.594 11.002,74.558 11.004,74.521 L10.032,68.451 C9.894,67.589 10.22,66.716 10.888,66.158 L11.768,65.421 L11.768,60.349 C11.768,59.691 12.028,59.06 12.494,58.596 L17.619,53.47 C18.588,52.502 20.159,52.502 21.128,53.47 C22.096,54.44 22.096,56.011 21.128,56.979 L18.638,59.467 C18.624,59.467 18.61,59.463 18.596,59.463 C17.783,59.463 16.991,59.751 16.369,60.274 L15.686,62.14 L17.005,61.034 C18.055,60.155 19.62,60.294 20.499,61.343 C21.379,62.392 21.241,63.956 20.191,64.835 L15.616,68.668 C14.861,68.755 14.134,69.063 13.579,69.614 L13,71.595 L14.281,70.313 C15.25,69.346 16.82,69.346 17.789,70.313 C18.757,71.281 18.757,72.852 17.789,73.821 L15.953,75.657 L15.953,78.758 L16.945,77.305 L16.945,76.067 L18.491,74.521 C18.644,74.368 18.774,74.202 18.891,74.031 C18.926,73.981 18.956,73.927 18.989,73.873 C19.068,73.745 19.139,73.609 19.2,73.471 C19.223,73.417 19.249,73.363 19.271,73.307 C19.342,73.119 19.403,72.93 19.44,72.735 C19.44,72.732 19.44,72.73 19.441,72.728 C19.479,72.532 19.494,72.333 19.498,72.133 C19.498,72.071 19.495,72.011 19.493,71.953 C19.488,71.807 19.474,71.662 19.451,71.517 C19.441,71.457 19.433,71.396 19.42,71.335 C19.38,71.144 19.327,70.957 19.254,70.774 C19.252,70.768 19.251,70.763 19.249,70.755 C19.079,70.338 18.827,69.946 18.488,69.608 C18.082,69.203 17.594,68.912 17.061,68.748 L20.279,66.05 L22.406,66.05 C23.326,66.05 24.072,65.304 24.072,64.385 C24.072,64.378 24.073,64.378 24.073,64.371 L24.073,62.87 C24.073,62.212 24.334,61.581 24.8,61.117 L29.31,56.606 C29.513,56.403 29.751,56.236 30.011,56.115 L32.351,55.017 C33.588,54.433 35.067,54.969 35.649,56.208 C36.231,57.45 35.696,58.926 34.456,59.507 L32.51,60.42 L29.033,63.895 L29.033,72.784 L30.89,74.642 L33.019,74.642 L33.019,73.265 C33.019,72.607 33.28,71.976 33.745,71.512 L35.88,69.379 C36.85,68.408 38.42,68.408 39.389,69.377 z M43.43,55.58 C40.289,55.58 37.743,58.126 37.743,61.267 C37.743,64.406 40.289,66.953 43.43,66.953 C46.57,66.953 49.116,64.407 49.116,61.267 C49.116,58.126 46.57,55.58 43.43,55.58 z M90.075,65.321 L90.075,54.936 C95.232,50.621 98.515,44.138 98.515,36.889 C98.515,23.896 87.983,13.365 74.991,13.365 C62,13.365 51.468,23.896 51.468,36.889 L51.468,41.529 L46.286,50.079 L46.292,50.088 C46.058,50.496 45.914,50.96 45.914,51.463 C45.914,52.996 47.158,54.24 48.691,54.24 L51.467,54.24 L51.467,55.932 L63.522,55.932 C66.046,55.932 68.094,57.98 68.094,60.506 C68.094,63.031 66.046,65.078 63.522,65.078 L51.468,65.078 L51.468,65.878 C51.468,71.14 55.734,75.408 60.996,75.408 L65.195,75.408 L65.195,85.81 C65.195,85.814 65.194,85.818 65.194,85.821 C65.194,85.825 65.195,85.829 65.195,85.832 C65.201,87.117 66.244,88.158 67.53,88.158 C67.965,88.158 68.367,88.033 68.717,87.825 L68.857,87.743 L88.969,76.053 L89.069,75.995 C89.658,75.59 90.046,74.922 90.077,74.163 C90.077,74.131 90.086,74.101 90.086,74.068 C90.086,74.035 90.077,74.006 90.077,73.974 L90.077,65.879 L90.077,65.321 z" fill="#010100"/>
  </g>
</svg>
