<?xml version="1.0" encoding="UTF-8"?>
<!DOCTYPE svg PUBLIC "-//W3C//DTD SVG 1.1//EN" "http://www.w3.org/Graphics/SVG/1.1/DTD/svg11.dtd">
<svg version="1.1" xmlns="http://www.w3.org/2000/svg" xmlns:xlink="http://www.w3.org/1999/xlink" x="0" y="0" width="100" height="100" viewBox="0, 0, 100, 100">
  <g id="Layer_2">
    <g>
      <path d="M48.457,22.866 C52.321,23.527 56.17,21.611 57.97,18.128 C59.771,14.645 59.11,10.397 56.335,7.626 C53.561,4.856 49.312,4.2 45.831,6.006 C42.351,7.811 40.44,11.662 41.107,15.526 C41.755,19.282 44.7,22.222 48.457,22.866 z" fill="#000000"/>
      <path d="M70.037,60.276 C69.327,56.086 66.597,39.466 65.637,34.276 C65.556,33.801 65.439,33.333 65.287,32.876 C63.987,29.466 60.837,26.096 56.987,26.096 L42.987,26.096 C39.137,26.096 35.987,29.476 34.687,32.876 C34.534,33.332 34.417,33.801 34.337,34.276 C33.337,39.466 30.647,56.076 29.937,60.276 C29.694,61.589 30.471,62.878 31.747,63.276 C32.426,63.461 33.152,63.353 33.749,62.979 C34.345,62.605 34.758,61.998 34.887,61.306 L34.887,61.306 L38.967,37.106 L38.967,37.106 C38.974,36.793 39.197,36.528 39.503,36.466 C39.809,36.403 40.118,36.561 40.247,36.846 L40.247,37.436 L34.427,72.555 C34.356,72.971 34.472,73.396 34.744,73.718 C35.016,74.04 35.415,74.226 35.837,74.225 L40.247,74.225 L40.247,91.455 C40.247,92.4 40.623,93.306 41.294,93.973 C41.964,94.639 42.872,95.011 43.817,95.005 L45.277,95.005 C47.188,95.005 48.737,93.456 48.737,91.545 L48.737,74.225 L51.247,74.225 L51.247,91.545 C51.247,93.452 52.79,95 54.697,95.005 L56.157,95.005 C58.109,95 59.691,93.418 59.697,91.465 L59.697,74.245 L64.087,74.245 C64.518,74.245 64.928,74.056 65.208,73.726 C65.487,73.397 65.607,72.961 65.537,72.535 L59.697,37.536 L59.697,36.946 C59.826,36.661 60.134,36.503 60.44,36.566 C60.746,36.628 60.969,36.893 60.977,37.206 L60.977,37.206 L65.077,61.416 L65.077,61.416 C65.199,62.111 65.607,62.724 66.202,63.104 C66.797,63.484 67.524,63.597 68.207,63.416 C69.555,63.022 70.359,61.642 70.037,60.276 z" fill="#000000"/>
    </g>
  </g>
</svg>
