<?xml version="1.0" encoding="UTF-8"?>
<!DOCTYPE svg PUBLIC "-//W3C//DTD SVG 1.1//EN" "http://www.w3.org/Graphics/SVG/1.1/DTD/svg11.dtd">
<svg version="1.1" xmlns="http://www.w3.org/2000/svg" xmlns:xlink="http://www.w3.org/1999/xlink" x="0" y="0" width="100" height="100" viewBox="0, 0, 100, 100">
  <g id="Layer_1">
    <path d="M50,20.7 C54.4,20.7 57.9,17.2 57.9,12.8 C57.9,8.4 54.4,4.9 50,4.9 C45.6,4.9 42.1,8.4 42.1,12.8 C42.1,17.2 45.6,20.7 50,20.7 z M58.7,21.8 L41.3,21.8 C36,21.8 31.6,26.2 31.6,31.5 L31.6,52.7 C31.6,54.8 33.3,56.5 35.4,56.5 C37.5,56.5 39.2,54.8 39.2,52.7 L39.2,33.4 C39.2,33.1 39.4,32.9 39.7,32.9 C40,32.9 40.2,33.1 40.2,33.4 L40.2,33.5 L40.2,33.5 L40.2,90.8 C40.2,93.2 42.1,95.1 44.5,95.1 L44.9,95.1 C47.3,95.1 49.2,93.2 49.2,90.8 L49.2,61.4 C49.2,61 49.6,60.6 50,60.6 L50,60.6 C50.4,60.6 50.8,61 50.8,61.4 L50.8,61.4 L50.8,61.4 L50.8,90.8 C50.8,93.2 52.7,95.1 55.1,95.1 L55.5,95.1 C57.9,95.1 59.8,93.2 59.8,90.8 L59.8,33.4 C59.8,33.1 60,32.9 60.3,32.9 C60.6,32.9 60.8,33.1 60.8,33.4 L60.8,33.5 L60.8,33.5 L60.8,52.6 C60.8,54.7 62.5,56.4 64.6,56.4 C66.7,56.4 68.4,54.7 68.4,52.6 L68.4,31.5 C68.3,26.1 64,21.8 58.7,21.8 z" fill="#000000"/>
  </g>
</svg>
