<?xml version="1.0" encoding="UTF-8"?>
<!DOCTYPE svg PUBLIC "-//W3C//DTD SVG 1.1//EN" "http://www.w3.org/Graphics/SVG/1.1/DTD/svg11.dtd">
<svg version="1.1" xmlns="http://www.w3.org/2000/svg" xmlns:xlink="http://www.w3.org/1999/xlink" x="0" y="0" width="64" height="64" viewBox="0, 0, 64, 64">
  <g id="Layer_2">
    <g>
      <path d="M51.102,40.225 C48.762,35.295 46.552,30.645 48.372,20.125 C48.375,20.088 48.375,20.052 48.372,20.015 C50.764,18.713 52.41,16.367 52.822,13.675 C52.864,13.203 52.53,12.781 52.061,12.714 C51.591,12.647 51.152,12.96 51.062,13.425 C50.452,17.209 46.913,19.798 43.122,19.235 C42.636,19.16 42.181,19.494 42.107,19.98 C42.032,20.466 42.366,20.92 42.852,20.995 C43.295,21.062 43.743,21.096 44.192,21.095 C44.958,21.096 45.722,20.995 46.462,20.795 C44.852,31.205 47.212,36.175 49.462,40.985 C51.044,43.977 52.144,47.2 52.722,50.535 C52.786,50.971 53.161,51.295 53.602,51.295 L53.732,51.295 C54.213,51.223 54.547,50.777 54.482,50.295 C53.896,46.781 52.755,43.381 51.102,40.225 z" fill="#000000"/>
      <path d="M34.562,46.425 C34.562,47.242 33.899,47.905 33.082,47.905 C32.264,47.905 31.602,47.242 31.602,46.425 C31.602,45.608 32.264,44.945 33.082,44.945 C33.899,44.945 34.562,45.608 34.562,46.425 z" fill="#000000"/>
      <path d="M46.912,14.455 C46.912,15.272 46.249,15.935 45.432,15.935 C44.614,15.935 43.952,15.272 43.952,14.455 C43.952,13.638 44.614,12.975 45.432,12.975 C46.249,12.975 46.912,13.638 46.912,14.455 z" fill="#000000"/>
      <path d="M20.212,14.455 C20.212,15.272 19.549,15.935 18.732,15.935 C17.914,15.935 17.252,15.272 17.252,14.455 C17.252,13.638 17.914,12.975 18.732,12.975 C19.549,12.975 20.212,13.638 20.212,14.455 z" fill="#000000"/>
      <path d="M52.722,25.465 C52.94,25.02 52.756,24.483 52.312,24.265 C51.867,24.047 51.33,24.23 51.112,24.675 L49.762,27.575 C49.556,28.02 49.748,28.547 50.192,28.755 L53.092,30.105 C53.529,30.274 54.022,30.076 54.22,29.651 C54.418,29.226 54.253,28.721 53.842,28.495 L52.842,28.045 L56.972,26.545 C57.285,26.447 57.519,26.185 57.581,25.863 C57.643,25.541 57.522,25.21 57.267,25.004 C57.012,24.797 56.664,24.748 56.362,24.875 L52.232,26.375 z" fill="#000000"/>
      <path d="M55.692,34.015 C55.852,33.724 55.836,33.368 55.652,33.092 C55.467,32.816 55.144,32.666 54.814,32.702 C54.484,32.738 54.202,32.955 54.082,33.265 L52.732,36.165 C52.526,36.61 52.718,37.137 53.162,37.345 L56.062,38.675 C56.353,38.835 56.709,38.819 56.985,38.635 C57.261,38.45 57.411,38.127 57.375,37.797 C57.338,37.467 57.121,37.185 56.812,37.065 L55.812,36.615 L59.942,35.115 C60.255,35.017 60.489,34.755 60.551,34.433 C60.613,34.111 60.492,33.78 60.237,33.574 C59.982,33.367 59.634,33.318 59.332,33.445 L55.202,34.945 z" fill="#000000"/>
      <path d="M58.622,42.555 C58.791,42.118 58.593,41.624 58.168,41.426 C57.743,41.229 57.237,41.394 57.012,41.805 L55.702,44.675 C55.496,45.12 55.688,45.647 56.132,45.855 L59.032,47.205 C59.469,47.374 59.962,47.176 60.16,46.751 C60.358,46.326 60.193,45.821 59.782,45.595 L58.782,45.145 L62.952,43.675 C63.265,43.577 63.499,43.315 63.561,42.993 C63.623,42.671 63.502,42.34 63.247,42.134 C62.992,41.927 62.644,41.878 62.342,42.005 L58.212,43.505 z" fill="#000000"/>
      <path d="M21.042,19.235 C17.247,19.804 13.702,17.213 13.092,13.425 C12.976,12.989 12.552,12.708 12.106,12.772 C11.659,12.836 11.331,13.224 11.342,13.675 C11.76,16.354 13.401,18.686 15.782,19.985 C15.78,20.022 15.78,20.058 15.782,20.095 C17.622,30.675 15.392,35.295 13.062,40.225 C11.389,43.371 10.228,46.764 9.622,50.275 C9.556,50.757 9.89,51.203 10.372,51.275 L10.502,51.275 C10.943,51.275 11.317,50.951 11.382,50.515 C11.954,47.188 13.048,43.972 14.622,40.985 C16.902,36.175 19.262,31.195 17.622,20.795 C18.362,20.995 19.125,21.096 19.892,21.095 C20.34,21.096 20.788,21.062 21.232,20.995 C21.718,20.92 22.051,20.466 21.977,19.98 C21.902,19.494 21.448,19.16 20.962,19.235 z" fill="#000000"/>
      <path d="M7.102,41.805 C6.876,41.394 6.371,41.229 5.946,41.426 C5.521,41.624 5.322,42.118 5.492,42.555 L5.942,43.555 L1.812,42.055 C1.507,41.848 1.106,41.851 0.804,42.062 C0.502,42.272 0.36,42.647 0.449,43.005 C0.537,43.363 0.836,43.629 1.202,43.675 L5.332,45.175 L4.332,45.625 C4.022,45.745 3.805,46.027 3.769,46.357 C3.733,46.687 3.883,47.01 4.159,47.195 C4.435,47.379 4.791,47.395 5.082,47.235 L7.982,45.885 C8.21,45.793 8.39,45.611 8.479,45.382 C8.568,45.153 8.558,44.897 8.452,44.675 z" fill="#000000"/>
      <path d="M10.082,33.265 C9.856,32.854 9.351,32.689 8.926,32.886 C8.501,33.084 8.302,33.578 8.472,34.015 L8.922,35.015 L4.792,33.515 C4.338,33.374 3.854,33.613 3.691,34.059 C3.528,34.505 3.744,35.001 4.182,35.185 L8.312,36.675 L7.312,37.125 C6.941,37.306 6.743,37.718 6.833,38.12 C6.924,38.523 7.279,38.81 7.692,38.815 C7.838,38.803 7.979,38.755 8.102,38.675 L11.002,37.325 C11.446,37.117 11.638,36.59 11.432,36.145 z" fill="#000000"/>
      <path d="M13.052,24.675 C12.826,24.264 12.321,24.099 11.896,24.296 C11.471,24.494 11.272,24.988 11.442,25.425 L11.892,26.425 L7.762,24.925 C7.459,24.798 7.111,24.847 6.856,25.054 C6.601,25.26 6.481,25.591 6.542,25.913 C6.604,26.235 6.838,26.497 7.152,26.595 L11.282,28.095 L10.282,28.545 C9.972,28.665 9.755,28.947 9.719,29.277 C9.683,29.607 9.833,29.93 10.109,30.115 C10.385,30.299 10.741,30.315 11.032,30.155 L13.932,28.805 C14.376,28.597 14.568,28.07 14.362,27.625 z" fill="#000000"/>
    </g>
  </g>
</svg>
