<?xml version="1.0" encoding="UTF-8"?>
<!DOCTYPE svg PUBLIC "-//W3C//DTD SVG 1.1//EN" "http://www.w3.org/Graphics/SVG/1.1/DTD/svg11.dtd">
<svg version="1.1" xmlns="http://www.w3.org/2000/svg" xmlns:xlink="http://www.w3.org/1999/xlink" x="0" y="0" width="64" height="64" viewBox="0, 0, 64, 64">
  <g id="Layer_1">
    <path d="M45.58,8.327 C46.209,8.396 46.733,8.994 46.72,9.626 L46.72,16.022 L48,16.022 L48,12.184 C47.984,11.459 48.698,10.806 49.42,10.885 C50.049,10.954 50.573,11.552 50.56,12.184 L50.56,16.022 L51.84,16.022 L51.84,13.464 C51.824,12.738 52.538,12.085 53.26,12.164 C53.889,12.234 54.413,12.831 54.4,13.464 L54.4,21.139 C54.409,21.815 53.796,22.439 53.12,22.439 C52.443,22.439 51.83,21.815 51.84,21.139 L51.84,18.581 L50.56,18.581 L50.56,22.419 C50.569,23.094 49.956,23.718 49.28,23.718 C48.603,23.718 47.99,23.094 48,22.419 L48,18.581 L46.72,18.581 L46.72,24.977 C46.722,25.492 46.381,25.991 45.9,26.177 L44.16,21.319 L44.16,18.581 L43.52,18.581 L43.52,19.121 C43.532,19.166 45.986,26.081 47.02,29.435 C48.037,32.754 48.526,36.235 47.38,40.329 L47.98,42.727 C48.032,42.937 47.97,43.171 47.82,43.327 C46.51,44.626 44.707,44.886 43.2,45.366 C43.155,45.38 43.125,45.391 43.08,45.405 C37.436,48.513 32.667,49.172 23.56,46.845 C23.254,49.633 21.316,53.11 17.64,55.56 C17.536,55.635 17.409,55.677 17.28,55.68 L10.24,55.68 C9.905,55.68 9.6,55.375 9.6,55.04 L9.6,31.374 C9.59,30.945 10.108,30.6 10.5,30.774 L14.74,32.593 C19.585,29.742 24.094,31.533 27.6,34.472 C30.722,32.729 33.425,33.227 36.02,34.832 C36.2,33.206 36.709,31.58 37.72,29.994 L35.94,22.219 C35.032,21.881 34.107,21.427 33.38,20.7 C32.82,20.14 32.382,19.432 32.16,18.581 L31.36,18.581 L31.36,24.977 C31.369,25.653 30.756,26.276 30.08,26.276 C29.404,26.276 28.79,25.653 28.8,24.977 L28.8,18.581 L27.52,18.581 L27.52,22.419 C27.53,23.094 26.916,23.718 26.24,23.718 C25.564,23.718 24.95,23.094 24.96,22.419 L24.96,18.581 L23.68,18.581 L23.68,21.139 C23.69,21.815 23.076,22.439 22.4,22.439 C21.724,22.439 21.11,21.815 21.12,21.139 L21.12,13.464 C21.104,12.738 21.818,12.085 22.54,12.164 C23.169,12.234 23.694,12.831 23.68,13.464 L23.68,16.022 L24.96,16.022 L24.96,12.184 C24.944,11.459 25.658,10.806 26.38,10.885 C27.009,10.954 27.534,11.552 27.52,12.184 L27.52,16.022 L28.8,16.022 L28.8,9.626 C28.784,8.9 29.498,8.247 30.22,8.327 C30.849,8.396 31.374,8.994 31.36,9.626 L31.36,16.022 L32.02,16.022 C32.073,14.726 32.214,13.738 32.42,13.024 C32.669,12.095 33.243,11.638 33.92,11.585 C34.335,11.523 34.881,11.881 35.2,12.084 C35.535,11.77 35.973,11.545 36.48,11.545 C36.987,11.545 37.425,11.77 37.76,12.084 C38.095,11.77 38.533,11.545 39.04,11.545 C39.547,11.545 39.985,11.77 40.32,12.084 C40.655,11.77 41.093,11.545 41.6,11.545 C42.133,11.545 42.657,11.808 43,12.264 C43.342,12.721 43.52,13.357 43.52,14.103 L43.52,16.022 L44.16,16.022 L44.16,9.626 C44.144,8.9 44.858,8.247 45.58,8.327 z M41.6,12.824 C41.493,12.824 41.319,12.885 41.18,13.024 C41.04,13.163 40.96,13.357 40.96,13.464 C40.96,13.464 40.96,14.072 40.32,14.072 C39.68,14.072 39.68,13.432 39.68,13.464 C39.68,13.357 39.599,13.163 39.46,13.024 C39.32,12.885 39.147,12.824 39.04,12.824 C38.933,12.824 38.759,12.885 38.62,13.024 C38.48,13.163 38.4,13.357 38.4,13.464 C38.4,13.464 38.4,14.072 37.76,14.072 C37.12,14.072 37.12,13.464 37.12,13.464 C37.12,13.357 37.039,13.163 36.9,13.024 C36.76,12.885 36.587,12.824 36.48,12.824 C36.373,12.824 36.199,12.885 36.06,13.024 C35.92,13.163 35.84,13.357 35.84,13.464 C35.84,13.464 35.84,14.072 35.2,14.072 C34.56,14.072 34.56,13.432 34.56,13.464 C34.56,13.357 34.479,13.163 34.34,13.024 C34.2,12.885 34.027,12.824 33.92,12.824 C33.754,12.833 33.541,13.049 33.497,13.405 C33.33,14.223 33.28,15.418 33.28,17.301 C33.28,18.421 33.681,19.181 34.3,19.8 C34.919,20.419 35.781,20.86 36.68,21.159 C36.886,21.228 37.05,21.408 37.1,21.619 L39.02,29.934 C39.062,30.103 39.033,30.288 38.94,30.434 C37.715,32.271 37.12,34.074 37.12,35.851 C37.113,36.31 36.5,36.629 36.12,36.371 C33.164,34.066 30.446,34.459 27.8,35.771 C27.578,35.884 27.291,35.851 27.1,35.691 C23.24,32.052 19.011,31.595 15.04,33.832 C14.868,33.936 14.645,33.951 14.46,33.872 L10.88,32.333 L10.88,54.4 L17.04,54.4 C20.625,51.95 22.4,48.296 22.4,46.085 C22.4,45.696 22.823,45.368 23.2,45.465 C32.726,48.004 36.891,47.394 42.56,44.246 C42.598,44.222 42.638,44.202 42.68,44.186 C44.096,43.763 45.601,43.473 46.64,42.587 L46.1,40.468 C46.073,40.364 46.073,40.253 46.1,40.148 C47.235,36.245 46.775,33.04 45.78,29.794 C44.785,26.548 43.238,23.272 42.26,19.36 C42.248,19.314 42.241,19.267 42.24,19.22 L42.24,14.103 C42.24,13.57 42.097,13.227 41.96,13.044 C41.822,12.86 41.707,12.824 41.6,12.824 z" fill="#000000"/>
  </g>
</svg>
