<?xml version="1.0" encoding="UTF-8"?>
<!DOCTYPE svg PUBLIC "-//W3C//DTD SVG 1.1//EN" "http://www.w3.org/Graphics/SVG/1.1/DTD/svg11.dtd">
<svg version="1.1" xmlns="http://www.w3.org/2000/svg" xmlns:xlink="http://www.w3.org/1999/xlink" x="0" y="0" width="64" height="64" viewBox="0, 0, 64, 64">
  <g id="Layer_1">
    <path d="M48.241,40.91 C45.713,35.583 43.325,30.55 45.288,19.178 C45.295,19.138 45.295,19.098 45.297,19.058 C47.779,17.694 49.63,15.243 50.098,12.234 C50.179,11.71 49.82,11.22 49.297,11.138 C48.773,11.06 48.283,11.416 48.2,11.939 C47.564,16.04 43.709,18.859 39.609,18.221 C39.087,18.144 38.595,18.499 38.514,19.023 C38.433,19.546 38.792,20.037 39.315,20.118 C39.804,20.194 40.289,20.23 40.769,20.23 C41.611,20.23 42.436,20.115 43.225,19.901 C41.487,31.151 44.038,36.528 46.506,41.732 C47.923,44.719 49.388,47.807 50.028,52.056 C50.099,52.531 50.508,52.873 50.975,52.873 C51.022,52.873 51.071,52.869 51.119,52.861 C51.644,52.783 52.005,52.294 51.926,51.77 C51.244,47.24 49.718,44.022 48.241,40.91 z M32,46.02 C31.119,46.02 30.404,46.733 30.404,47.615 C30.404,48.497 31.119,49.21 32,49.21 C32.88,49.21 33.595,48.497 33.595,47.615 C33.595,46.733 32.88,46.02 32,46.02 z M42.11,14.647 C42.99,14.647 43.705,13.933 43.705,13.052 C43.705,12.171 42.99,11.456 42.11,11.456 C41.228,11.456 40.514,12.17 40.514,13.052 C40.514,13.933 41.228,14.647 42.11,14.647 z M21.892,14.647 C22.772,14.647 23.487,13.933 23.487,13.052 C23.487,12.171 22.772,11.456 21.892,11.456 C21.009,11.456 20.297,12.17 20.297,13.052 C20.296,13.933 21.009,14.647 21.892,14.647 z M49.985,24.957 C50.211,24.477 50.003,23.905 49.523,23.681 C49.04,23.457 48.47,23.665 48.246,24.145 L46.784,27.276 C46.56,27.756 46.768,28.328 47.248,28.552 L50.381,30.015 C50.513,30.077 50.65,30.106 50.787,30.106 C51.148,30.106 51.494,29.901 51.656,29.552 C51.882,29.072 51.674,28.5 51.194,28.276 L50.16,27.793 L54.62,26.172 C55.119,25.991 55.377,25.44 55.195,24.942 C55.014,24.444 54.462,24.186 53.965,24.368 L49.505,25.989 L49.985,24.957 z M53.203,34.195 C53.428,33.715 53.22,33.142 52.739,32.919 C52.257,32.694 51.687,32.902 51.464,33.383 L50.001,36.513 C49.777,36.993 49.985,37.565 50.465,37.789 L53.598,39.253 C53.729,39.315 53.868,39.344 54.004,39.344 C54.365,39.344 54.712,39.139 54.874,38.79 C55.1,38.309 54.892,37.738 54.41,37.514 L53.376,37.03 L57.837,35.409 C58.336,35.228 58.594,34.676 58.412,34.179 C58.231,33.68 57.679,33.423 57.182,33.604 L52.721,35.225 L53.203,34.195 z M56.417,43.427 C56.643,42.947 56.435,42.376 55.955,42.152 C55.472,41.927 54.902,42.135 54.678,42.615 L53.216,45.747 C52.992,46.227 53.2,46.798 53.68,47.021 L56.813,48.485 C56.945,48.547 57.082,48.576 57.219,48.576 C57.58,48.576 57.926,48.372 58.088,48.022 C58.314,47.542 58.106,46.97 57.626,46.746 L56.592,46.263 L61.052,44.642 C61.551,44.461 61.809,43.91 61.627,43.412 C61.445,42.913 60.894,42.657 60.397,42.838 L55.937,44.459 L56.417,43.427 z M24.389,18.221 C20.294,18.858 16.435,16.04 15.798,11.94 C15.717,11.416 15.224,11.06 14.702,11.139 C14.179,11.22 13.82,11.711 13.901,12.234 C14.367,15.244 16.22,17.695 18.703,19.059 C18.705,19.099 18.704,19.139 18.711,19.179 C20.673,30.55 18.286,35.583 15.758,40.911 C14.281,44.023 12.754,47.241 12.072,51.772 C11.994,52.296 12.354,52.785 12.879,52.863 C12.927,52.871 12.975,52.875 13.023,52.875 C13.49,52.875 13.9,52.533 13.971,52.058 C14.61,47.809 16.076,44.721 17.492,41.734 C19.962,36.53 22.513,31.153 20.774,19.903 C21.563,20.117 22.388,20.232 23.231,20.232 C23.71,20.232 24.196,20.196 24.684,20.12 C25.208,20.039 25.567,19.548 25.486,19.025 C25.404,18.499 24.913,18.145 24.389,18.221 z M9.322,42.614 C9.098,42.133 8.527,41.926 8.046,42.15 C7.565,42.374 7.358,42.945 7.582,43.426 L8.064,44.458 L3.603,42.837 C3.105,42.655 2.554,42.912 2.372,43.411 C2.191,43.909 2.449,44.46 2.947,44.641 L7.408,46.262 L6.376,46.744 C5.896,46.97 5.688,47.54 5.912,48.02 C6.076,48.369 6.422,48.574 6.783,48.574 C6.918,48.574 7.057,48.545 7.188,48.484 L10.32,47.021 C10.801,46.797 11.008,46.225 10.784,45.745 L9.322,42.614 z M12.536,33.381 C12.312,32.9 11.742,32.693 11.261,32.917 C10.78,33.141 10.573,33.712 10.796,34.193 L11.279,35.225 L6.817,33.603 C6.32,33.422 5.768,33.679 5.587,34.178 C5.406,34.675 5.663,35.227 6.161,35.408 L10.623,37.029 L9.59,37.512 C9.11,37.736 8.903,38.307 9.127,38.787 C9.29,39.137 9.636,39.341 9.997,39.341 C10.133,39.341 10.271,39.312 10.403,39.25 L13.535,37.788 C14.015,37.564 14.222,36.993 13.999,36.513 L12.536,33.381 z M15.752,24.144 C15.528,23.663 14.958,23.456 14.477,23.68 C13.996,23.904 13.789,24.476 14.012,24.956 L14.495,25.988 L10.033,24.367 C9.536,24.185 8.984,24.442 8.803,24.941 C8.622,25.439 8.879,25.99 9.377,26.171 L13.839,27.793 L12.806,28.275 C12.326,28.5 12.119,29.071 12.343,29.551 C12.506,29.9 12.852,30.106 13.213,30.106 C13.349,30.106 13.487,30.076 13.619,30.015 L16.751,28.552 C17.231,28.328 17.438,27.757 17.215,27.277 L15.752,24.144 z" fill="#000000"/>
  </g>
</svg>
