<svg xmlns="http://www.w3.org/2000/svg" xmlns:xlink="http://www.w3.org/1999/xlink" version="1.1" x="0px" y="0px" viewBox="0 0 100 100" enable-background="new 0 0 100 100" xml:space="preserve"><path fill-rule="evenodd" clip-rule="evenodd" d="M85.479,26.869c2.891,3.083,4.225,6.858,4.045,11.119  c-0.081,1.897-0.487,3.737-1.229,5.474c-1.027,2.408-2.158,4.772-3.245,7.154c-0.225,0.493-0.443,0.989-0.681,1.476  c-0.61,1.255-1.017,2.664-2.646,3.32c1.023,0.271,1.871,0.443,2.681,0.724c1.441,0.5,3.051,0.649,4.288,1.581  c1.843,1.389,3.495,2.995,4.288,5.265c0.25,0.715,0.563,1.423,0.687,2.161c0.097,0.586,0.135,1.185,0.044,1.83  c-0.223,1.596-0.843,3.032-1.433,4.484c-0.236,0.581-0.706,1.066-1.064,1.598c-0.702,1.038-1.702,1.784-2.697,2.475  c-0.704,0.488-1.615,0.701-2.458,0.963c-1.325,0.411-2.67,0.761-4.02,1.254c0.49,0.065,0.981,0.122,1.47,0.2  c0.392,0.062,0.788,0.122,1.164,0.241c0.165,0.053,0.338,0.229,0.401,0.392c0.031,0.077-0.157,0.319-0.291,0.371  c-0.836,0.328-1.665,0.705-2.532,0.914c-3.866,0.928-7.819,1.223-11.769,1.521c-4.873,0.369-9.755,0.437-14.64,0.343  c-6.206-0.118-12.394-0.516-18.547-1.341c-1.499-0.201-2.975-0.584-4.451-0.932c-0.431-0.102-0.879-0.292-1.212-0.897  c0.992-0.242,1.883-0.461,2.85-0.697c-0.993-0.267-1.938-0.527-2.887-0.773c-1.829-0.474-3.616-1.045-5.03-2.376  c-0.6-0.565-1.118-1.216-1.691-1.811c-0.228-0.235-0.473-0.5-0.764-0.62c-1.916-0.795-3.695-1.796-5.226-3.215  c-1.561-1.446-2.959-3.035-4.29-4.693c-1.243-1.548-2.488-3.128-4.169-4.222c-1.019-0.662-2.183-1.103-3.287-1.631  c-0.366-0.175-0.942-0.226-0.896-0.706c0.026-0.268,0.488-0.602,0.818-0.713c1.64-0.55,3.3-1.039,4.955-1.542  c0.76-0.23,1.518-0.491,2.295-0.639c0.373-0.071,0.862-0.03,1.176,0.16c3.4,2.074,7.165,3.133,10.995,4.013  c0.212,0.049,0.493-0.088,0.712-0.198c0.604-0.304,1.18-0.664,1.789-0.958c2.324-1.126,4.893-1.438,7.333-2.182  c0.027-0.009,0.043-0.054,0.082-0.106c-1.413-0.227-2.11-1.187-2.603-2.415c-1.426-3.555-2.935-7.076-4.316-10.646  c-2.012-5.205-1.426-10.146,1.781-14.729c2.189-3.128,5.221-5.171,8.767-6.453c6.802-2.457,13.851-3.366,21.052-3.14  c4.28,0.135,8.476,0.871,12.597,2.039c2.667,0.756,5.3,1.633,7.639,3.143C82.609,24.286,84.609,25.942,85.479,26.869z   M74.752,54.858c0.549,0.256,1.106-0.211,1.586-0.59c0.476-0.377,0.959-0.768,1.497-1.037c1.222-0.611,1.778-0.438,2.507,0.635  c0.437-0.055,0.859-0.108,1.221-0.154c0.242-0.586,0.463-1.094,0.662-1.608c0.974-2.509,1.96-5.013,2.906-7.532  c1.016-2.701,1.692-5.458,1.154-8.377c-0.566-3.074-1.9-5.738-4.179-7.913c-1.706-1.628-3.731-2.717-5.906-3.552  c-5.026-1.931-10.259-2.918-15.619-3.082c-6.502-0.199-12.882,0.668-19.045,2.814c-4.076,1.42-7.264,3.892-8.988,7.998  c-0.945,2.25-1.44,4.589-0.977,6.988c0.402,2.083,1.027,4.131,1.66,6.161c0.867,2.782,1.834,5.533,2.763,8.311  c0.516,0.088,1.045,0.23,1.337-0.498c0.072-0.179,0.488-0.299,0.75-0.308c0.928-0.033,1.783,0.278,2.382,0.972  c0.672,0.777,1.467,0.802,2.342,0.632c1.452-0.282,2.9-0.582,4.349-0.882c0.385-0.08,0.763-0.188,1.144-0.284  c0.767-0.195,1.523-0.476,2.301-0.567c1.284-0.151,2.581-0.18,3.872-0.265c0.141-0.01,0.296-0.019,0.415-0.082  c0.507-0.268,1.011-0.544,1.497-0.847c0.118-0.073,0.27-0.306,0.232-0.387c-0.25-0.554-0.486-1.13-0.838-1.619  c-0.957-1.33-1.532-2.751-1.165-4.406c0.268-1.204,0.785-2.282,1.906-2.949c1.34-0.797,2.956-0.556,3.756,0.347  c1.406,1.587,1.932,3.445,1.155,5.526c-0.358,0.96-0.746,1.909-1.105,2.87c-0.048,0.128-0.055,0.391,0.004,0.42  c0.626,0.308,1.247,0.751,1.909,0.831c2.13,0.258,4.278,0.351,6.415,0.562c1.039,0.104,2.129,0.157,3.084,0.54  C72.501,53.832,74.094,54.552,74.752,54.858z"></path></svg>