<svg xmlns="http://www.w3.org/2000/svg" data-name="Layer 1" viewBox="0 0 100 100" x="0px" y="0px"><title>Artboard 2</title><path d="M71.25,38.49h-6V36c0-.05,0-.1,0-.16v-.08a.5.5,0,0,0-.5-.49H23a.58.58,0,0,0-.5.58v22A13.76,13.76,0,0,0,36.25,71.56H51.48A13.76,13.76,0,0,0,65.22,58h6c3.62,0,6.25-2.87,6.25-6.82v-5.9C77.5,41.36,74.87,38.49,71.25,38.49Zm-6,4.18h5.1c2.27,0,3.08,2,3.08,3.65V50.2c0,1.68-.81,3.65-3.08,3.65h-5.1Zm-1,15.14A12.76,12.76,0,0,1,51.48,70.56H36.25A12.76,12.76,0,0,1,23.5,57.81V36.22H64.23Zm12.27-6.6c0,3.37-2.21,5.82-5.25,5.82h-6V54.85h5.1c2.4,0,4.08-1.91,4.08-4.65V46.32c0-2.74-1.68-4.65-4.08-4.65h-5.1V39.49h6c3,0,5.25,2.45,5.25,5.82Z"></path><path d="M61,42.08s-12.59,3.76-16.66,0-17.51,0-17.51,0,0,.11,0,.17V57.9c0,5.24,4.86,9.49,10.86,9.49H50.11c6,0,10.86-4.25,10.86-9.49V42.24C61,42.19,61,42.13,61,42.08Z"></path><path d="M47.59,19l.07.12c0,.08.1.2.17.34s.14.33.21.53a4.35,4.35,0,0,1,.17.68l0,.19,0,.2a3,3,0,0,1,0,.4c0,.14,0,.28,0,.42s-.06.28-.08.42-.09.28-.13.43-.13.28-.18.43l-.5.92-.06.12-.06.15-.12.3a4.46,4.46,0,0,0-.19.6,5.06,5.06,0,0,0-.11.61,4.58,4.58,0,0,0,0,.62A3.7,3.7,0,0,0,47,27.57a4.17,4.17,0,0,0,.47.87,5.65,5.65,0,0,0,.5.62c.16.17.31.31.42.42l.28.27.1.09,0-.13c0-.09-.06-.22-.11-.37l-.2-.56c-.08-.21-.17-.44-.24-.7a5,5,0,0,1-.19-.79,3.6,3.6,0,0,1,0-.84c0-.14,0-.29.06-.43s.07-.29.12-.44.1-.3.17-.44l.09-.21,0-.11.07-.12.24-.48q.14-.28.26-.56c.07-.2.13-.39.19-.59s.08-.4.1-.6a5.8,5.8,0,0,0,0-.59,3.89,3.89,0,0,0-.07-.56,3.24,3.24,0,0,0-.14-.51,2.81,2.81,0,0,0-.2-.44,3.47,3.47,0,0,0-.47-.68,3.53,3.53,0,0,0-.45-.43,2.78,2.78,0,0,0-.33-.22Z"></path><path d="M37.68,19l.07.12c0,.08.1.2.17.34s.14.33.21.53a4.35,4.35,0,0,1,.17.68l0,.19,0,.2a3,3,0,0,1,0,.4c0,.14,0,.28,0,.42s-.06.28-.08.42-.09.28-.13.43-.13.28-.18.43l-.5.92-.06.12-.06.15-.12.3a4.47,4.47,0,0,0-.19.6,5.06,5.06,0,0,0-.11.61,4.58,4.58,0,0,0,0,.62,3.7,3.7,0,0,0,.25,1.13,4.17,4.17,0,0,0,.47.87,5.65,5.65,0,0,0,.5.62c.16.17.31.31.42.42l.28.27.1.09,0-.13c0-.09-.06-.22-.11-.37l-.2-.56c-.08-.21-.17-.44-.24-.7a5,5,0,0,1-.19-.79,3.6,3.6,0,0,1,0-.84c0-.14,0-.29.06-.43s.07-.29.12-.44.1-.3.17-.44l.09-.21,0-.11.07-.12.24-.48q.14-.28.26-.56c.07-.2.13-.39.19-.59s.08-.4.1-.6a5.79,5.79,0,0,0,0-.59,3.9,3.9,0,0,0-.07-.56,3.24,3.24,0,0,0-.14-.51,2.81,2.81,0,0,0-.2-.44,3.47,3.47,0,0,0-.47-.68,3.54,3.54,0,0,0-.45-.43,2.78,2.78,0,0,0-.33-.22Z"></path><path d="M42.51,16.16l.09.14c.06.09.14.24.23.41s.19.4.29.65a4,4,0,0,1,.14.41,4,4,0,0,1,.12.45l.05.24,0,.25a3.82,3.82,0,0,1,0,.52,5.27,5.27,0,0,1,0,.54c0,.18-.07.37-.09.56l-.16.56c-.08.18-.16.37-.23.56l-.63,1.18-.08.15-.08.18-.15.36a5.67,5.67,0,0,0-.23.73,6.54,6.54,0,0,0-.14.75,5.85,5.85,0,0,0,0,.75,4.09,4.09,0,0,0,.09.72,4.36,4.36,0,0,0,.19.66,6.07,6.07,0,0,0,.26.58c.1.18.19.35.3.5a7.58,7.58,0,0,0,.6.79c.19.22.36.4.5.55l.33.35.12.12L44,29.67c0-.11-.08-.26-.16-.46l-.28-.69c-.11-.26-.23-.55-.34-.87a6.18,6.18,0,0,1-.27-1,4.08,4.08,0,0,1-.06-.54,3.91,3.91,0,0,1,0-.56c0-.19,0-.38.07-.57l.07-.29a2,2,0,0,1,.08-.29c.07-.19.12-.39.21-.57l.12-.28.06-.14.08-.15.31-.6c.11-.23.22-.46.33-.69s.16-.48.24-.72.1-.49.13-.73,0-.49,0-.72l0-.35a1.73,1.73,0,0,0,0-.34,4,4,0,0,0-.16-.62l-.1-.29L44.13,18a4.39,4.39,0,0,0-.55-.86,4.32,4.32,0,0,0-.53-.56,3.73,3.73,0,0,0-.39-.3Z"></path></svg>