<svg xmlns="http://www.w3.org/2000/svg" xmlns:xlink="http://www.w3.org/1999/xlink" version="1.1" x="0px" y="0px" viewBox="0 0 100 100" enable-background="new 0 0 100 100" xml:space="preserve"><g><path d="M60.2,76.4c0,1.1-0.9,2-2,2c-1.1,0-2-0.9-2-2l0.1-0.6l0.4-2.2h0c0.1-0.8,0.7-1.4,1.5-1.4c0.8,0,1.4,0.6,1.5,1.4h0l0.4,2.2   L60.2,76.4z"></path><path d="M89.8,57.5c-2.1,0-4.4-4.2-5.4-7.2C84.3,39.1,79,18.7,60,18.7c-17.9,0-23.2,6.7-24.7,10.2H22.9c-1.3,0-2.3,1.1-2.3,2.3   c0,2.3-2.1,6-3.5,7.9c-2.1,1.8-4.1,3.5-4.7,7L7,77.8c-0.3,2,0.2,3.9,1.4,5.4c1.2,1.5,3.1,2.3,5.1,2.3h47c2,0,3.9-0.8,5.1-2.3   c1.2-1.4,1.7-3.4,1.4-5.4l-5.6-31.7c-0.2-1.1-0.7-3.9-3.2-3.9H58c-1.9-0.3-5-7-5-10.9c0-1.3-1-2.3-2.3-2.3h-10   c2.1-2.4,7.1-5.5,19.3-5.5c18.6,0,19.7,24.2,19.8,27.1c-0.3,1.3-2.1,7.1-6.9,7.1c-1.3,0-2.3,1.1-2.3,2.3v24.4c0,0.8,0.5,1.6,1.2,2   c0.7,0.4,1.6,0.4,2.3,0c0,0,2.7-1.6,7.4-1.6c4.6,0,7.1,1.5,7.2,1.5c0.4,0.2,0.8,0.4,1.3,0.4c0.4,0,0.8-0.1,1.1-0.3   c0.8-0.4,1.2-1.2,1.2-2.1V59.9C92.2,58.6,91.1,57.5,89.8,57.5z M58.2,55.3l4.1,23.4c0.1,0.6,0,1.2-0.3,1.6   c-0.3,0.4-0.9,0.6-1.5,0.6h-4.7c-0.8,0-1-0.3-1.1-0.3c-0.6-0.7-0.4-2.7-0.1-3.9c0-0.1,0-0.1,0.1-0.2L58.2,55.3z M48.6,33.5   c0.7,4.1,3,10,6.4,12.3c0,0.1,0,0.2,0,0.3l-5,29.4c-0.2,0.6-0.7,3-0.2,5.3H13.5c-0.6,0-1.2-0.2-1.5-0.6c-0.3-0.4-0.5-1-0.4-1.6   L17,46.9c0.3-1.7,1.2-2.5,3.2-4.3l0.2-0.1c0.1-0.1,0.3-0.2,0.4-0.4c0.4-0.5,3.3-4.5,4.3-8.6H48.6z M75.2,62   c0.6-0.1,1.2-0.3,1.7-0.6l-1.7,1.7V62z M75.2,64.1l4.5-4.6l2.6-2.6c0.1,0.2,0.3,0.4,0.4,0.6l-7.6,7.6V64.1z M75.2,66.1l8-8   c0.1,0.2,0.3,0.4,0.4,0.6l-8.4,8.4V66.1z M75.2,68.1l8.9-8.9c0.1,0.2,0.3,0.4,0.5,0.5l-9.3,9.3V68.1z M75.2,70.1l9.9-9.9   c0.2,0.2,0.4,0.3,0.6,0.4L75.2,71.1V70.1z M75.2,72.1l11-11c0.2,0.1,0.4,0.3,0.6,0.4L75.2,73.1V72.1z M87.5,80.9   c-0.3-0.1-0.6-0.1-0.9-0.2l0.9-0.9V80.9z M87.5,78.8l-1.7,1.7c-0.3-0.1-0.6-0.1-0.9-0.1l2.6-2.6V78.8z M87.5,76.8L84,80.3   c-0.3,0-0.6,0-0.9-0.1l4.4-4.4V76.8z M87.5,74.8l-5.3,5.4c-0.2,0-0.5,0-0.7,0c-0.1,0-0.2,0-0.3,0l6.3-6.4V74.8z M87.5,72.8   l-7.4,7.4c-0.4,0-0.7,0-1.1,0.1l8.5-8.5V72.8z M87.5,70.8L78,80.4h0c-0.4,0.1-0.8,0.1-1.2,0.2l10.8-10.8V70.8z M87.5,68.8   L75.4,80.9c-0.1,0-0.2,0-0.2,0.1v-0.8l12.3-12.3V68.8z M87.5,66.8L75.2,79.1v-1l12.3-12.3V66.8z M87.5,64.8L75.2,77.1v-1l12.3-12.3   V64.8z M87.5,62.8L75.2,75.1v-1l12.3-12.3V62.8z"></path><path d="M37.2,57.4c-6.4-4.2-10.7-5.8-10.7-5.8c0.2,0,0.4,0,0.5,0c0.2,0,0.3,0,0.4,0c0.3,0,0.5,0,0.9,0.1   c10.5,2.1,16.9,11.5,16.9,11.5s3.8-5-4.2-11.1c-3.8-2.9-8.7-3.7-12.7-3.7c-0.2,0-0.3,0-0.5,0h-0.1c-0.1,0-0.2,0-0.3,0   c-0.2,0-0.4,0-0.6,0c-0.3,0-0.5,0-0.8,0c-0.2,0-0.4,0-0.6,0.1c-0.5,0-0.9,0.1-1.3,0.1c-0.4,0.1-0.8,0.1-1.1,0.2   c-0.2,0-0.3,0.1-0.5,0.1c-0.3,0-0.6,0.1-0.8,0.1c-0.2,0-0.3,0.1-0.4,0.1c-0.2,0-0.3,0.1-0.4,0.1c-0.1,0-0.1,0-0.1,0   s4.1,1.7,4.1,8.2c0,6.5,4.5,9.8,9.5,9.8c1.2,0,2.1-0.1,2.9-0.4c0.1,0,0.2-0.1,0.3-0.1c0.1,0,0.2-0.1,0.3-0.1   c0.2-0.1,0.4-0.1,0.5-0.2c0.7-0.3,1.3-0.6,1.9-0.9c0.2-0.1,0.4-0.2,0.6-0.3c0.5-0.2,0.9-0.4,1.4-0.4c0.1,0,0.3,0,0.4,0   c2.1,0.4,3.7,4.6,3.7,4.6l1.5-1.3C47.7,68.5,43.6,61.6,37.2,57.4z M44.9,61.3c-0.2-0.3-0.5-0.6-0.7-0.9l0.8-0.8   C45.1,60.3,45,60.8,44.9,61.3z M44.8,58.8l-1.1,1.1c-0.2-0.2-0.3-0.3-0.5-0.5l1.4-1.4C44.7,58.3,44.8,58.5,44.8,58.8z M44.3,57.3   l-1.5,1.6c-0.2-0.2-0.3-0.3-0.5-0.5l1.7-1.7C44,56.9,44.2,57.1,44.3,57.3z M43,55.5c0.2,0.2,0.3,0.4,0.5,0.6l-1.8,1.8   c-0.2-0.1-0.3-0.3-0.5-0.5L43,55.5z M42.6,55l-1.9,1.9c-0.2-0.1-0.4-0.3-0.6-0.5l2-2C42.3,54.7,42.4,54.8,42.6,55z M41,53.5   c0.2,0.2,0.4,0.3,0.5,0.5l-2,2c-0.2-0.1-0.4-0.3-0.6-0.4L41,53.5z M40.3,53c0,0,0.1,0.1,0.2,0.1l-2.1,2.1c-0.2-0.1-0.4-0.3-0.6-0.4   l2.1-2.1C40,52.8,40.2,52.9,40.3,53z M39.3,52.3l-2.1,2.1c-0.2-0.1-0.4-0.3-0.6-0.4l2.1-2.1C38.9,52,39.1,52.1,39.3,52.3z M38,51.5   L36,53.6c-0.2-0.1-0.4-0.3-0.7-0.4l2.1-2C37.6,51.3,37.8,51.4,38,51.5z M36.7,50.9l-2,2c-0.2-0.1-0.5-0.2-0.7-0.3l1.9-2   C36.2,50.7,36.4,50.8,36.7,50.9z M35.2,50.4l-1.9,1.9c-0.2-0.1-0.5-0.2-0.7-0.3l1.8-1.8C34.7,50.3,34.9,50.3,35.2,50.4z M33.6,50   l-1.7,1.7c-0.3-0.1-0.5-0.2-0.8-0.3l1.6-1.6C33,49.9,33.3,50,33.6,50z M31.9,49.7l-1.5,1.5c-0.3-0.1-0.5-0.2-0.8-0.2l1.4-1.4   C31.3,49.6,31.6,49.7,31.9,49.7z M29.1,49.5c0.3,0,0.6,0,1,0l-1.3,1.3c-0.1,0-0.2,0-0.3-0.1c-0.2,0-0.4-0.1-0.5-0.1L29.1,49.5z    M23,49.9c0.3,0,0.5-0.1,0.8-0.1l-0.5,0.5C23.2,50.1,23.1,50,23,49.9z M23.8,50.8l1.2-1.2c0.4,0,0.7-0.1,1.1-0.1l-1.9,1.9   C24,51.2,23.9,51,23.8,50.8z M24.5,52.1l2.6-2.6c0.3,0,0.7,0,1,0l-1.2,1.2c-0.1,0-0.3,0-0.4,0h-0.1c-0.5,0-0.9,0.3-1,0.8   c0,0.2,0,0.4,0.1,0.6l-0.7,0.7C24.7,52.5,24.6,52.3,24.5,52.1z M25.1,53.5l0.9-0.9c0,0,0,0,0.1,0c0,0,0.2,0.1,0.6,0.3l-1.4,1.4   C25.2,54,25.2,53.7,25.1,53.5z M25.5,55.1l2-2c0.2,0.1,0.4,0.2,0.7,0.3L25.6,56C25.6,55.7,25.5,55.4,25.5,55.1z M25.7,57.5   c0-0.2,0-0.4,0-0.6l3.1-3.1c0.2,0.1,0.5,0.2,0.7,0.3l-3.8,3.8C25.7,57.8,25.7,57.7,25.7,57.5z M25.7,58.9l4.4-4.4   c0.2,0.1,0.4,0.2,0.7,0.4l-4.9,4.9C25.8,59.5,25.8,59.2,25.7,58.9z M26.1,60.5l5.4-5.4c0.2,0.1,0.4,0.2,0.7,0.4l-5.8,5.8   C26.2,61,26.1,60.8,26.1,60.5z M26.6,62L26.6,62l6.1-6.1c0.2,0.1,0.4,0.2,0.6,0.4L27,62.6C26.8,62.4,26.7,62.2,26.6,62z M27.4,63.2   l6.6-6.6c0.2,0.1,0.4,0.3,0.6,0.4l-6.8,6.8C27.7,63.6,27.5,63.4,27.4,63.2z M28.3,64.3l6.9-6.9c0.2,0.1,0.4,0.3,0.6,0.4l-6.9,6.9   C28.7,64.6,28.5,64.4,28.3,64.3z M29.5,65.1l6.9-7c0.1,0,0.1,0.1,0.2,0.1c0.1,0.1,0.3,0.2,0.4,0.3l-6.9,6.9   C29.9,65.4,29.7,65.2,29.5,65.1z M30.8,65.8l6.8-6.8c0.2,0.1,0.4,0.3,0.6,0.4L31.6,66C31.3,66,31.1,65.9,30.8,65.8z M33.3,66.3   c-0.3,0-0.6-0.1-0.9-0.1l6.4-6.4c0.2,0.1,0.4,0.3,0.6,0.4L33.3,66.3z M34.2,66.4l5.6-5.6c0.2,0.2,0.4,0.3,0.5,0.5l-5.1,5.1   C34.9,66.4,34.6,66.4,34.2,66.4z M37.9,65.7c-0.4,0.2-0.9,0.3-1.4,0.4l4.4-4.4c0.2,0.2,0.4,0.3,0.5,0.5L37.9,65.7z M41.4,64.2   c-0.6,0.1-1.1,0.4-1.6,0.6l2.1-2.1c0.2,0.2,0.3,0.4,0.5,0.5L41.4,64.2z M42.6,64.2c-0.1,0-0.1,0-0.2,0l0.4-0.4   c0.2,0.2,0.4,0.4,0.6,0.7C43.2,64.3,42.9,64.2,42.6,64.2z"></path></g></svg>