<svg xmlns="http://www.w3.org/2000/svg" xmlns:xlink="http://www.w3.org/1999/xlink" version="1.1" x="0px" y="0px" viewBox="0 0 100 100" enable-background="new 0 0 100 100" xml:space="preserve"><path d="M61.594,62.427c-0.807-0.551-1.792-1.109-2.805-1.005c-1.721,0.179,0.07,1.291,0.555,1.765  c1.41,1.378,2.606,2.842,3.575,4.56c0.353,0.359,0.347,2.27,1.363,1.703c0.707-0.395,0.562-1.832,0.476-2.447  C64.499,65.178,63.072,63.436,61.594,62.427z"></path><path d="M43.29,49.721c2.054-3.133,4.464-5.729,7.783-7.52c1.572-0.848,2.773-1.972,4.125-3.115  c1.481-1.252,3.032-2.419,4.587-3.577c5.303-3.949,12.859-8.74,12.775-16.184c-0.045-3.861-3.834-5.114-6.84-6.389  c-0.761-0.32-1.733-1.064-2.67-1.432c-0.009-0.008-0.013-0.017-0.022-0.024c-3.348-2.649-7.03-0.31-9.422,2.255  c-2.732,2.929-6.43,4.352-9.751,6.474c-2.992,1.914-5.532,4.396-7.784,7.128c-2.271,2.753-4.293,5.7-6.502,8.502  c-2.331,2.96-4.455,6.041-5.668,9.641c-1.225,3.631-3.218,6.682-5.282,9.877c-1.921,2.974-4.425,6.719-3.733,10.439  c0.524,2.816,3.852,7.126,7.038,4.562c0.972-0.782,1.362-2.067,1.884-3.151c0.76-1.581,1.861-2.374,3.411-3.145  c3.361-1.671,7.063-2.638,9.803-5.35C39.634,56.125,41.294,52.766,43.29,49.721z M31.577,58.767  c-3.299,1.737-8.185,2.655-10.395,5.89c-0.698,1.023-0.97,2.073-1.472,3.161c-0.268,0.582-0.471,0.191-0.557-0.248  c-0.218-1.112-0.213-2.285-0.235-3.415c-0.021-0.951-0.176-1.916-0.018-2.855c0.176-1.041,0.889-1.92,1.473-2.793  c0.916-1.363,1.96-2.634,2.862-4.005c0.896-0.362,1.873-0.646,2.768-0.268c0.636,0.206,1.167,0.646,1.743,0.98  c0.517,0.301,2.255,1.547,2.833,0.856c0.592-0.701-1.125-2.038-1.516-2.426c-1.308-1.234-2.761-1.944-4.287-1.858  c0.502-1.014,0.961-2.051,1.395-3.094c1.459-3.506,2.822-6.97,5.113-10.034c1.363-1.825,3.807-7.041,6.975-5.304  c0.826,0.452,1.496,1.141,2.221,1.739c0.367,0.305,1.882,1.112,1.605-0.042c-0.273-1.153-1.282-2.486-2.152-3.239  c-0.893-0.773-1.831-1.212-2.803-1.29c0.184-0.237,0.355-0.481,0.543-0.716c2.365-2.975,5.044-5.292,8.301-7.241  c2.563-1.533,5.109-2.913,7.484-4.711c1.734,0.527,3.373,1.191,4.903,2.18c0.518,0.336,1.275,1.571,2.013,1.151  c0.831-0.474-0.233-2.107-0.55-2.548c-0.915-1.267-2.649-2.166-4.204-2.454c1.35-0.993,2.904-1.9,4.34-1.693  c0.141,0.021,9.829,2.4,8.719,7.728c-0.629,3.021-3.691,5.242-5.975,6.922c-1.752,1.289-3.422,2.654-5.076,4.04  c0.005-0.056-0.619-3.796-1.693-5.041c-0.645-0.809-1.554-1.74-2.617-1.939c-1.854-0.346-0.431,1.164-0.02,1.824  c1.039,1.671,1.854,3.382,2.384,5.279c0.138,0.234,0.073,0.88,0.158,1.378c-0.625,0.528-1.251,1.058-1.881,1.584  c-0.334,0.278-0.678,0.543-1.024,0.803c-0.125-0.388-0.299-0.753-0.435-0.984c-0.468-0.805-1.251-1.147-1.947-1.835  c-0.238-0.234-1.392-0.203-1.568-0.042c-0.893,0.809,0.104,1.118,0.325,1.67c0.377,0.941,1.316,1.57,2.073,2.246  c0.007,0.007,0.018,0.016,0.024,0.022c-0.691,0.467-1.392,0.921-2.087,1.378c-0.522-0.805-1.188-1.49-2.111-1.826  c-0.47-0.171-1.261-0.474-1.688-0.039c-0.869,0.889,0.349,1.167,0.563,1.721c0.235,0.612,0.887,0.963,1.327,1.445  c-0.411,0.294-0.815,0.598-1.208,0.914c-0.308-0.476-0.864-0.809-1.424-0.825c-0.811-0.147-1.169,1.077-0.791,1.645  c0.08,0.252,0.221,0.57,0.395,0.869c-1.254,1.287-2.364,2.693-3.387,4.169c-0.152-0.558-0.363-1.098-0.65-1.614  c-0.604-1.094-1.875-2.3-3.217-2.31c-0.56-0.004-2.226-0.129-2.009,0.9c0.134,0.636,1.106,0.806,1.576,1.077  c1.4,0.81,3.15,3.512,3.203,3.565c-0.449,0.69-0.892,1.388-1.329,2.083C36.732,54.222,34.711,57.116,31.577,58.767z"></path><path d="M82.657,44.589c-0.861-1.507-1.874-2.928-2.995-4.252c-0.633-0.75-1.432-1.908-2.393-2.486  c-1.851-1.159-6.207-2.713-9.367-2.222c-3.88,0.604-6.37,3.885-8.989,6.505c-1.364,1.364-3.046,2.677-4.081,4.318  c-0.924,1.463-1.251,3.176-1.5,4.859c-0.234,1.584-0.422,3.192-0.995,4.697c-0.589,1.539-1.67,2.812-2.816,3.968  c-2.472,2.493-5.103,4.68-7.399,7.351c-2.195,2.551-4.856,5.073-6.354,8.125c-1.741,3.545-3.427,10.196,0.482,12.983  c2.727,1.942,6.804,1.261,9.771,0.368c3.508-1.055,6.856-2.652,10.288-3.928c6.352-2.363,13.561-5.817,17.587-11.509  c2.101-2.971,3.163-6.557,5.459-9.403c2.341-2.901,5.219-5.375,5.767-9.28C85.617,51.164,84.385,47.61,82.657,44.589z M75.799,63.34  c0.139-2.335-0.201-4.623-2.286-6.194c-1.137-0.856-2.467-1.494-3.887-1.68c-0.379-0.05-1.73-0.104-1.069,0.648  c0.604,0.688,1.628,1.092,2.364,1.644c1.349,1.209,2.47,2.291,2.631,4.192c0.072,0.839,0.023,1.69,0.105,2.529  c0.022,0.247,0.028,0.846,0.084,1.471c-0.21,0.293-0.414,0.587-0.607,0.885c-0.796,1.232-1.339,2.6-2.144,3.829  c-0.874,1.332-1.916,2.548-3.066,3.648c-2.281,2.177-4.965,3.893-7.753,5.345c-0.292,0.151-0.59,0.29-0.885,0.437  c0.004-0.946-0.366-1.883-0.983-2.579c-0.323-0.365-0.896-0.904-1.436-0.783c-1.058,0.238-0.439,1.089-0.439,1.682  c0.318,0.86,0.549,1.767,0.904,2.614c-0.648,0.295-1.3,0.584-1.958,0.862c0.002-0.14,0.027-0.272,0.011-0.421  c-0.086-0.741-0.35-1.429-0.967-1.889c-0.443-0.33-0.985-0.657-1.476-0.174c-0.522,0.497-0.196,0.724-0.196,1.279  c0.109,0.559,0.313,1.42,0.604,2.037c-0.664,0.265-1.329,0.525-1.995,0.781c-0.281,0.107-0.565,0.224-0.854,0.341  c0.173-1.055-0.209-2.306-0.821-3.072c-0.352-0.44-1.163-1.341-1.769-0.74c-0.265,0.251-0.133,1.688-0.042,1.646  c0.193,1.062,0.324,2.062,0.303,3.123c-0.697,0.275-1.405,0.531-2.118,0.736c0.335-1.206,0.306-2.488-0.427-3.542  c-0.302-0.434-0.883-1.117-1.464-0.653c-0.554,0.411-0.329,0.921-0.329,1.484c0,1.004,0.072,3.107,0.074,3.141  c-0.318,0.031-0.638,0.053-0.956,0.047c-5.014-0.077-4.653-5.896-3.274-9.247c1.04-2.528,2.834-4.718,4.625-6.798  c1.241-0.12,2.527-0.21,3.634,0.419c0.634,0.359,1.057,1.038,1.497,1.593c0.38,0.479,1.671,2.3,2.455,1.84  c0.79-0.466-0.383-2.297-0.622-2.793c-1.072-2.089-2.652-3.477-4.942-3.366c1.022-1.146,2.064-2.272,3.154-3.354  c1.402-1.391,2.971-2.629,4.28-4.108c2.059-2.327,3.074-5.125,3.467-8.177c0.197-1.534,0.306-2.931,1.254-4.22  c0.836-1.138,1.996-1.973,3.103-2.831c2.191-0.1,3.731,0.759,5.688,1.686c0.429,0.202,2.07,0.632,1.547-0.423  c-0.54-1.086-1.829-2.099-2.851-2.683c-0.684-0.391-1.354-0.629-2.037-0.761c1.296-1.34,2.585-2.719,4.233-3.487  c1.197-0.558,2.508-0.571,3.765-0.212c0.757,0.215,1.473,0.663,2.207,0.978c0.514,0.633,1.286,1.229,1.623,1.62  c2.166,2.516,4.075,5.469,5.029,8.672C82.39,55.74,78.988,59.509,75.799,63.34z"></path></svg>