<?xml version="1.0" encoding="UTF-8"?>
<!DOCTYPE svg PUBLIC "-//W3C//DTD SVG 1.1//EN" "http://www.w3.org/Graphics/SVG/1.1/DTD/svg11.dtd">
<svg version="1.1" xmlns="http://www.w3.org/2000/svg" xmlns:xlink="http://www.w3.org/1999/xlink" x="0" y="0" width="23.812" height="23.813" viewBox="0, 0, 23.812, 23.813">
  <g id="Layer_1">
    <g>
      <path d="M2.715,6.905 L4.178,5.674 L5.658,4.652 L8.363,2.161 L9.869,3.873 L12.266,7.535 L12.439,7.967 L12.982,8.304 L13.484,8.897 L14.049,9.55 L17.466,13.535 L17.975,14.222 L18.174,14.617 L18.268,14.68 L18.747,15.041 L19.448,15.639 L19.901,16.105 L20.176,16.591 L20.338,16.738 L20.644,16.99 L21.097,17.456 L21.097,17.609 L20.65,17.711 L19.833,18.077 L18.88,18.636 L17.906,19.339 L16.888,20.261 L15.418,21.652 L14.296,20.184 L13.615,19.29 L12.936,18.226 L12.662,17.808 L11.758,16.776 L10.488,15.318 L8.638,13.289 L7.438,11.898 L6.496,10.772 L5.82,10 L4.822,9.38 L4.586,9.044 L4.074,8.625 z" fill-opacity="0" stroke="#000000" stroke-width="0.1"/>
      <path d="M9.486,12.152 C9.02,11.557 8.671,11.429 8.549,11.162 C8.427,10.895 8.245,10.971 8.69,10.411 C9.133,9.849 9.299,9.664 9.688,9.393 C10.076,9.122 10.706,8.728 10.967,8.659 C11.229,8.591 11.599,8.921 11.828,9.199 C12.056,9.476 13.207,10.756 13.238,10.853 C13.268,10.95 14.021,12.044 14.223,12.171 C14.426,12.298 14.848,12.513 15.147,12.879 C15.448,13.243 16.168,13.703 16.101,13.978 C16.034,14.253 15.776,14.832 15.591,15.083 C15.406,15.334 15.245,15.465 14.783,15.796 C14.321,16.127 14.067,16.532 13.654,16.505 C13.24,16.478 12.837,15.929 12.558,15.62 C12.28,15.311 11.791,14.807 11.587,14.559 C11.384,14.311 10.992,13.923 10.668,13.382 C10.345,12.841 9.486,12.152 9.486,12.152 z" fill-opacity="0" stroke="#000000" stroke-width="0.1"/>
      <path d="M9.168,12.096 C8.659,11.443 8.277,11.302 8.143,11.01 C8.011,10.717 7.812,10.801 8.298,10.187 C8.783,9.572 8.965,9.368 9.391,9.071 C9.816,8.774 10.505,8.341 10.79,8.266 C11.077,8.191 11.482,8.554 11.731,8.858 C11.981,9.162 13.239,10.563 13.273,10.67 C13.307,10.776 14.129,11.974 14.351,12.114 C14.572,12.252 15.034,12.488 15.362,12.888 C15.69,13.288 16.478,13.791 16.404,14.093 C16.331,14.395 16.049,15.029 15.846,15.304 C15.643,15.578 15.467,15.723 14.962,16.086 C14.457,16.449 14.178,16.893 13.726,16.863 C13.273,16.834 12.833,16.232 12.528,15.893 C12.223,15.555 11.69,15.003 11.467,14.731 C11.244,14.459 10.815,14.035 10.461,13.442 C10.108,12.848 9.168,12.096 9.168,12.096 z" fill-opacity="0" stroke="#000000" stroke-width="0.1"/>
      <path d="M4.074,8.625 L4.922,7.907 L5.86,7.184 L6.558,6.579 L7.598,5.763 L8.558,5.043 L9.641,4.123 L9.869,3.873" fill-opacity="0" stroke="#000000" stroke-width="0.1"/>
      <path d="M5.756,5.898 C5.605,5.858 5.513,5.799 5.513,5.799 C5.513,5.799 5.454,5.783 5.434,5.68 C5.414,5.577 5.427,5.502 5.46,5.426 C5.493,5.35 5.469,5.388 5.54,5.297 C5.611,5.204 5.814,5.098 5.814,5.098 C5.814,5.098 5.873,5.065 5.981,5.044 C6.089,5.023 6.185,5.087 6.185,5.087 C6.185,5.087 6.229,5.115 6.26,5.179 C6.291,5.242 6.33,5.331 6.327,5.386 C6.323,5.441 6.302,5.575 6.239,5.655" fill-opacity="0" stroke="#000000" stroke-width="0.1"/>
      <path d="M14.602,20.597 C14.918,20.178 14.701,20.405 15.027,20.027 C15.352,19.649 15.131,19.783 15.403,19.608 C15.675,19.432 15.56,19.516 15.838,19.274 C16.117,19.032 16.005,19.163 16.075,19.057 C16.146,18.95 16.051,19.026 16.454,18.744 C16.858,18.46 16.775,18.479 17.047,18.318 C17.317,18.156 17.384,18.224 17.547,18.065 C17.711,17.907 17.67,17.915 17.82,17.816 C17.971,17.717 18.122,17.617 18.304,17.528 C18.488,17.438 18.58,17.387 18.81,17.235 C19.039,17.082 19.057,17.105 19.261,16.95 C19.463,16.794 19.724,16.605 19.829,16.555 C19.935,16.505 20.177,16.592 20.177,16.592" fill-opacity="0" stroke="#000000" stroke-width="0.1"/>
      <path d="M15.171,21.337 C15.171,21.337 15.289,21.217 15.327,21.181 C15.366,21.145 15.402,21.108 15.494,21.018 C15.586,20.927 15.605,20.908 15.757,20.77 C15.911,20.633 16.055,20.499 16.13,20.433 C16.205,20.368 16.258,20.325 16.33,20.292 C16.402,20.259 16.435,20.258 16.476,20.225 C16.517,20.191 16.534,20.185 16.555,20.144 C16.576,20.105 16.579,20.106 16.605,20.076 C16.631,20.048 16.664,20.047 16.664,20.024 C16.664,20.001 16.669,20.006 16.659,19.986 C16.651,19.967 16.654,19.957 16.669,19.933 C16.683,19.909 16.673,19.914 16.72,19.902 C16.767,19.89 16.848,19.873 16.871,19.832 C16.893,19.79 16.9,19.785 16.955,19.74 C17.009,19.696 17.075,19.641 17.101,19.631 C17.127,19.622 17.194,19.601 17.21,19.584 C17.226,19.566 17.299,19.507 17.299,19.507 C17.299,19.507 17.434,19.411 17.475,19.388 C17.517,19.366 17.663,19.286 17.663,19.286 C17.663,19.286 17.726,19.268 17.783,19.226 C17.84,19.185 17.886,19.167 17.924,19.134 C17.962,19.101 17.987,19.089 18.015,19.047 C18.043,19.005 18.016,19.007 18.059,18.982 C18.102,18.958 18.108,18.961 18.138,18.94 C18.168,18.919 18.183,18.904 18.198,18.892 C18.212,18.88 18.343,18.784 18.343,18.784 C18.343,18.784 18.435,18.735 18.465,18.713 C18.493,18.69 18.513,18.675 18.559,18.636 C18.606,18.598 18.646,18.578 18.686,18.532 C18.727,18.485 18.774,18.456 18.823,18.418 C18.871,18.379 18.886,18.357 18.894,18.339 C18.902,18.321 18.896,18.316 18.95,18.316 C19.002,18.316 19.01,18.329 19.064,18.303 C19.119,18.277 19.183,18.272 19.205,18.234 C19.228,18.197 19.274,18.179 19.291,18.176 C19.306,18.173 19.342,18.179 19.369,18.176 C19.395,18.174 19.401,18.178 19.423,18.161 C19.444,18.143 19.524,18.117 19.551,18.106 C19.577,18.095 19.642,18.071 19.651,18.064 C19.659,18.059 19.719,18.029 19.746,18.013 C19.772,17.996 19.769,17.986 19.796,17.985 C19.822,17.985 19.88,17.945 19.898,17.933 C19.915,17.922 19.958,17.913 19.976,17.895 C19.995,17.878 20.002,17.871 20.032,17.848 C20.06,17.824 20.043,17.828 20.091,17.809 C20.14,17.79 20.143,17.796 20.176,17.769 C20.21,17.74 20.213,17.738 20.234,17.721 C20.255,17.704 20.268,17.707 20.3,17.658 C20.333,17.61 20.328,17.603 20.386,17.57 C20.443,17.535 20.464,17.51 20.499,17.497 C20.534,17.485 20.573,17.47 20.6,17.444 C20.628,17.419 20.641,17.423 20.674,17.397 C20.706,17.371 20.703,17.354 20.751,17.347 C20.799,17.339 20.828,17.32 20.846,17.306 C20.864,17.292 20.902,17.257 20.902,17.257" fill-opacity="0" stroke="#000000" stroke-width="0.1"/>
      <path d="M15.013,20.946 C15.094,20.957 15.036,20.993 15.134,20.937 C15.231,20.882 15.23,20.897 15.296,20.824 C15.364,20.75 15.334,20.798 15.397,20.712 C15.46,20.627 15.438,20.658 15.52,20.574 C15.601,20.491 15.552,20.504 15.638,20.442 C15.725,20.38 15.743,20.388 15.787,20.337 C15.83,20.287 15.863,20.275 15.918,20.229 C15.971,20.183 15.942,20.182 16.011,20.156 C16.08,20.129 16.106,20.107 16.123,20.095 C16.138,20.082 16.179,20.029 16.205,20.026 C16.231,20.024 16.247,20.001 16.261,20.041" fill-opacity="0" stroke="#000000" stroke-width="0.1"/>
      <path d="M16.315,19.977 C16.315,19.977 16.298,19.934 16.321,19.909 C16.343,19.884 16.371,19.867 16.411,19.858 C16.45,19.849 16.44,19.861 16.489,19.83 C16.538,19.798 16.541,19.81 16.563,19.772 C16.583,19.734 16.565,19.764 16.61,19.703 C16.656,19.642 16.652,19.624 16.658,19.597 C16.665,19.568 16.676,19.548 16.689,19.529 C16.702,19.51 16.763,19.486 16.78,19.48 C16.796,19.475 16.805,19.44 16.845,19.446 C16.885,19.454 16.932,19.421 16.948,19.408 C16.964,19.395 16.998,19.379 17.024,19.369 C17.05,19.36 17.092,19.361 17.1,19.356 C17.109,19.352 17.138,19.33 17.151,19.32 C17.164,19.31 17.221,19.281 17.235,19.264 C17.249,19.247 17.268,19.231 17.297,19.208 C17.325,19.185 17.324,19.176 17.387,19.153 C17.449,19.13 17.484,19.102 17.504,19.085 C17.524,19.069 17.532,19.061 17.57,19.036 C17.608,19.012 17.655,19.007 17.694,18.986 C17.732,18.963 17.762,18.943 17.788,18.922 C17.813,18.901 17.823,18.889 17.85,18.861 C17.877,18.834 17.844,18.852 17.888,18.815 C17.932,18.777 17.896,18.772 17.966,18.751 C18.036,18.729 18.059,18.714 18.097,18.689 C18.135,18.663 18.156,18.652 18.166,18.634 C18.176,18.615 18.19,18.602 18.196,18.597 C18.203,18.591 18.273,18.593 18.348,18.535 C18.424,18.476 18.474,18.459 18.502,18.441 C18.528,18.423 18.586,18.386 18.607,18.373 C18.628,18.36 18.641,18.336 18.668,18.313 C18.695,18.291 18.69,18.277 18.744,18.261 C18.799,18.243 18.83,18.233 18.851,18.218 C18.87,18.203 18.924,18.157 18.982,18.102 C19.043,18.047 19.052,18.026 19.135,17.993 C19.218,17.96 19.249,17.923 19.275,17.899 C19.301,17.875 19.357,17.796 19.433,17.783 C19.508,17.77 19.566,17.735 19.607,17.701 C19.649,17.666 19.707,17.633 19.738,17.615 C19.769,17.597 19.786,17.585 19.839,17.551 C19.89,17.516 19.898,17.503 19.917,17.484 C19.937,17.465 19.941,17.456 19.968,17.447 C19.995,17.438 20.017,17.425 20.054,17.395 C20.091,17.365 20.16,17.31 20.241,17.266 C20.322,17.22 20.35,17.213 20.374,17.178 C20.396,17.143 20.43,17.133 20.462,17.107 C20.495,17.08 20.496,17.066 20.547,17.049 C20.597,17.031 20.643,16.989 20.643,16.989" fill-opacity="0" stroke="#000000" stroke-width="0.1"/>
      <g>
        <path d="M11.199,12.181 C11.17,12.317 11.035,12.403 10.899,12.374 C10.764,12.345 10.677,12.21 10.706,12.075 C10.735,11.939 10.87,11.853 11.006,11.882 C11.141,11.911 11.228,12.045 11.199,12.181 z" fill="#000000"/>
        <path d="M11.199,12.181 C11.17,12.317 11.035,12.403 10.899,12.374 C10.764,12.345 10.677,12.21 10.706,12.075 C10.735,11.939 10.87,11.853 11.006,11.882 C11.141,11.911 11.228,12.045 11.199,12.181 z" fill-opacity="0" stroke="#000000" stroke-width="0.1" stroke-linecap="round" stroke-linejoin="round"/>
      </g>
      <g>
        <path d="M12.22,12.438 C12.175,12.652 11.964,12.788 11.749,12.742 C11.536,12.696 11.399,12.485 11.445,12.27 C11.492,12.057 11.703,11.921 11.916,11.966 C12.131,12.013 12.267,12.224 12.22,12.438 z" fill="#000000"/>
        <path d="M12.22,12.438 C12.175,12.652 11.964,12.788 11.749,12.742 C11.536,12.696 11.399,12.485 11.445,12.27 C11.492,12.057 11.703,11.921 11.916,11.966 C12.131,12.013 12.267,12.224 12.22,12.438 z" fill-opacity="0" stroke="#000000" stroke-width="0.1" stroke-linecap="round" stroke-linejoin="round"/>
      </g>
      <g>
        <path d="M12.676,11.666 C12.641,11.829 12.47,11.929 12.294,11.891 C12.118,11.854 12.003,11.691 12.039,11.528 C12.073,11.365 12.245,11.264 12.421,11.302 C12.597,11.34 12.711,11.503 12.676,11.666 z" fill="#000000"/>
        <path d="M12.676,11.666 C12.641,11.829 12.47,11.929 12.294,11.891 C12.118,11.854 12.003,11.691 12.039,11.528 C12.073,11.365 12.245,11.264 12.421,11.302 C12.597,11.34 12.711,11.503 12.676,11.666 z" fill-opacity="0" stroke="#000000" stroke-width="0.1" stroke-linecap="round" stroke-linejoin="round"/>
      </g>
      <g>
        <path d="M13.529,13.188 C13.585,13.06 13.733,13.003 13.861,13.059 C13.988,13.114 14.046,13.263 13.991,13.389 C13.935,13.517 13.786,13.575 13.659,13.519 C13.531,13.463 13.473,13.315 13.529,13.188 z" fill="#000000"/>
        <path d="M13.529,13.188 C13.585,13.06 13.733,13.003 13.861,13.059 C13.988,13.114 14.046,13.263 13.991,13.389 C13.935,13.517 13.786,13.575 13.659,13.519 C13.531,13.463 13.473,13.315 13.529,13.188 z" fill-opacity="0" stroke="#000000" stroke-width="0.1" stroke-linecap="round" stroke-linejoin="round"/>
      </g>
      <g>
        <path d="M12.595,12.655 C12.671,12.506 12.897,12.45 13.101,12.526 C13.304,12.604 13.407,12.786 13.33,12.934 C13.254,13.082 13.027,13.14 12.824,13.063 C12.621,12.985 12.518,12.803 12.595,12.655 z" fill="#000000"/>
        <path d="M12.595,12.655 C12.671,12.506 12.897,12.45 13.101,12.526 C13.304,12.604 13.407,12.786 13.33,12.934 C13.254,13.082 13.027,13.14 12.824,13.063 C12.621,12.985 12.518,12.803 12.595,12.655 z" fill-opacity="0" stroke="#000000" stroke-width="0.1" stroke-linecap="round" stroke-linejoin="round"/>
      </g>
      <g>
        <path d="M11.978,13.4 C12.045,13.247 12.232,13.182 12.398,13.254 C12.563,13.327 12.642,13.508 12.576,13.661 C12.51,13.813 12.321,13.879 12.157,13.806 C11.991,13.734 11.911,13.552 11.978,13.4 z" fill="#000000"/>
        <path d="M11.978,13.4 C12.045,13.247 12.232,13.182 12.398,13.254 C12.563,13.327 12.642,13.508 12.576,13.661 C12.51,13.813 12.321,13.879 12.157,13.806 C11.991,13.734 11.911,13.552 11.978,13.4 z" fill-opacity="0" stroke="#000000" stroke-width="0.1" stroke-linecap="round" stroke-linejoin="round"/>
      </g>
      <path d="M3.902,8.409 L5.171,7.404 L5.87,6.908 L6.489,6.41 L7.534,5.589 L8.849,4.568 L9.543,3.957 L9.753,3.755" fill-opacity="0" stroke="#000000" stroke-width="0.05"/>
      <path d="M3.662,8.082 L4.383,7.539 L5.078,7.026 L5.759,6.545 L6.366,6.105 L6.735,5.772 L7.211,5.401 C7.211,5.401 7.608,5.103 7.708,5.02 C7.809,4.938 8.912,4.031 8.912,4.031 L9.496,3.491" fill-opacity="0" stroke="#000000" stroke-width="0.05"/>
      <path d="M3.539,7.956 L4.372,7.311 L5.241,6.635 L5.749,6.267 L6.818,5.476 L7.716,4.777 L8.371,4.239 L9.116,3.606 L9.392,3.339" fill-opacity="0" stroke="#000000" stroke-width="0.05"/>
      <path d="M5.394,6.262 L4.703,6.811 L4.191,7.193 L3.408,7.791" fill-opacity="0" stroke="#000000" stroke-width="0.05"/>
      <path d="M3.316,7.655 L4.133,7.062 L4.726,6.623 L5.288,6.176" fill-opacity="0" stroke="#000000" stroke-width="0.05"/>
      <path d="M3.23,7.544 L3.579,7.288 L4.081,6.925 L4.697,6.488 L5.29,6.014" fill-opacity="0" stroke="#000000" stroke-width="0.05"/>
      <path d="M3.132,7.416 L3.639,7.05 L4.168,6.674 L4.619,6.342 L5.204,5.903" fill-opacity="0" stroke="#000000" stroke-width="0.05"/>
      <path d="M3.047,7.313 L3.472,6.992 L3.986,6.615 L4.56,6.198 L5.19,5.719" fill-opacity="0" stroke="#000000" stroke-width="0.05"/>
      <path d="M2.944,7.196 L3.416,6.86 L4.531,6.023 L5.253,5.465 L5.483,5.272 L5.703,5.09 L5.989,4.914 L6.291,4.666 L6.986,4.053 L7.724,3.369 L8.236,2.91 L8.514,2.652 L8.671,2.518" fill-opacity="0" stroke="#000000" stroke-width="0.05"/>
      <path d="M2.858,7.068 L3.502,6.602 L4.131,6.134 L4.98,5.53 L5.396,5.227 L5.696,4.995 L6.042,4.706 L6.371,4.422 L6.76,4.066 L7.414,3.473 L7.961,2.939 L8.379,2.554 L8.564,2.388" fill-opacity="0" stroke="#000000" stroke-width="0.05"/>
      <path d="M2.743,6.935 L3.75,6.188 L4.2,5.838 L4.475,5.611 L4.852,5.329 L5.222,5.067 L5.497,4.882 L5.949,4.531 L6.37,4.158 L6.919,3.686 L7.521,3.109 L7.994,2.656 L8.442,2.246" fill-opacity="0" stroke="#000000" stroke-width="0.05"/>
      <path d="M6.658,5.401 L7.468,4.704 C7.468,4.704 8.268,4.035 8.295,4.014 C8.321,3.992 8.946,3.448 8.946,3.448 L9.243,3.159" fill-opacity="0" stroke="#000000" stroke-width="0.05"/>
      <path d="M6.089,5.023 L6.617,4.583 C6.617,4.583 7.254,4.035 7.269,4.017 C7.285,3.999 8.018,3.298 8.059,3.259 C8.101,3.22 8.756,2.621 8.756,2.621" fill-opacity="0" stroke="#000000" stroke-width="0.05"/>
      <path d="M6.26,5.045 L6.678,4.712 L7.181,4.284 L7.8,3.725 L8.171,3.37 L8.568,2.97 L8.845,2.712" fill-opacity="0" stroke="#000000" stroke-width="0.05"/>
      <path d="M6.419,5.177 L7.006,4.664 L7.656,4.091 C7.656,4.091 8.043,3.732 8.079,3.703 C8.114,3.674 8.569,3.265 8.569,3.265 L8.979,2.868" fill-opacity="0" stroke="#000000" stroke-width="0.05"/>
      <path d="M6.586,5.242 L7.396,4.562 L8.08,3.939 C8.08,3.939 8.699,3.424 8.721,3.396 C8.743,3.369 9.079,3.063 9.079,3.063 L9.125,3.016" fill-opacity="0" stroke="#000000" stroke-width="0.05"/>
      <path d="M3.76,8.249 L4.17,7.942 L4.743,7.509 L5.44,6.975 L6.07,6.527 L6.641,6.067 L7.386,5.494 C7.386,5.494 8.252,4.792 8.276,4.772 C8.299,4.753 9.172,4.035 9.172,4.035 L9.626,3.613" fill-opacity="0" stroke="#000000" stroke-width="0.05"/>
      <path d="M15.328,21.537 C15.328,21.537 15.527,21.381 15.574,21.328 C15.621,21.274 15.941,20.942 15.941,20.942 L16.328,20.571 L16.498,20.408 C16.498,20.408 16.645,20.226 16.731,20.156 C16.817,20.085 16.877,20.028 16.929,19.963 C16.981,19.896 17.08,19.822 17.244,19.68 C17.409,19.537 17.617,19.412 17.757,19.305 C17.896,19.198 18.124,19.049 18.164,19.015 C18.205,18.982 18.328,18.881 18.4,18.821 C18.472,18.761 18.669,18.63 18.669,18.63 C18.669,18.63 18.69,18.601 18.815,18.522 C18.939,18.442 19.003,18.394 19.1,18.345 C19.196,18.296 19.374,18.222 19.437,18.196 C19.5,18.171 19.503,18.184 19.628,18.119 C19.753,18.054 19.78,18.059 19.896,18.001 C20.013,17.944 20.125,17.923 20.21,17.861 C20.295,17.798 20.355,17.791 20.412,17.752 C20.471,17.711 20.507,17.681 20.607,17.64 C20.707,17.601 20.808,17.571 20.853,17.534 C20.898,17.496 21.043,17.404 21.043,17.404" fill-opacity="0" stroke="#000000" stroke-width="0.05"/>
      <path d="M15.849,20.319 C15.941,20.306 15.957,20.307 15.994,20.3 C16.031,20.291 16.012,20.298 16.103,20.277 C16.193,20.258 16.222,20.225 16.289,20.232 C16.355,20.241 16.364,20.235 16.403,20.235" fill-opacity="0" stroke="#000000" stroke-width="0.05"/>
      <path d="M16.378,19.918 C16.382,19.983 16.349,19.994 16.405,20.004 C16.46,20.015 16.457,20.024 16.514,20.002 C16.57,19.982 16.566,19.944 16.607,19.976" fill-opacity="0" stroke="#000000" stroke-width="0.05"/>
      <path d="M16.791,19.554 C16.795,19.654 16.839,19.613 16.795,19.686 C16.752,19.76 16.732,19.734 16.731,19.793 C16.73,19.851 16.717,19.856 16.747,19.864" fill-opacity="0" stroke="#000000" stroke-width="0.05"/>
      <path d="M17.911,18.864 C17.984,18.854 17.987,18.833 18.005,18.872 C18.021,18.913 18.029,18.944 18.056,18.941" fill-opacity="0" stroke="#000000" stroke-width="0.05"/>
      <path d="M19.207,17.994 C19.282,18.052 19.271,18.061 19.321,18.06 C19.371,18.059 19.348,18.043 19.396,18.072" fill-opacity="0" stroke="#000000" stroke-width="0.05"/>
      <path d="M19.349,17.894 C19.425,17.951 19.381,17.945 19.45,17.956 C19.519,17.965 19.54,17.912 19.558,17.971 C19.576,18.031 19.591,18.06 19.562,18.076" fill-opacity="0" stroke="#000000" stroke-width="0.05"/>
      <path d="M19.608,17.813 C19.642,17.848 19.626,17.849 19.682,17.839 C19.739,17.829 19.677,17.82 19.777,17.838 C19.878,17.855 19.865,17.86 19.938,17.835 C20.01,17.808 20.018,17.807 20.032,17.808" fill-opacity="0" stroke="#000000" stroke-width="0.05"/>
      <path d="M19.986,17.516 C20.149,17.562 20.197,17.542 20.206,17.535 C20.215,17.528 20.187,17.528 20.252,17.54 C20.316,17.551 20.328,17.548 20.331,17.553" fill-opacity="0" stroke="#000000" stroke-width="0.05"/>
      <path d="M20.234,17.323 C20.305,17.379 20.244,17.377 20.333,17.397 C20.422,17.416 20.436,17.435 20.49,17.426 C20.544,17.417 20.548,17.402 20.58,17.404" fill-opacity="0" stroke="#000000" stroke-width="0.05"/>
      <path d="M15.163,19.617 C15.122,19.286 15.04,19.426 15.153,19.176 C15.268,18.926 15.169,19.019 15.448,18.767 C15.727,18.515 15.66,18.562 15.881,18.388 C16.103,18.214 16.028,18.34 16.197,18.116 C16.367,17.893 16.368,17.903 16.407,17.826 C16.446,17.748 16.496,17.817 16.458,17.647 C16.421,17.477 16.407,17.363 16.39,17.33" fill-opacity="0" stroke="#000000" stroke-width="0.05"/>
      <path d="M14.339,19.906 C14.546,19.693 14.595,19.701 14.693,19.545 C14.791,19.39 14.82,19.36 14.917,19.269 C15.015,19.179 15.037,19.193 15.074,19.178" fill-opacity="0" stroke="#000000" stroke-width="0.05"/>
      <path d="M16.705,17.555 C17.024,17.482 16.713,17.731 17.224,17.401 C17.736,17.071 17.757,16.948 17.946,16.975 C18.135,17.001 17.9,17.149 18.219,17.039 C18.539,16.928 18.52,16.951 18.696,16.86 C18.871,16.769 18.874,16.827 18.982,16.708 C19.088,16.589 19.044,16.573 19.171,16.431 C19.298,16.289 19.348,16.277 19.406,16.246 C19.463,16.213 19.621,16.183 19.623,16.074" fill-opacity="0" stroke="#000000" stroke-width="0.05"/>
      <path d="M5.49,9.253 C5.193,8.917 5.146,8.977 5.13,8.775 C5.115,8.573 5.131,8.581 5.351,8.325 C5.57,8.069 5.451,8.211 5.808,7.927 C6.167,7.643 6.26,7.652 6.48,7.385 C6.701,7.118 6.716,7.148 7.032,6.866 C7.349,6.584 7.311,6.67 7.446,6.441 C7.58,6.211 7.601,6.237 7.667,6.043" fill-opacity="0" stroke="#000000" stroke-width="0.05"/>
      <path d="M8.431,5.469 C8.825,5.359 8.538,5.521 8.963,5.332 C9.389,5.143 9.411,5.21 9.577,5.032 C9.741,4.853 9.854,4.847 9.889,4.614 C9.923,4.382 9.862,4.281 9.864,4.204" fill-opacity="0" stroke="#000000" stroke-width="0.05"/>
      <path d="M10.9,7.072 C10.508,6.674 10.58,6.84 10.411,6.517 C10.242,6.194 10.154,6.126 10.108,5.927 C10.063,5.728 10.095,5.637 10.032,5.378 C9.97,5.117 9.983,4.977 9.983,4.977" fill-opacity="0" stroke="#000000" stroke-width="0.05"/>
      <path d="M5.646,9.729 C5.844,9.749 5.779,9.734 5.894,9.753 C6.009,9.773 5.949,9.709 6.053,9.798 C6.156,9.888 6.148,9.796 6.179,9.989 C6.21,10.185 6.191,10.17 6.212,10.26" fill-opacity="0" stroke="#000000" stroke-width="0.05"/>
      <path d="M6.126,9.73 C6.384,9.739 6.297,9.689 6.537,9.833 C6.777,9.977 6.838,10.033 7.012,10.142 C7.185,10.25 7.102,10.114 7.362,10.356 C7.622,10.598 7.723,10.591 7.827,10.672" fill-opacity="0" stroke="#000000" stroke-width="0.05"/>
      <path d="M12.439,7.967 C12.447,8.307 12.5,8.234 12.436,8.473 C12.372,8.711 12.449,8.47 12.291,8.892 C12.134,9.315 12.114,9.155 11.996,9.507 C11.878,9.86 11.805,9.946 11.807,10.133" fill-opacity="0" stroke="#000000" stroke-width="0.05"/>
      <path d="M12.982,8.304 C12.774,8.491 12.813,8.392 12.703,8.542 C12.593,8.693 12.531,8.782 12.399,8.951" fill-opacity="0" stroke="#000000" stroke-width="0.05"/>
      <path d="M18.174,14.617 C17.195,14.449 17.295,14.42 16.98,14.42 C16.666,14.42 16.187,14.436 16.08,14.497 C15.974,14.559 15.425,14.704 15.305,14.746" fill-opacity="0" stroke="#000000" stroke-width="0.05"/>
    </g>
  </g>
</svg>
